<mxfile host="Electron" agent="Mozilla/5.0 (Windows NT 10.0; Win64; x64) AppleWebKit/537.36 (KHTML, like Gecko) draw.io/24.7.8 Chrome/128.0.6613.36 Electron/32.0.1 Safari/537.36" version="24.7.8">
  <diagram name="P치gina-1" id="vo94rbFwnC3gv2veCN6N">
    <mxGraphModel dx="1863" dy="606" grid="1" gridSize="10" guides="1" tooltips="1" connect="1" arrows="1" fold="1" page="1" pageScale="1" pageWidth="827" pageHeight="1169" math="0" shadow="0">
      <root>
        <mxCell id="0" />
        <mxCell id="1" parent="0" />
        <mxCell id="Lc4qGxHdZDB4FoPavioG-1" value="" style="shape=curlyBracket;whiteSpace=wrap;html=1;rounded=1;labelPosition=left;verticalLabelPosition=middle;align=right;verticalAlign=middle;" vertex="1" parent="1">
          <mxGeometry x="130" y="410" width="20" height="550" as="geometry" />
        </mxCell>
        <mxCell id="Lc4qGxHdZDB4FoPavioG-2" value="&lt;font style=&quot;font-size: 24px;&quot;&gt;Tipos de probabilidad&lt;/font&gt;" style="text;html=1;align=center;verticalAlign=middle;whiteSpace=wrap;rounded=0;" vertex="1" parent="1">
          <mxGeometry x="-20" y="660" width="130" height="30" as="geometry" />
        </mxCell>
        <mxCell id="Lc4qGxHdZDB4FoPavioG-3" value="probabilidad &lt;strong&gt;a priori&lt;/strong&gt;, es la que se basa en suposiciones te칩ricas sobre los posibles resultados de un experimento, asumiendo que todos los resultados son igualmente probables. Este tipo de probabilidad se usa cuando se tiene un conocimiento previo del espacio muestral (todos los resultados posibles) y no es necesario realizar experimentos." style="text;html=1;align=left;verticalAlign=middle;whiteSpace=wrap;rounded=0;" vertex="1" parent="1">
          <mxGeometry x="290" y="430" width="520" height="30" as="geometry" />
        </mxCell>
        <mxCell id="Lc4qGxHdZDB4FoPavioG-5" value="Probabilidad cl치sica o te칩rica" style="rounded=1;whiteSpace=wrap;html=1;" vertex="1" parent="1">
          <mxGeometry x="150" y="415" width="130" height="60" as="geometry" />
        </mxCell>
        <mxCell id="Lc4qGxHdZDB4FoPavioG-7" value="" style="shape=image;verticalLabelPosition=bottom;labelBackgroundColor=default;verticalAlign=top;aspect=fixed;imageAspect=0;image=data:image/png,iVBORw0KGgoAAAANSUhEUgAAAsYAAAB7CAYAAAB3o0Y3AAAAAXNSR0IArs4c6QAAAARnQU1BAACxjwv8YQUAAAAJcEhZcwAADsMAAA7DAcdvqGQAAEMxSURBVHhe7d0NdBPnvSf+b//lHpQFI+7SvWJvbiJvMDhNQKZZbKcJtU4wiE1jm0vATlp8lQSC02BMGmwnjY2bFuOE+IUSG9rg4CS4TpNYbqhlbnItUoLclKzkLkHiQi04sBYpXYkbTqwU1uKU7vyfZ2Zk62UkS8YGA7/POeDRaDTzvI300+h5nvmawIAQQgghhJCb3P8n/yWEEEIIIeSmRoExIYQQQgghDAXGhBBCCCGEMBQYE0IIIYQQwlBgTAghhBBCCEOBMSGEEEIIIQwFxoQQQgghhDAUGBNCCCGEEMJQYEwIIYQQQghDgTEhhBBCCCEMBcaEEEIIIYQwFBgTQgghhBDCTMjA2PdpE9bcOxvTpk3Dmr1eeW0of28dFs9eA9MZecWE5YXpsWmY9opdfnwzupHKYLzykuB+z1tQNn82cl91wi+vAjsnpk0rhOms/Jjx7S/DvNm5aPpsaKuY7K+wNEyrw1jnbmz3a0cde28o7FB+b+DE94dpi1HXG1++gzl35WL2/PUwB5UjIYSQm0P8gfFZEwpH+DAaE84mrFhaCXdWFTr2tWHZDHl9sItWVH+/G0t/tRP5t8vrCLmZ+P3DAXEMfrbdTeeiHU0/Yu8Pv92H8nSVvDJerLxuwiIjhBAimXBXjJ37G2HXVOGlWiMMWXnIy9LIzwS4YXp2PTwvt4ziQ4+QG8Stedhx5CS6ntEh1lmgyd2Boye7UPKtm+Vc8cFStQZ9T4/2/UEF3TNdOHlkB/JulVcRQgi5aUywwNgHz1kvcF8ytPKaSFrkNx9Fy8roWxBCblZqGLbR+wMhhJDRmWCBsR++8/IiIYQQQgghV9HYB8aXvbDuKkNh9jxx8Ny02elYWWWC66L8fBTejkK2/Wys2cse7F2D2fy14QOJjptRty4X6bP5c9Mw+95crH/FHLnvwCCkMz7YX10jbf+YCWLv6KEBSn64OiqxUhzkNxvpq5vh9PENgtdPw7wVlTCdCOt0KPe3ruuVHweR8hHHIKNRlpMoaJCV79NmlD2SLpXX/MXK5cF4e9h2jy3GPL4dz+8jCvmKVW5MePnPy16Ppk/FQhudq1gGQ/Vy0QVT1UqpHIIHuoWnZdo8LH6sDM2x8sf2ZX5lPRbP59vzMo2yvU/aLlduU2IaX7Uj6p7j2u/IA9BEQeUUQk6TdAzezsvQ+lmUFCVST4nsN4bQ9iq3td7Y+4m3ffpPKGwXtO+o53B4PfJy2GiGW36ai+s8i0FKW+D1rA2uq4M54vXsPaqrDutz5DYvbtcEu5wF/2d84OE8rO8a5/EghBByAxrzwNjeMBu5v/Ag7ekGdO3rQseLegywICvnWfNQgKVE/e3n2PZtKF/EHiwqRxt7bde+55AlD75z712PhfcWovViFp77OX+uCw1PaOHeXYj0PB7wSNsFs20vRvddL6H35Ff4ak8+gnsr97WVofJ/paKodjc6fl6Amb8rw8INJtg7irHSNB1Gtr7r1zuwdKAJax7aBMsYX8kebTkF+/LTOhTWODGnsB672T7anr4TfTWFbB+mkA9rHhzNzmmC566n0MDL9ddV0H/B81WsOPJesdzYl4Hie0vRMykXVS28/Ntg/EY3KpeuQN1noxutdFXLQORG+0+bMPi9Fhz9iuXt+Qxp9UUWZP7zQuTWuzC9oEZMS9evf4yl6EbZ0gVY0xG5J1zmfd0L0Q49nmvk27+EPHSy7Vl5hMyE4IVpQzpKfwfkVrI2xdP4L9PRXbUYKxqCZpQIiHu/V4Dn9+F0FL4zgKWbOsQ0NXxPA8sTK1BhkbcJEnc9JbhfZX7YX1nM2msdXOoC1PC6YP9qClTweGLkP9726WxCzgK2nTofNfJ2JWkeuNwjlO0ZE9YskPKWVbZTTFPXz59D5oB7+AtOgudZOD6TRs6CQtbqAvmuwbKLrShckIMmp7wR49yZg/SNPVA/WiO2+a63SzDf64L7grwBIYSQ0RPi9ad2YVVSkrDK5JFXKHO8v0fouyA/kPW9niMkJa0S2t3yiqg8QrsxSUgytrOlIPKxs7fahEF51RB3u7A6JUlYuN0hr2Dstex4YesC5OdSNh0M2ZfHtEpcn7SoVrAFp9/RKCxk60s/GJBXMHJ6au3y4yDSftg+5MdDeWJpD3ZF5STngZdTv7wqYPBAhZASnt7DncIeV1jJuXYJOWy7Ve8E7SFWuf2pW9hzIGif3IVuoZSnY0to3iJd+zII1G+xOSwPrBXYti4UklJWKxyTP5fNXlcsdH4hrwrkJWmhsPlQeGvsF/Y8zJ5btEvok9fw7bt/eVAIPeqg0F3O97E5sp3EvV+bUMvyE3I+imXCyu5P8mMuYl2M/Ho6hVJ2LoW233jrKfH9Khn4oJTVXYqw2hReq8EU8h5n+3TUp7B0BJe77K/yXybyHHYIjYt4+Ye9N4SL9zxTMsjydD8791haQ/fQL7WLZ7vlNuQQanlZjnjOEUIIGY0xv2KsW25E6hT5gSw1LYv9b0b/KH/Zc+9vZa82YsOTGZEj8G/Px1NPauDY0Y2giyoiQ4ZOXopk/K4+ZF+aewzQs7/6fylARnD6dZkwsD+20wpXDa/AWJRTyeO5EYMUVQ88gg0s282HXfIa5lt5MM4JK7k58yEezR15MMVyu9UA4wNq+YFsShoyl7O/J9xxX+ENdlXLQJQHfVpYHvw2dNY4kLb+GYWp/1TIKHyKvaoVnT1hCVq0FsZvh7dGLZY9WQT09sA5NL+2BoZCPUKPqkJaRh7764I7/Epi3PsdLSe6o+VXk4eCx+XlIPHVU+L7jeSF5d1meAsbsC3RwXNxtk+1Jo39b4U1vIvFJPmvkt5uNPamoeZn5aHvDeESPM+C+T/tRLVTj7XfC3+P0yLjQdZWdjtYa+HU0PDT84B1qOsEIYSQsTMOg+/88DrNaH21CZXrcpH7z4sxL7tafm50vF4rCxgykKY0pzGjnZXJNuoLC6bycGfU6ZbYc+Ef3pNvEYMX9dTwoISHMYDjwhj9jD3kSsspD/NnRaaVB2IzZ7E/YcGq/6wT5rYmNFWtZ8fKxeL5i6F8tBjldt4Fa0czmmrKUMj2kXvvQqlP+Khd3TJg4Ry04fV+/pzY5SJLN0d6HO5WLXgo1XM6LLBJvzMiIOfU3+AdT8IC+8s+uHpMaH61GmWPsXzmpGPharP8ZJhE9jsaZ91igBU1v4oBYhz1NKr9hnOjn7UnfUZa2BeJOMXRPrXLf4z65V5UL71N7P/cvN8F32X5ySi8bgdrR1mIlrVg8Z9noXzneSu0Yr3cNzv437wi3lYc8pcoLQperEfe+Wosvm0eVm5shuUERciEEDJWxjYw5n0Mc+Zh9opqmN0DmJlmRMnGKrT8vEje4Cr7uvx3ohmrcoqVvxlq+cqTH/aGXMz75gpUd7kx8A0djMVlqHp9B6IeTWG/vI/3vP+WjvW/cMIzVQvDmjKU1e5ETa68QaKuahkEKAXRoxQz0EuDarK8eMaM9QtuQ/qGXXB+MR3aJWtR9lw9dlbzK8YK4t3vFVKp4iyLBOsp7v3GoB7FLuJun1N0KNpzFJ9/0oYibT+aVqTjtgXrYR7xSrwKt8RM1yjOswhG1It9i5X+DY+3UOmK0PaHz/HJ20VIdjdhJWtf89aFDgIkhBAyOmMaGHs/bER1TyZaftuLjm1VKHkqH4YsPTJmjer6zxCNRg8csMMRZQCc+5QN0M1Hcvi9QMZZ358iL9+JaRnB2JSTDf1/lheD+ftwZC8LoWbNlK66ne1C40+tyGz+CL3v1aPqmSLkL9FDn35nAlfl7Gh/rhXTn2f7+O0O1DxTAmMu20dWKmbKWyTqqpZBLDP+QbxC2+M8IT0Od9YNB/uz7K6w67jHlbuPuI/1sP8zkSpvbn+nFK1Ty/HR7z/CjuoSlBTmsXLTIzVaW41zv6M2VS3Wmd2lFEb5MRg2gCvuekpwv8pULOgDzHZX9Bk7FCXePtW6PJRs68DRkx0omdqKwqrh2VfCqabwvVhgC++rFewKzzPpGG6o/omnW+mfDprgwHySGrrcEtT/+ihOvleC6W2FqBzvu5ISQshNYGwDYzcPCsN/rvbD+kGrvDw62iz2YYxWNO62s72FOWPCrt1eZHxPD4WeseMjEEwd7gtNz0UrOllaRjI25eRFs9kSEUC4321CEzJQ8B25NM71s/CRHU0bGlH5P+5kJRonrwd9LFvaWZrQa66nrXivS15O0FUtg1hUmTCU8j7qr8IUcdXQD3vbLpg1RTBkhIU3e99DZ3gszeq/ucYKzZMGZIqbe+E5xQvuTmhC+qa6YTVF6UoR136vgFrqd2vd3Ro5k8uJVjS9Ki/L4q6nBPerTIc8lkfsrkVzIjNwJNI+w7tNaAxY9iD7e8oTNTBWZ+WiRONA4w6lmU5kV3ieqTOyYIQVr7+j8B4XLiwPmgeXieMg3N6R33sIIYTElnBg7HPZYO2xhv1zwsvezeekG6FBHSrWNcMsrjej6bHvoOviUvnVo3SHEQ1v5MNdsxjpj9XBtF86rnnXeuRmr0HPAy1oKb5qYbEYTD3yYga8rz6J/BdaYeF57WrG+rwm4NEoP5EHGZty0iPLW4uFjzXJ+7Cg9YVcLN5gQUblS1gbKI5vZsCoAeo2rUdzl1xurxbiO12XEPfRNGnQLwHMVaWo7rCI+7C0VSJ3gxPJo+xKcVXLICYV9GVvo+p2E9Zk52L9LrOYP+t+E+oeS8fiGqDqV1tgCO/fvlwNW0EuKtuk8rB2NaHw/lwWkOfjpR8a5KuEGqRlsZClqwKlPzVJ7WR/Kypz1sOpjdJO4trvldAg94dVyHDWYXFeUJvg59JGHzJ/IG8mi7+eEttvNNrHG9DyqBvV2ekofEUuM1avplfLUBltXt4E2qe9QeqXK+VF2q76LcDwZF70L9ZT9KwNVEH77hosZnUXyJu1i9Xl6iZp0O+Vnmcz8lDO3uM8r4S+x/F22Fy1Buv3BvJuR92ClSgLtFOxzVez4NuAtQ9KOaB5jAkh5ArIs1OMTJ6iTJwiK+JfYDqoQaHPVCGsyORTIiUJKZmrhVpL/9DUWkrTm4WKMl2bbODwHqHCmC3MlY87d1GxUGtyhE2FxShNWxUQ7bmo09FJU0OFTzXGUiPYthcL2WlyWh6uENpdg3FO13aF5RTIg3tAcPyyVFgRSAMvD3Nf2HRP7GiudqGiYIE4hVlSygJh9dZuof+vCvmKVW5f2ITGpwNlP1dY8ewewTEgTyUVpb6GXfsyiKyXMBf6hW5Wnzlyeng5rXh2l9DtjtjTcF7c3ULtE8Plyre3DU3rFhDeTkqFPYcHhH4xPcFlneh+Rztdm2TQ1SnUBuoz6Bi2rTydweWUWD3Fv98Y/uoRDr5WKqxaNFc8Bt9PztO1QvepQF0o5D3O9umx1grFD8llm5QiLHioWGhk+Qmu5WhtZeAYz1uOsECceo63tVVC6Wu2ofefuM+zGDzWXUJpYB/iMXKE4q3tgiNousCDW0Pbac7TjSHtdPBwrZDNyqDYHPusJIQQEulr/D85RibXC343s2wHWv7YhvyoM2/c4KgMCCGEEDLGxmG6NkIIIYQQQq4/FBgTQgghhBDCUGBMCCGEEEIIQ4ExIYQQQgghDA2+I4QQQgghhKErxoQQQgghhDAUGBNCCCGEEMJQYEwIIYQQQghDgTEhhBBCCCEMBcaEEEIIIYQwFBgTQgghhBDCUGBMCCGEEEIIQ4ExIYQQQgghDAXGhBBCCCGEMBQYE0IIIYQQwlBgTAghhBBCCEOBMSGEEEIIIQwFxoQQQgghhDAUGBNCCCGEEMJQYEwIIYQQQghDgTEhhBBCCCEMBcaEEEIIIYQwFBgTQgghhBDCUGBMCCGEEEIIQ4ExIYQQQgghDAXGhBBCCCGEMBQYE0IIIYQQwlBgTAghhBBCCPM1gZGXCSGEhPDB1XMEHvmRZCbmZ6VCLT8act4F67HQLUUz50M/J2LrUBedaC6vhe/RnSjPGmHbm41Yrm6c+6MLHj+gvs8IY/pNWkYTqCz8Z52wneqH+zM3O0uA1NwSGO6QnrumLnthfbcRpg4brP2A/omXUPNMRuT5eqPxe+G096H/jBPu8+zxnDyUPKiVnothwtbjtcQDY0IIIUocwq5lOUIO+5edliQkJUn/Vr3TLz8f5PCusO1ShAUPsde+5pA3iGZQsG1ZKL4m5ScH2SMSQi7XBSly2Zs88hM3IbEssoW5gXZ4DcvC80FFSFpq7fIT19IFm1D7UIqQsrZd6P9rv7DnYek8nBBpG2+ebqEi+P1nq01+IjaxHh9aIKRMpHq8xigwJoSQONi2JgkL75cC2KSkFcKeU/IT4f7ax4LpJKHUEl+I229aLX4oZZd3sg9zeSWJ0P/OKrHsb+rAWNb/Zk6MsvAI3T+qELqvUjHZtkyUgIp9wdzKz89iofML/jgQGGcLu46JG9wcDm0W6yPewFgyKBzcRIFxAPUxJoSQOGnXN6BlOV+yYP3aJjjFtWEmTcffqwHNdJW8IgZnE9as7kFWYy/21eZBO0leTyKoqGyGqKbG6hjgh++MG77L8sPxNmHq5QSsux2ALhXJM/hjLYzvncPn/+cjFN0lbnBzmBTH+04EFW6ZKi8SGnxHCCFxm6RFfnUL8vhybyU27lQMjePmPu7B0s4/oOXxVPbRRMgY8Llg65KXbyp+wMv+zJoJjbRCDBLVU+RlQuJEgTEhhCTi9nzUvJEvfvjaX9iIus/YB3KEPCT/o7wYg/bRGpQ/cJMOJCPjwr23Gc3yMiEkcV//CSMvE0IIieLs71+G7T9vwMN3TcX0u+bjv/7v92H+9xPoOabCQ4/cD83QT8oXcfw3FiD7Ydw9TV4FP7yf/R7/66Qbzt91wfKxDzPvnYXp/Ck+08AfjsHtPoHef/sAB/5jJjJni88MP3eiF5Z9B3D+HzIx6+/Zvpwf4P13LeixueD9TzORqpF/B/W5Yd3Xjq79h+D4kx/fuDUZUXt0XPbC/v6v8PMdP8H2fz2GC4NJ+Kc5t2KqfLmEj1b//ZE+uJ096Po3B772zTRMPW1G+68scPxlJpJnTQ+7ys3S1bsXv3rtF/hJ4wc45v0Cf/uHZJbexK+F82N/YG5n5WQfysek0++jqdOF1GVSHUTw2mF6++f4xZbt+ODYBVxM+ifcfevIvw/7TlhhO+bGiV4LPth/ntXLrfD17EX7b36P019X2McI5RbgO2FBOyuLum1NOMDSc/kbfwfXjm5cWpTGvlSNsj3ILh5XKIuLXjjNP0HxD9pxFqxNZNwK/Ieb7ceNS1OT8Y3/JG0mYnlw/uv7aG97HVsaf4FDx87ji78p1WkoXlZdHV048Hs7XP9xC2bO0sD36cto/R2gf+wF3M8OGYHlx/L+L/CLhnq23Sl88ZdbFMsrtP38CodPXcDkmZdg2X0M/7RwFmLVpFSHx3CIt81/TEUm+1LqYfn+atJMaKZJJ6bvNEt7+y/xZlM9mn5zGKfO+XDLbXcjvHr9Z904K3wNX7t0CZfEfz64T1/E1P8yFZP4LDW9bvxt6t/hb+xccx7+MyZpNJga3J0kjvwm1OYSras/H8LLrT1AlhEv3DsVrk+68P5vDuCQ/F6hZe8VSr1f+Ptb9HpkZbC/HU0761D/q0M4dRFI1rL2Gp6AoLw37Wfnxv/7L/i7E43o/r/ZSPuv8jbXA7mvMSGEkBj44LuQwU7udmG1PFNC9lZb0GwSHqHduEpo/5P8UMQHROUIOZkp0sCYpFphaGhM2KwLIYNmwmYhqLU4hMYnVguN5oOCzW4TOreuYOtThFW/7BcG7LXCiicahU67Q3DY24XNi9hrUlYL7W55X8HcnUJxGh/w1y44PAPCgPugUFvA0pZWLHTK24eOVl8l1NavFnLK9wh7fpItpiX7tT5pQ26ApYu9Pps9b3Oz/Q0MCP32XewYKcKKHY4EZtoYEA5uyWHHzBaKX+sUHG6P0GdtF2qfWCGsKpAGPioNOOt/v5iVUbZQanIIHn5sKysLVp5zn+4UFOYPCeF4jdXLornivpOSKlg+c4QV9Z3Crqf54xSh1DIgb8nEUW58IJNje44wd+0eto2U88EvHEJ7OS+3QL2Psj3IPKbIgYhiPoZeJ8+Iwh7zf7sOyxuJ+oX277Pj/vdiod0l1ZXH0S6UsvaS8hBLxwV5s2AX+oQ9T7MySlkhbDYdFPo8/YLDzOq3YLWwShzgpjxoq99cKmSz19Ra+sR6GfD0CZ28fheVCt0h7dIjdLL9Z/+kW+gfkMssULbGdvZsbFLeA+cJ24+c74oPpFcOHtosPpe93Sbmd2CgXzhYv4K1s7lC8fuhLSR8to2ktGwh50fdchpYOx+qM17GoYMc481v/G1uFHXF3gfE/RqLheKHi4VdZpvQ5+4TbOZGYRVru+Lrgpp0AH9/U6zHwEwfBbXCQX5ue+S2nJLDth0+swcPNwo5aauFPQ6PMMgHEQ8OCA4TKw+lfU5wFBgTQkgcIgJjxvO+NKMEH/k+/CGhFBjLBg8KFeL2QYGQbMBcLH2gKQRCgVkIUlgAFhrosg8tHgilzBUWPN0eEgQOHqiQXlMfNl0c+6DbfD97zcN7QoPGL1jQx7d/tpuFp8MCsw4Etu97LTwwZsECD8LD98ed2iOsYNuueDPiGQV8VgG+74XC5kPhoTQLENZKAUl4HfCgZ6HCMaTyZEHGBwpRQAQegEj5TNnEp8wbELrL+fGCgpR4y22gWyhljzcfEp8ddoGvD6v3UbYHpcBYwtse31+U9sd5OoXV4jHDAhZHo1iOkVMGBsqe7TOk7TE8aOJ1H74vZuCDUnZupAgVB8Lrks+AwPaXUiEcDAR24rEV9u9iXxLiCIwlLC1iviLL0lEvtZ3QIHuABeN8e+UZZvp/yb90Jgk5EW2XtYOQ812SUH5FcbS5hOuKCQTGi1g5hAfOgS/zCueqcmDM0sjbU0Ta2TnPz4VFjWyJY2l/lj3eEl7ygyxP119gHPFjBiGEkPholr+EhkfF3sao/lET7Bel9VGpbpF+Llegnhl9Mv6hWQi+Z0T+7dKiRIvk+9gfrx8FT+SzR8NUU6UjeZ0ucUxSgKutAnVOIC9fH7I9ZmTC8CjbfrcFNj7Tf4D8u2tg+9Sn9uHzzz/HvqdSxfXuts2o7FXYH3eHHo/kApYNdTDzmw7EcrodtTV2YNFaGL8d/hutFlmGTHk5mAutm+rgQB4eWRR6dHWGAfks5837beKNC2Jjx5Pzafyunj1Sw/DSUZbPo6hfIpV93OV2wSfeEMZywBp63CmpyHxSE3qjiVG2hyuiMeC5t+tRU9eFgnR5Hadj+WB/vG12nJDWiPw9rah4l7WgZ9YiN6TtMVMyoOcvCue3onFDMyt9I5Y9EF6XKui/a2QHasKm3fLg1Ut+VodmdPa4pccBt89H1h3qmN074qF7/G3sqK5BS2nu8MA8VhNpWXwYrQVWR/AZItHelyeWh3W3OXT2mdN9cCwxsrILSlWi+RWN3OYSrasQBj0ywgce3p4LI2ur2L8edV0jnxW+/U2o2MsWHl8Gfci+dNAvZyXZ2w6rmCU/fPz8/rAb1pDdqpB6TxE019kASAqMCSFk1DTIe7EB+fzTtrcaFTvs7CNi/GTOihYsZUYO9vvHZGn2jBBuOHtY8MlM9/XD2mMN+tcHj/iZboMrLD7h0oaOzT7C1YFgxQv7fou4NPx8sMCHfysLeiKDj2DuHhMLUZj0OyMD7GjOONHDgnKWG3zZH5wX9s/lwS38KbuL5TpeebgzEPzxGQ3UgSAngXK7lQXALIhxvJKL22anI3ddJZraWHDl1SJ/mxHS14lriQUruUUoeUoK8P0+L1y9PB9HpC9Q7L/hNuyHbX+duD7v7mS5zuNw1I5W/qLlUepSnlLMsaNbCjrvSEMRO4fM6+Zh2vzFKNxYjeYOK9yXMlD+ouHK71o3IwPGZ0qQr2PHvcyns3OKdec4JUVxl/4m/gl1xzIYC9lfZyD4kzg/fB0zWaAYkq9E8xsiWpvjEqmreKiQfLf0rtBqPzLia112HuwDGZfdclsf/tfvv5M944D7LC9DDVIzMljh1CH3ttlIz1mPyldbYXZ6oX20HsbrbLo8CowJIeRK3JqHbY1F0iwVNaWo+3RAWj8hedEfmMrr6/LfIKkru9C1rwF5s+QVI3Kjn19RikoDrfyhaDoROzz1eq3SgtLIoGi8/TDLi5FSkb+P5edneZgjrxm9RMpNh5I3O1CSxVqE1wVrWxMq1xVi4ex5KNzlTDCQGSf8tsm7yrBy/jTMW1qB1kMunLskPxfCh3Nn5EU5uIuH1+2QArdoAl/avA64zrK/MwzY8ut65PFbEZ+2w7y7DmWrczFvQS4qP4z/a00svuNm1K1Ox+z/nI412zvhPDPSFVM1DPkl7K8DjXutcr2xgPp9A/IDV3RlCec3EXHXVXyG5gM/c26EX1K8cMuXo2+ZNFlaCKL+Thlr811YmyGVha64BR3FenbGs+C9pxVNVetRuHA25j3WDOdIv6RNMBQYE0LIFVI/WIWdT/LQ2IG68mp0jvSZe82ooNJJS9o0PfRZSv8yoI37p08WLPFsxyLfaCJtavyBVdwmq5AmLmgxXzEv7F+6Nv4rnVElWG63G1Cz7yTO/fsn6Hp7B8qfNLAUumEuL8brkZcMx5ffC+dn3uGA/KIddUtnI7f8CNLqTuLk/2xBzTNFLNibr3y1czS+HhlIhRi6QjsTankCBpWuCG1HzuHzP3yEjjfqUbIyFRr2ZanpkTi64YzA3bEGC+4tRPOkEuz7/Cg6tlWhpDAPmamxr0Wrvm1AOf9+09YDGytAf08nmrOykBneoEaR37hcjbqKSgW1eKMU9v6WmqnQ3qV/qfI2/Bw0vNyFk//nKD7Z14YdzxfBwL7ouPeWoTikC8nER4ExIYRcMTUM1btRwoNEpxnmA9LaRPgvXI0rzXOgWyJFso5TUa7E+f0JXNXUIi1XWnK4la6ZBa46aWCYF/u6rXZOvrRwYTD+48/RwSBmxwF34MpmGP/F+HMTXQLl5rWg8qcW8Wqc6nYd9LlGVG3rQO8nNTDwq4/74wsSxqw9nO9B7faeoauD9h2rUN0L6LftRJWcp0h8OjknvH4NUnXSNr4L8ZejZtZ86QvL3n7lbiyBK/1LdBBj08+aUfiWiy2wYGxOBgwri1DzRi/+8Db/JWbkbjgxnTWhcrWJtcQi7PyZUTqeEj5N3omwb7QqPZatZznx1sG03w3bx1YULef9gUMlnN84JVZX8sMReL1SCtMy2BcPcSkaNVLvkTqQm5X6VnGXWZsXv/h6YXmhGhZefFO00GXlwVhZj47ff4KaJeycUexCMnFRYEwIIWNhih5VreXyFczEnXD2yEvjSQX98g3IYEvmD+3s4yycD+aNhWg/LT8ckRpZ/1Il7s92rC8yoPX34QjvapG+AcuyYl+31WQ9IvYzxbt2xQ/RgQGFy/A8cPmhmBt02hWCp/NmlBnblYOVhCRQbpd9cDeYYQ27yqnSZYIPH7xzRnyR0Zi2h8mBK5rsi8pxKfVZaWG9nc+6Wdge4EPP9lr0sDzolkj5tn6slG8/BpSu5uoKUC4OSrWhT6EtuY/xvGlQ9KTcV5eVmXm3JaLe1fdIZTZzegLRZLg/y0Hp8kykhf0S4j5lk5eY02bk7uXBeSjdAwXiOd26fQ2qnUbkyb8chEg0v3FJvK5CKN4S3I0jB/grDVj7oFJGQmkfLJLOyQ+tsCsE3s6dOag7JD3h+3MdzD1h5+gUHTJ547k7bNDpBEeBMSE3ostumNatjHJXtjj4ffBF6Rfm3bsehTsnSF/Jq8Dv88F7woxuC/vYM7XCeoaVjU8596pvl6Ph+VihcSpS+YAe9qE3EFy+Z0xofpPPZcAc74OLHVM8BB8oxI9/XvrA8Z33io/5VRqeLp/Piy/Fp3z48lwgXdJrfOe+ZGv5U1/Cyx8HjqcrQQu/c9/eClS85ZK2kbk7NuL1WT9GAe/rydsA279H/sD1eqRjh7cL1bdK8NKLeqChGk2fBu/NB/urbJ0mHy1vlmDEj+EZBpS8zNLlrUbjbldI+/J9WofijVIfZLerT8yPdKWKZae4BS0sKDG/UIHW4yG5gemF16HdVBA7GLko5TO0HNm/8CqOt9xErSwP9pBtcIYHMxkw3BOcmrFrDxI+CIq3PxaYH5a28R+3wZ/FbyrCaaC7j0cqbAtL8EBRVldt78Ehpp+nxY9Bn/yzv24tXqpkr9nbiMb9ITmC+91iFL8mLTtcrEx4WsRHGuRtaoDxDguqt5rgDg7SWN4211iRUfk2tjwYFC45G/Hqu6FfYfxn+uDWFEHPB83FIJ4LXo8cuLM265XqUCyXOdLAPuztRE/wrwosHa17VWK5+AYGxCv0it19dHlYu4T97bVj+nKFmVdECeY3rjY3iroawtpBVy3qQs5HXl+bUb1fg/w3eFrllVHOc/F4vO/3r9gXX2c1Kl6xwBuUL39vHSqPbUBR0Bfe1u3NsIcc0s2CeyDjqnT9GDtf43O2ycuEkGvEd9yKI1/ID6L6eySnzYE2ZNSyEhYQFOXg3wz70LJyNG9H7PWPzcOa27twrjryZ0P2lgj7KzmowEvY93yGwvM3Ejvqpi1GtfxoyPIWnNwj3RY6Au8XmNeI5NY25CvdCeyMBZXritH+RRYKvjcfKrcVjslFaMhzYN7S4SPlvXESbdpWTMuOODqqfnsSyTtmY03EwLcqfPTHZDR+c410lSxY5Uf4itVXgLenCRXPNcLk10KffAvwl0FMNlSh5Xm9eHXH21GI2asj9hKxnwBpf81wfiMZM/kAH08/PHcVof7lEugVC0qZ79MmFD9dCcesIhRkqeE7ZMeX95XhqRmvY/G64fRU/fYrlAemsOIDlHZWoGyHCf7b9UhOAgb/MhlLN7WMeMtt+yvTsLhGfhBELP+VkQkfqdz4T/eFRhsyDV+ik32Zysybj5lfHEErCyoNLzag5sGwc3JM2kNQWVx0onndKpQdUkF/90wMqg3Y9nP2xWToain/wlKMNVWsLJfwMp6M/v0ezK/cBuOkZhR+vxpWrxbGPfuwY3kgrX64OqpR9kI7PN8pgJHF3q79Lqgfr4HelY6Vr8ibIQ8tfwxq9z4XTPWV2Nw1gGReVhhEf/90FkTW4LmVqcNXEVmQNbvejw1zHOg8ngx9FjsuKwfzITXWNu9EUczA2Mver5TOheFy8Z8woXpjBZpc05H/qBHJF3kZP4KaH2XA9UIOCtvc0GRV4e33yiOnOGN8Xetx2yqg7X/vQN5Qn1oFceY3/jY3irpiZTltqwZH31uG/oY1qHelwpCmgrunHc2n0lDT2CANDJUpn+eh9eg7bkJt1WY0OaU2hcuDGLzDiJ0vG5Eqlhevg1Ww3bMUX5q7gfuWYf43PDjyjgW+JTXsOzPvY3/9oMCYkGvOB+srxahn3+4H+62w85/iNKnSG1AwTx+sx73QLq9By7YSZER5g3buXIwVp57DH7aNbpoj34dlWPBIM7yxgj840ZS9AkfWf4IWPp8lSRi/yiUOLp+khpp/uPCrgRf5mslhUzaNr6F0TGbpGIPDjs3++JVRaej95ClqaSQ9v7LFVwXKS8lQGfLDX/n8t7FEz6cffr8KKr4ugTod6/Yg7S/GawPlyYSUFVvvZ2kYmr0gmFL58quf/EpirPoeKS/seT/bW0g9j8N5EFHGMr+PHT3msVj6fYg/PVdYdxFGU1cBY1ie0cqP4335VVOk/Qe2Gzp3rzMUGBMyYfhhrfoH5L4KpL38CX5XHPnjs3dvGRY+1gxvehU++ddyRFxIOd2KlfPNyDvSMfxTWSIu2lG9dLF4IwPoavDJJ9F/Avd/XIl5RZew83/WwxDrKgohhBBynaA+xoRMGCfg/FhayrpLeQS/ZnkBjHyhtxqtH4f2HxMD6zerYSk0YtlogmLG+VYFrJPln8mdsWcnUD3wCDZomlH77vU03pgQQgiJjgJjQiaKMy7YxBizCPp7ovzk5RtAIBz2XAwLW8924fVXvSjJH+Wdok63YvP7S7HtxaVy9wkvlCYCGKaD/ntpsG/vhDVWBE0IIYRcJygwJmSC8B2zSQOmFsWY6/KEA53iggZp2tC+vd5PO9nrYwTVMflg2VGH1E0l0M1KFqdIYqE3fBfEhah0GXnQeFthPyqvIIQQQq5jFBgTMkG4nFLImxZ1ahs/7AfMEKckWlKFgsAodJEPjkMsrI4VVMfg/7gWpWjAcw+woHqqGtKwP/fQFD5RzUnDMpYis526UxBCCLn+UWBMyITghK1Lnsw9Sv9if28TKmocQHoROn5mDAue3XB0sT/ztFFmkYjFide3uPHjH8pdMNTT5X044JdHQkelngmtjm3p6JcCdkIIIeQ6RrNSEDIR8LlPxbln89FyZFvILA9+7xH07H0dm2tsUD1ehbZqhduaes1YM7sQpihzzMbifmsl1lz8MT4amgXDibrZC1HNIt38PSdHmI5NnkP0VOwZLIK53ipE2W9idl6OQY38l9pgvEt+SAghhIwhCowJmQD43MG3PdKsPH+xOhUZS7Kw7AEDdLdG6T8sB9aIclOCqM6ygNrowlP/Wo6MoV0PT5gf7SYHwwJTzFXho6/YPuS1MQXNhZq4sZ/blBBCCAmgrhSETACB/sV4fCe6ftMV+m9PPaoK86IHxaPGgtrXSoEn8pB6ySfdklT8N4BB+dafNvdIHSRUuCXkVqRxmKRiwa16lP8oKCaEEDJ+6IoxIdecE00LF6LSCRS99znqA/fTT8QZEwrnJnbF2P9ZHXKe6MYt4q1LQw3dgS+OrhnS7U0TuGJ8lU2bNk1eIoQQcr366quv5KXxRYExIdeaHNSaw+5Pn5CEu1K40bpiDXwvfoQShY7BzobZWPhTLxDzttAcdaUghBBy46DAmJBrbKh/8Qi3YI4pwcF33o5CrDy1AfvZtkphJn9+9mozkNuCo2/nR5k+jqPBd4QQQm4cFBgTck0FrrgCGhbUnkxwRolh8kwSj3bhXLVeMdgdct6CsmwLDL+tD5n9IthQYIyRrgTL3UAyOvD5tlHecY8QQgiZIGjwHSHXhF8a6ObtgeVdaU2mRi2tG9XtlbVIy2V/jrqjzifsZ/v2Ok2ofKwYzclaTL/sY6kIw7s5sO38mC6v8MLj5QPyoiTK54HbCeh1qRQUE0IIue7RFWNCroGhPrwKNC9+gpOliXeocLetxLx1yej4vB6G8CjV2YTvLKyEQ34o0aDKehLl35IfMtHTlY+2ky3IC+9s3FuH2dlmbPjkd4p9lQkhhJDrCQXGhNwoTrdi5fz1SO08hxp+a+erwLnzO1j4TsHo+0aPOz+8n9nQ9xf5oegWJP/3DGinyA8D/F447X34Un44JOlOZH5LE7t7CtywVFXCcncNtjyqHWFbcq35zzphO9UP92du8N7uqbklMNwhPZew8y5Yj7lx7o8uePyA+j4jjOk36e8nE6gsxrSObwby+1//GSfc59njOXkoeTD66JKAG7KceWBMCLkRDAidTycJSU93sqWrwSE03p8krPhlv/x4IvII3T/KEXKWsX+ZKUJSEisf9m/hFpswKG8xxNMtVIRtN3cRe/yjbraX2PrfWSW95uE9wkQuDSLxfFAh5Dy0QEiR67nWLj8xGod3ie1rQYq0r1WmkVrLDUwsi2xhrlyu17IsxDoOSssV1fENpu+XK8S2n73p4PBnhfz+l50mlVfSVpv8RGxjei5NEBQYE3IjcTQK2UkrhD2n5MfjaPBAhZCSUiEcvCCvmOA8Jha83r9QWCi+gacIFQciQmPZgNBdniTkvN4nP45t0F7LyjxJSCloFBxX5xvJBMe/jFQI3WMdE/Gg6zWH/GAsDAoHN43dh3ngy9FNHRjL+t/MiVEW49Q+orBtuXECtrHhEdqNUpkkJdUKEeHvoc3Sc3EGxpKxPZeuNRp8R8iNRLcW214cQPUOi/iz1vhx4vUt7ShoroI+vEvCRJZbhYbn09iCF01Fm2DhPxlGUGP6DPb/9MAAxBjOW7Dp+9VAaRf+8F4JdDQCkfHDd8YNn3z3xDHj98I6MKqRqVGM4q6NMagmyQsEqqmxToRxah/RUL2E0SC3tB7GRXkoea8gcsahSaPpCDa259K1RoExITcUFXSlLXjpQik2drjldWPND/srG9FpeBtVV6kv89iZjowfNqCcd4j2NqO45sq+QPhOODD5xV7se1FPs3IE+FywdcnLY8h52CIvkevaOLUPEj+Vrgg7ftOGmjj6EN+MKDAm5IajRf7P9+F/HChF3WdjeYVN4t1bhsap27Avys1BJrwpGSj/WZV4pcS7uxgb9yrPDpKmHfkOgupvl6OmMJUG2wVx721Gs7w8Zi5a8d720DlVyPVpXNoHIWOIZqUghNwUxJuWnNog3xmQX/XOweIaO6DJR9vBFuQF3Yrb/so0WBd9hfJ0eQUjjb7+EvC54TztCxp97YOr5wg8bOnSORdcZ5OR94xBvltg4LlL0kj926WR3nxflo+t4uhv9R16LH1QB434k68P7h4Luj9jr1DNhG6JAfo7olyLvuyF/Ted6DzQBSd0yF20DMv+OUPeT3h6gczHjUg9a0bnfjdwVx6WLdFGXOX2nbCg02SBpdeDmelZyDQsQ356PLcYZy564fywDhtXN8MOPcr3lCFLvoHMzLv1SA2/mYyfpX/fcPoN9+mRl8vKLSRR/Gd3G5rLn0T1h+wLzOP16FqZKj0VMVuIXHa/s6Gn1wXckYGs+5aGlEk4Xs+La4Cq34bW9UiC62/yrTosXaKHar90U5y8aLdl99phYvVl/dAJzMuFPi++svWdsOIIa1zDbSsL6OlibeRL/P19CvsYoV0EDNe1C9NZegz59wKmI0iuNrJXDc/m4hNnKUgdbtPizBNiaw9p08ECNwgKKYtE2ofXCfN+K2yHLHD+WQvdAxnQ5y5j51vs32V4WVk+dkozYsjnlbthhDpm+bF82A7Lfjs8M2K1GVYmvV3oNFvRdXQAqekG5ObfCdfeASx73hD9tvlDs92w9slnbhBne9CwLPag51M+e4ca2geWwqCLMfNN3Gm8gnoN6K3DtOxqgN9FtTQVLlYHVv5+xN4tYqUz5rk0Jm3yKhJ7GhNCyA1OHHwXPKDkgk2oXSQNGElZ2x4ym4Rta+Qgkuijrx3CrpDZLIIHtEjPDY/07hYcO1YLq7d3CgftNsFmrhVW8ON/f4/QP8DSU7BaaDTbBIfDJrT/JJu9JkVYbVKY58LdKRSzfWaXtwsOz4Aw4D7IXsuOn1YsdLqlTULTu0qorV8t5JTvEfaI+2WvfS1ocOFf+4XO8mwhpaBW6HZ5hIGBAcHj6hQ2P5TCjtEd10wbjtek2T+k2RlShAUPSY/5v12H5Y1kA4cbhRUp2ULpL20s3yz9A/2C7bViYW7KCqHRETQoMjBTyKK5UvmlZQ/tM3S2kEHBtoVvky00HuL7Uy6TcLyeQ+tyJAPCwS05rEyzheLXOgWH2yP0WduF2idWCKsKFor7Uhpw1v8+yxt7TanJIXhY2vqtrN5ZOc19unPEshXLNZD/pApWjznCivpOYRefgYaVc6klaMRnHO2Cl5Vje44wd+0eto1U1oNfOIR2Vv/DbVeezUWpTYfNwqE0SEs818LKIu72capdWMW2WVDSLvSJbcMjOEylQjZ7TU69wmwy3IU+Yc/TrIxY+9lsOij0efoFh3mXUMzOp1UPS+lUquN+M9sve02tpU+slwFPn9DJ63dRqdAd0mY8Qifbf/ZP2LkwIJdZoGyN7UHtUIHchofKy1gqVDy8Qmw/B60Hhc7tq8SZM1IeYmWsMHg3/jReYb0G2GvldBYLxQ8XC7vY+1Gfu4+9VzUKq1jbipbOqOfSmLXJq4cCY0LITSEiMGYGD0szSvAP6uAAVCkwlsQYff0F+wCI9mFzao+Qw59LmSsUhwW6tq38QypFmJtZLLQHf9ANHhQqxNfUsvA6CAvoN9/P1odPDScfP+XZ7pDp+gKj8gPb970WHhgPCN3PsjQozTBygaWBfaCnbDqoHJBECIx4XyW0/0leFU6cOSVJWPFmZEjY/+YK9lqFWVUCH9ZRR8o7hFo58AgJTAN1EmUavcQCYxZ8b+Vlt1DYfCi8NPqF9rVSsBEeGA8e2izOhBKe3wFzMdueBbYfxDOVCdv/96W0SnXBZ06R2s1QYBxvuxjoFkrZ482HxGeHXeDrw9puoA0qtGkp/ey5OANjycjtw/P+amm/Ycd0bOdfPFKEzdZoZc/2GRIoMkFffsPreOCDUvYFR2l2Gn6Oh50PrM0uVNq/i31JGCkwDgjM9rBos3DwC3mdrN+0WvoCG1Z3CaUxkXpljzYrlLEocK4tYs+Fvx+424XV/DxTOJ8Uz6XxaJNXAfUxJoTctFTfKsG2F8XexjC9sBmmM9L66GKMvp4xM/QnyWCTb5G7LRhhXBm6lXZWJvvfC/9yI/Jvl9aJVLdIN+b2OuA6K64RudoqUOcE8vL1ocebkQnDo2zz3RbYgkcUyj9XBrZPfWofPv/8c+x7SuqS4O9pRPFu3k1hWeQMI1P0WPY42+erm/A6O+aVc6P1p5WwIw+PLIosLe2iR9gzFqyvNyOxQZE6FLXuQE11C557MOhH7Rlp0PNbpe+3wqHclTx+p9tRy7veLFoL47fDf0zWIsvA6zGcC62b6uBQyK86w4B8Vu/N+21x5JUdT65H43f17JEahpeOsno8ivolUsuKu11c8IndfiwHrKHHnZKKzCc1od1rAm1QgXpmZP2NBY3hObTV1aC+M3TGBB0rL36etPaekFbI/D2tqHiXVe4za5EbfP5wUzKg5y8L57eicUMz25sRyyIGEKug/66RHaoJm3bLjf6Sn9WhGZ09YQOab5+PrDvUil0LIgRmezAshT6sW5F25XMoX8QW9q9HXZdcK4mmMZF6ZUZMs0GPjPD3g9tzYWRtKSSdMYxLm7wKKDAmhNzEVNAVb0MV7xPnNaFii4mFbuPovuTQD4ggmbPCn9Eiebm8OMQNZw8Lzpjpvn5Ye6xB//rgET/tbHApZCJtaP8srFIPf5g7P21lH77swys1SsrEgMyBxv1jEBmftcOyny+kQRsexHBfl/+2dcKaYCCr/rYRJc/kQ8c/zC/64HbyMnGg7yJ/9hIuXeH0YO4eEwvZmfQ7o9ZhhDNO9PTyhen4sj+4rtg/lwe38KfsrgTaXB7uDJQbC7TU6kAtJtAubmXBBmvvjldycdvsdOSuq0RTmxlOrxb524yQe3BfOywYynuqBEUP8FL2w+d1wc7zcUxqEN7LwQOK/bDtr5Pa793JIwd7AUftaOUvWh6lLuUg1rGjG2KrvyMNRez7lnndPEybvxiFG6vR3GGF+1IGyl80jEHglop7l/BpJIFW+xGWKybRNF6VelUh+e48cWkonVFdv22SAmNCyM1NpUP5z2qkWSreXYPKd8c1NL5CXvQHproKBJFBUld2oWtfA/JmyStG5IX7eOwIVDtL+iD0Ol1iAHJF/twPs7yo6FYtC5k5E1wjXr0P54Orqw5r7p2NafevQVOXE+6RL2rFzeu1SgsKA56i8sbKbyry97H6+lke5shrRi+RdqFDyZsdKMlikR4LOq1tTahcV4iFs+ehcJdzhGDnKmFl3bxxJeZNm4fFL7TC9sdz7KuNEh/OBdpJAvPvet2O2G35H5PZVxAm8GvNDAO2/LoeeXyw7Wk7zLvrULY6F/MW5KLyw7F5v9Bo5PD3zDnxqmnCabxK9To0X7eczuiu3zZJgTEhhOhKsO1l6Ydbc1ElGo+LixOQisfxIm2aHvospX8Z0CZw05XJk+WFKPyBK60z4vzJOBwflf+ZV/pwYx+qQR0dFEkfgmlQjZAuPgOBa+gGLW6YihYgfVUz8IN9+PxIB+orS2DMzcSdV/t32GCTVXKgr8V8xbpi/9K1oyvXEAm2i9sNqNl3Euf+/RN0vb0D5U/ymQncMJcXj1GXmQQEtw/+sLcOi2fnosyRhoaTJ9H7Rg1KnsqHIS3u6/Qj+/oIjetv8l/MhFruOsXn/m07cg6f/+EjdLxRj5KVqdCwAL7pkTqYFW8UdIVGkcYJVa/XcZukwJgQQhhdcQt2LOFLZpj3iqsS4x/EgLw4fuZAt0QKLR2nolyp8vsTuMKiQXKaFLqZo+zP65aueRruSR3dT8bne1C7vUe6unRHGpaJKx1wB/WbHnLWDRf/qzFAN8JlVNfeXJhPS8vejkqs4f1Mf7ATOx+Pns7QYDox2jn50sKFwfjLd44OBrG6WH6jXAH3X4y/tqJLoF14Laj8qXRjG9XtOuhzjaja1oHeT2pgSKDLjP/CGLX24PYBO5q+Xy1O51b/iyq57BQMBdMapOqkjXwXEmj1s+ZLX1j29rPQS0HgSv8SHVJ5Y/qsGYVv8ZapgnpOBgwri1DzRi/+8HYRS0ErOnuu9LcUP/oc0nmWlsECbvY34TSOUb2OxOuVUhNIZ3RXv02OFQqMCSFEpIXxZy3Sz5OjccKJHnlx/KigX75B7PZh/tCu8FOrD+aNhWiXA8Z46P65HPn888vep/AB7Ebfp+yPpghFV3KXrMBlaXUWjOJgRxv6TkUGMv4TR8QP+4wfLoN+xMuoLNHyz7ruU1JQkZeRFnb11Y3+Q/IiExxMJ0qT9YjYzxTv2qU+nWEGBqTQLoRKj2U/FGsLnXaF4Om8GWXGduXAJyEJtIvLPrgbzLCGfUFQ6TLBhw/eOSO+rz8nnGPY2gPtg30xkgZJZmF+2Bcj3rVgSFAwrVsi5dv6sVK+/RhQ+iKkK0D5o7wyWTtUaA/uYzxvGhQ9uYy9KzCszMy7LRH1rr5HKrOZ0xP4yqjU1/2iDZZ3+YIBax+UL7OOIo1jUa9DFPvku3HkAK+HoHRGdfXb5FihwJgQckPz+3zwnbGj02IDLO0wOb3w+aJcXbo9HzXNsUPj1LuM4l/vQNA+Lrtheq1ZHFnNrw72nWDHlI8hHv8cn96f8X0JL3/MB4T5+TY+eM9LAZXvPE+XT+y6IL7G58WX0ovw5bnh/fFuHy1v5EOztwIVb7mk/crcHRvx+qwfo4D3hRT374VH/rDxeqT9i8cOdmseflxrhHZ/NTaH9a92v7sZ1QcyUPWrLTCE36BDkQapLDjlgaD1sJQy/3Eb/Flp8tUlFXQ/eAlVWUDdT5tgD068z46mLU3QPNqCluKwD905aSjif7tscnDiwhG7ERnfFB8g9R5+5Y4dtasnJMh0v9uK9in8GVaGF/0YvMACZx6DRSmbKK1CMsOAkpdZuXur0bjbFbKt79M6FG+U+iC7XX1iHQe6oPBfIlpYgGN+oQKtx0NqC6YXXod2U4EU2ERzUaktsH/hiY23XYhaWR7sIdvgDAtKWRhjuCc4NalILeR/vRgIbjdnTGh+U2rtON4HVyA9l/1i2pTatGSE9nGrDlnizSHM6P40KIOsbbS+45DK6fwA/JcG4Qt07dGtxUuVLPza24jG/SE5YvVfjOLXpGWHi5UJT4v4SIO8TQ0w3mFB9VYT3MFBIMvb5horMirfxpYHgwIyZyNeDTs//GfYl0n2pVGvS6AzzCsVqPs0pHZgevZJNHk1yH+Dp0lePZo0xlGv4nuL1yMHquyLA38c/p7A66mrNiydvDzZ+8H+sHTGOpfGpU2OP7rzHSHkBuaF6bHZWBPRNaIKH31VLl7NiMT7qy5G/9qTUe6G5oblhfUo7vAg61Ej5qvcsDono6huGRxzF6Na3grLW3Byjxat04LWBVR+hJOzGsW7g4Wr+u1JJO8YOc3eniZUPNcIk18LffItwF8GMdlQhZbn9WJXgsDdxyLwO1qJd/8L5TtuQm3VZpgHkpGcxFb8pR/901nQXP0c8u9K4IrNRSea161C2SEV9HfPxKDagG0/L5Fmiwi47IV1ZwXK3nRiZvJMcZWn3wPdE/V4qViveEcv94eVWL+hCf2365GMyUgta0D90FVsP1wd1Sh7oQl9M/JR8L1kXDrkwOT8GjyX4UJlXiFaT2ugf/FtmEoz4FMsmzy0/LEN+UF3QFTi+7QJxU9XwjGrCAVZavgO2fHlfWV4asbrWLxueJ8hdwAL5HeHCX6efla+g3+ZjKWbWlD+QOyyDdxRLFy0O+yN1C5w1oRCow2Zhi/Zl0UgM28+Zn5xBK0sqDS82ICa8F8GzlhQua4Y7V9ksXKdD5XbCsfkIjTkOTBv6XDLFtOjbZXumhYmpCxGah/n2RekjWtQydq/4ckC6Kf0w3J2Pqrq2BfStwqx6qdWeO8wos28A3lDM5sE6r8dnu8UwMhib9d+F9SP10DvSsfKV+TNwuvY54KpvhKbuwaQzMsKg+jvn84CUtZuVgZ1yemtw+x6PzbMcaDzeDL0WayMWDmYD6mxtnkniuIJjAN3lHu+DR9N7US1YyYMLJ1H3mlHD7Kw4WfbUPJthbYQbxrjqtco74fB7wk8nVs1OPreMvQ3rEG9K5WlUwV3TzuaT6WhprFBGiQnU36fCS3nMW+T44wCY0IIGQ1+pUQcKj95aNosfjWGr5o8RT08enucBY6JyWoMzd51JfgVSn51ahLbX3AwmyApXcNlo4xfYZTmG5gcNIVcVPyK5EW2fbS8Bp5nQuqAr7+sGpvyEQWlO3CcQHuIVW7B6Ysnv1cgervww+9XQcXXDaVnpHoK2l8gfwm8VslI7WPoeGHb+H1+qKIdT6l8A+051vkxUl7Y8+yoofWcaL6Db7XMg9BE9zNieY+uXkc02vwqGOs2OV4oMCaEEEIIGU/hgTGZsKiPMSGEEEIIIQwFxoQQQggh44FPLddjgclskx5bWtHcZYXzbPjoSTJRUFcKQgghhJDxwGfUeMsWOtsCo77PCGO6wmA7cs1RYEwIIYQQQghDXSkIIYQQQghhKDAmhBBCCCGEocCYEEIIIYQQhgJjQgghhBBCGAqMCSGEEEIIYSgwJoQQQgghhKHAmBBCCCGEEIYCY0IIIYQQQhgKjAkhhBBCCGEoMCaEEEIIIQTA/w+j/bmPsmJJOwAAAABJRU5ErkJggg==;" vertex="1" parent="1">
          <mxGeometry x="810" y="415" width="317.48" height="55" as="geometry" />
        </mxCell>
        <mxCell id="Lc4qGxHdZDB4FoPavioG-8" value="Probabilidad emp칤rica o frecuentista" style="rounded=1;whiteSpace=wrap;html=1;" vertex="1" parent="1">
          <mxGeometry x="150" y="520" width="130" height="60" as="geometry" />
        </mxCell>
        <mxCell id="Lc4qGxHdZDB4FoPavioG-9" value="Este enfoque mide la probabilidad de un evento con base en la &lt;strong&gt;frecuencia relativa&lt;/strong&gt; con la que ocurre ese evento en experimentos repetidos o en observaciones pasadas. Se utiliza cuando no se conoce el espacio muestral te칩ricamente, y se deben realizar experimentos o recopilar datos para estimar la probabilidad." style="text;html=1;align=left;verticalAlign=middle;whiteSpace=wrap;rounded=0;" vertex="1" parent="1">
          <mxGeometry x="290" y="535" width="460" height="30" as="geometry" />
        </mxCell>
        <mxCell id="Lc4qGxHdZDB4FoPavioG-10" value="" style="shape=image;verticalLabelPosition=bottom;labelBackgroundColor=default;verticalAlign=top;aspect=fixed;imageAspect=0;image=data:image/png,iVBORw0KGgoAAAANSUhEUgAAAqcAAACBCAYAAAD9jxMGAAAAAXNSR0IArs4c6QAAAARnQU1BAACxjwv8YQUAAAAJcEhZcwAADsMAAA7DAcdvqGQAADzDSURBVHhe7d0PWFNnvifwb7fuSq9i7G134h3bxlUQaxWcrkL/eMlTQby95c+1iHaubNpBpdNB7FSgU0Fup1JaC9hR0LagTAdKpx2wWkJHh9hxDO3YmzhjTXp1QFeX2Nol3fqUOLrEp86++77nnED+kyBqqr+PT8w5Jyfvec/7viG/nPOe99zEOBBCCCGEEBIB/pPyTAghhBBCyDVHwSkhhBBCCIkYFJwSQgghhJCIQcEpIYQQQgiJGBScEkIIIYSQiEHBKSGEEEIIiRgUnBJCCCGEkIhBwSkhhBBCCIkYFJwSQgghhJCIQcEpIYQQQgiJGBScEkIIIYSQiBGRwanjkzqsuC8WEyZMwIrddmWpJ+ehaqTGrkDbaWVBxLKj7fEJmPCKWZm/EV1PZXCl9iXMdM8aUDwnFhlbrHAqi8A/ExMm5KLtjDLPOfYVY3ZsBuo+HVwrKPMrPA8TqjHae3el0r02nLBuSsWEFL4/F5RF/virI0IIIcMKPTg904ZcHizm7vQfLI4aax2yF5XBllyOnR+0IOs2Zbm7C0ZU/GsnFv16G3LuUpYRciNxOkMKeJx8PTK6nIfqsPYNDRrfLEHiOGWhPyHWESGEEE8Rd+TUuq8WZnU5XqrSIS05E5nJauUVFxvanlmNvpcbUTIvSllGyA1mcia2HjmBjqfjEexToM7Yis9OdKDwB/RZGRXih/Gqbjz5+8bhfxiHWEeEEEI8RVhw6kDfGTvwwBRolCW+NMhp+AyNSwKvQQghV8Q4LSqPhBCYEkIIGbEIC06dcJxVJgkhhBBCyA1n9IPTS3YY64uRmzJbuqBpQuw8LClvQ0+wCwc4+85cvn4sVuzmM7tXIFa81/vijmN6VP8kA/NixWsTEHtfBla/ovdN23VhyGkHzFtWyOs/3gapt+zgRSNO9OwswxLpwqtYzMtrgNUhVnBfPgGzs8vQdtyr55jS/7b6kDLvRt6PEC78GGE5SdwufHF80oDiZfPk8pqT6r88OHsXX+/xVMwW64n9XeZnv4KVG+dd/rNTVqPuE6nQRuYqlsFgvVzoQVv5Erkc3C8+8s7LhNlIfbwYDcH2j6elf2U1UueI9UWZBljfIa+XobQpKY9bzAiYckjpmlHN0xq2D7hbOXlQ8iRvQ7TzYjR/GiBH4dRTOOkGxNsf357rMxh73xIU13uXl9sFZGfNqPuJ0rbnLEFZh01exX05z/MKP2U+9Hnln/uOaqxW9nHYbQ5y1YPN7UJOV3kHriPPz6PyWTrktrVw24yPUMqQ42XUsDZ3sL6k9XYr5cf3V58fi9j0Olip8ywh5Coa9eDUvCkWGa/3IeGpTej4oAM7n9einwc66c/oB4Mcf1T3P8vXb0HJAj6zoAQt/L0dHzyLZOWCKNvu1Zh/Xy6aLyTj2dfEax3Y9CMNbDtyMS/T/1Wzps0F6Jz5Eg6dOIdzTTlw773a3VKMsj/HIb9qB3a+thSTPirG/DVtMO8swJK2idDx5R3vbcWifv6F88h6GEb5iO5Iy8ndN59UI7fSium5NdjB02h5aga6K3N5Gm1wfb1IeIAivmD6Zj6JTaJc3yuH9muxXwXQewctnN9y4wF5wX1F6BqTgfJGUf4t0N3eibJF2agO8Upwb1e1DCQ2tL5Qh4EfNuKzc3zffpYoL77Ag4h/mY+Mmh5MXFop5aXjvX/DInSieNFcrOCBh49Lou9zLlqhxbO1Yv2XkIl2vj4vj0Pu5cEDmjXzUPQRkFHG25TI4/+YiM7yVGRv8nMVd8jpXgaxv4/OQ+47/Vi0fqeUp00/VMPwo2yUGpR13IRcT2Gm6x/f//y5SK3pRULxNimNbavj0FOTirlrDX6CKyOq82uBh8uxlbfJyoQe1C3PRfU+vnxpKWwPPMuX8zL/sQZdosy3WZU3unPCxj/3uTsB7XNb+TZ34qWHgfYSvj4PREMq9YN1KDDE4aWPT+DcuRbkTFaW+3DC/Eoq/zxWo0e1FJU8b2IfK5dGoa/PtaUw24yPEMtQjCZwXyrqziZhjWhrYr8Xq2A8FeqnjxBCrhAWqi9a2fLoaLa8rU9Z4J9lVxPrPq/MKLq3p7Po6OWs1aYsCKiPteqiWbSulU+5UbadstHEBpRFg2ytLC8mms3fbFEWcOYqvj2vZS7KazHrD3ik1de2XFoevaCKmdzzb6ll8/nyoj39ygJOyU+VWZl3I6fD01DmB/eJ593dZZWTsg+inHqVRS4D+0tZjHd+D7ezph6vkuupZ+l8veXvuKUQrNy+6GRN+93SFM53siKRjxc9983XtS8DV/0W6L32gbcC08b5LDomz882xWsp/H0FrP1rZZFrX6Lnsw0HvVtjL2t6lL+2oJ51K0vE+p1vHWCeWx1gnSUijQ2+7STkdE2siu+Px+dRKhNedl8o84LPsiD729fOivhnybP9hlpP4afrj1xPvvU/cHAD/xzOZ7WDTdNVXtms6aSySBjg5fKgWB7D8trcW0Y/a3+KL3+wlrm3ble7mM/bsE+pv5nNX/OzTY92LNeDd7oy3zrq31PE26Z33ryF2mb8C7UM+3bl+V2Pfas8E0LINTLqR07jF+sQ5zW8SlxCMv9fj94R/iC37Wvm79ZhzcpE36te78rBkyvVsGzthPcxkbTEeGXKl+6ftR5pqe9Ng5Y/a//HUs/hYeKTkMafTKf8HD27DKNRToVPZPhcOBb10DKs4bvdcLhHWcL9IBO66V4lN30OpK3ZfDfmt9wmp0H3kEqZUYxLQNJi/nzcFvKRTndXtQwkmdAmeO2D04T2SgsSVj/t5yKXKCTmPsnf1Yz2Lq8MLVgF3f3erVGDrJX5wKEuWAfH31UjLVcLz61GISExkz/3wOZ95DrkdEfKis5A+6vOxNInlGk3odVT+On6sqGzRQ88vQoZXmlE3b+Ifw4tMB33qoeMZdBOVaaFqHgkPiQmlkKX7t4yVEhI5mVutaHP5/CrFqt+6Pu3RbM4H/lim8dC+Ow/nITAf21c7DC82wB77ia8GvSCzjDbjIfQy1B12xS+JRN+d9Br/8Yoz4QQco1cgQuinLBb9WjeUoeyn2Qg419SMTulQnltZOx2I//STkSCvzFPOc20JL5St1dAk4kZAU+t8de8v0DH3iJ9GajGe39Fia8FwHJ+lE6pDrrccsrEnGm+eRVfbJOm8SevgNF5xgp9Sx3qylfzbWUgdU4q/G8tSLmd7YFxZwPqKouRy9PIuG++3Ed4xK5uGfCQChrvej/7Ff86B5Ljp8vz3iZrkMCfurxPdc6b4RMUC6rbRScIr+D6kgM9XW1o2FKB4sf5fqbPw/w8HkD4E066I3HGxsObIPvrNzAJoZ5GlK43O+z7+dOWDHxP6Ys59EhFNX9Jf9IrkIrXeJVXFG4ZL54n4havphEl5aEPjvPSrJtEzHAPcF1UE3lL4tv08wPOW+Y0905DgdjQyz8v2sQEr8DTj3DajIfQyzAqWYdtBTPQlT8bsfetQPVOM+yj/WeOEEJGYHSDU9HnLJ3/ocuu4H/Q+zEpQYfCteVofC1fWeEqu1l5jjSjVU7B9u82lXIkyAnzpgzMvjsbFR029N8eD11BMcq3b0XArflJV/T5nf3f5mH161b0jdcgbUUxiqu2oTJDWSFcV7UMXPwFsiMUNNhKQNRYZfK0Hqvn3ol5a+ph/XoiNAtXofjZGmyrEEfB/Ag13csUFRViWYRZTyGnG0RiUaPUT9LvY3GcstZoCp7nBD8/WH2MCX2/VcOtGm6b8SO0MuSf45c78NlfOlC+EGhdl4rY2Rmj17eZEEJGaFSDU/veWlR0JaHx94ew89VyFD6Zg7RkLRKnDXucICi1WgvsN8MS4KIk20kTED8HU0I5eDGKur/wPaIi5WUYo1NOJvR+qUy6c3bjyG7+hTptknx05kwHal8wIqnhQxz6TQ3Kn85HzkIttPNmDH/0ZpAZrc82Y+LPeBq/34rKpwuhy+BpJMdhkrJGuK5qGQRz2/ekI29d1uPyvLczNlj4U9ZMr+OZx/x3ZbAd7eL/JyFOWd38ThGax5fgwz9+iK0VhSjMzeTlpkVcoLYaYrojNl4l1Zm5x9+paicGvI4qhlxPYabrX5Q4Kw/zpe8hiW9DlJPPY3o47SNUFv+nyk91Qyr1qZdb6C7y/unNPUGvug+7zXgIvwyjJmuhq2jEoT8dQs0D4u57dfwTTwgh187oBqc2EZh5nzp1wrinWZkeGU0y/0JEM2p3+Lly9nQb6nfYkfhDbQh9vkaJK6A53O2ZnwtGtPO8DGd0ysmOBr3v1cu2d+tQh0Qs/UelNL7q5SEc35rG8wvW+Yd2XqIhsvehm++WZpra8xjTKSN+06FMh+mqlkEwUUlIKxJ9lregzac/pxPmlnro1flIS/QKinb/Bu3e8Syv/4ZKI9Qr05AkrW5H30lRcDOg9uizaYOxLcAp2pDSvQwquZ+wcUez7wgXx5tRt0WZVoRcT2Gm6188tDkJwJbt6LjsvrXh0OM3e737J/N9fLMCRn91P2LxyOR1iB1VaAh4dHIEbcZDGGV4SXl2UcVh0cOZPAt29AeLngkh5AoLOzh19Jhg7DJ6PaxSX6Xp83RQoxqlP2mAXlquR93j/4iOC4uUd4/QVB02/TIHtspUzHu8Gm375O3q61cjI2UFuh5qRGPBVQtNpYBm2fOJsG9ZiZx1zTCIfe1owOrMOuCx4U+9jU45aZFsr8L8x+uUNAxoXpeB1DUGJJa9hFWu4rg7ETo1UL1+NRo6lHLbkot/7LiIkLemToB2If8KLy9CxU6DlIahpQwZa6yYMsLT+le1DIKKgrb4bZTf1YYVKRlYXa+X9s+4rw3Vj89DaiVQ/usXkebd33mxCqalGShrkcvD2FGH3AczeFCcg5d+mqYcsVUjIZkHIx2lKHqhTW4n+5pRlr4aVk2AdhJSupdDjYyfliPRWo3UTLc2IT5Lax1I+rGymiL0egov3UDiV25C+Ty9Z12IdFoqUJx9pY7oZUJlXoIM12dZ2sd5yOABdc7Lhb51fxk0T2xC42M2VKTMQ+4rSpvg7bZtSzHKOsQP2xG0GS+hlqH9/RWYlzf091S0tbKNeqifzkCy8uOKxjklhFwTylX7w1OGT5KG7/F5uIaqGWDdbaUsOylGWh6TlMeqDL2Dw/74G3rJkzJUi/dQUor+w02sVJfCZinbnbWggFW1WbyGXOH8DanjEui1gENlKUPFeA2DJIamMW0uYCkJSl4eLWWtPQMhDiV1meXk2gdbP7O8VcSyXXkQ5aHv9hkSZ6CnlZUunSsNrxQdM5flbexkvd/62a9g5fa1idU+5Sr7WSz7mSZm6e8NWl9Drn0Z+NaLl/O9rJPXZ7qSH1FO2c/Us06bT0pD+2LrZFU/GipXsb5pcMgpF+92UsSaDvezXtdwP4NlHW66vsMU+a2/AHU60NPOqlz16bYN00aRT/dyCq+eQk83iP5u1r5xqMxEOum6IlbPtztUG/7alCzQtgaHWHIri8F28S2v/415bK405FUMm7uUb++g918Wf9v0Uw+DArz2bR878EYRW75g1tD+PVXFOk+69i7UNhNECGU4YGliRR5/T5ez0rfc/572sfZVMSzmkVpm8f4YEELIFXST+E+JU8l3hbjrT4oFjX8JNtj3dY7KgIwCcYeo2LwEfHiuBMotGQghhFxjV2AoKUIIIYQQQkaGglNCCCGEEBIxKDglhBBCCCERg4JTQgghhBASMeiCKEIIIYQQEjHoyCkhhBBCCIkYFJwSQgghhJCIQcEpIYQQQgiJGBScEkIIIYSQiEHBKSGEEEIIiRgUnBJCCCGEkIhBwSkhhBBCCIkYFJwSQgghhJCIQcEpIYQQQgiJGBScEkIIIYSQiEHBKSGEEEIIiRgUnBJCCCGEkIhBwSkhhBBCCIkYFJwSQgghhJCIQcEpIYQQQgiJGBScEkIIIYSQiEHBKSGEEEIIiRgUnBJCCCGEkIhBwSkhhBBCCIkYFJwSQgghhJCIQcEpIYQQQgiJGBScEkIIIYSQiEHBKSGEEEIIAZwOOJzK9DV0E+OUaUIIIZfrbA+MR/uUGcXtc6CdqVJmhjiOG3HEa1Vh0j1axN2mzARg21uGsn1zUPlSDjRRykLCOWH/1ITuL2ywnnLw+ThkPp0GjfwiISQgO9oej8WKcS34/LVM+P7FunooOCWEkNH0aQMyXujgEwPo3W+GTVqYicb/aEHOXdLMIGt9Bsr2uq2njoP2nknIeL4D+T+QVvHvdBtyZ62AHmnYemQndFOV5YSzw7BuJerMvTAeEqVajg/PlSBRfpEQEsgZ/nflbvF3RYeW/7UVmcP8QL6SKDglhJArwozqCUXQx1tgsfLZhVvx2Xs6/0fwjvGA9r7jKPzfNUgbpywL5AJPNzMVFafTUNnaiMIfXMvjG5HMjIoJqaim4JSQkNh35iI2Ty9N697+HFszrt3fFupzSgghV4wGa6obkSkm963Gim0iSvVDdStUUGPicIEpHDCUL0cFStDx7zspMB0G9XYgJFR2dHWYoFbLc817jfyvzbVDwSkhhFxJd+WgskEKT2FetxZ1AeLTkDh6YBlXjkP6cmiv4Sk3Qsh15kwX2g/mY9ur+fJ8iwHGs/LktUDBKSGEXGGaxyrR+Jg4JGFG2TPVsPq7GnbxlOEv2lEloqRCh7hhj7ASQkjo7J+0w7RSi7SFGSiUljTDcPDaHTu9+eecMk0IIWTUnMHBl02YuPpR3DNhIu5J+Af8z/f0OHa8C//xd49g6QNqjFHWxF+PYdfvgUWL78F4ZZF01f+fjsJ2/BAMH+zH0ZtnIGGyOFEtrkb/I/58wgabtQsdv7PgprsTIL3k9pr1ow4YrDdhRvxkRIm09uxCx76DsHzhxO2Tp2Cics7bbtVj17sGdJl6YP+7SYhTD+bAh+OUAa2vvY7qV5tx8OR54I4pmHar6+S5Az1dJhy1Hceh3+3B/v8zCUnfd8Cob0XHR6dw0533YLJ30k47zO//Gq9t/Tk2//Yozn7zN0zSTBvMW8gu8W1/3IFd7+/HwcH9cPDyb0YXtNCtexCTlVWHOGDb14q6bdWo+fVBnLwATAll2zzPti//hptwERcvyg/HaRsujLsd43mFOo6bYbs0Hv/5bzz9z/6MLzEJ6gmDNc3zyvd519A+nx+Ixh3TJ2O8v0NF7uWz/SCO2r/G377nXuZDgteNwj291sN8n8di0kUD3rTegQdjA9e7B/eytpyG8+/vwBRpOz0wbDmMMffxMuRzzjNW/PFIt9JGu+D4XhLPj0jA1U5sOH7IgD37zmKS8h4P4ZRTIOG2r2HKe0T7xNO0Hvwzum1WdL1vgEV8jqNs0O96h38+HYP5ESN3mI66v38yHF270fr+H3Hq5jtwj/eHZzTKZ5Ade1+pwLRlr+BBzSSM+b/VeMcEWP7uv+Mnj8Rdm+4x4oIoQggho83EqqKXs9YvlFmuty2PxURHs+joFFZlHlCWcl+0suW6VtanzEoO17P0rBQ2S1o/mi1vc73axzqfS2fpC2ZJy6M9tqG8lhQjv8bTNO0pZXnPNbFOs4mZDE2s6EG+PGEDO9Dfy9oLs1npW53MYrGwzjfkvKVsNDG3nCkGmKkmncXEZLMqYy/r7+9jlrYilhIdw9JrXOtbWH1WOktJkPMbvb6KVT3C199VzwrEfEwR6+yXVpT0H65l2TEprOgtE+vt7+dp9jLTGwVsFt9GrcU3B4EM9DSxAr7NmKUbWKuxm/XZLKydp5P9o+UsWyqfKl4TXs7zunkkhr+nih2w8W33WVhrSQrPY7pnvfjT18lK3fczehZLySplnUr1WLbOVeqY5ykpnZXucatVW7uU15SSVmbp49u1HWBVS3ldJRSwdpuyjmLAIspHrNvETCKPvIwObJzL041hRXvcCjKkuuG+ENtOYRsMfB2x8NsB1muskrYx1LaCc5W1KCfRbg4YO1nTc9ls+VYL6zdu4Ps9VNZ9vN2lPzJUFlVm5QWlnQy2UX/1E0Y5BRJu+wqlvEe0T0p7mcvTFq8t31jF8h4pYk1vbeB1xJctqGfdfDXLG+6f6VJWxes0u6ad1T8l5nkeDG51Pgrl40H8/Xmwlu+FbGB/qZIPz79fVxMFp4QQckX4BqcieGxfpXyBLeBfYOeVxf6CU0Xvm+nS+r4BhIXVikDT3xfIwAFWKrYRwwMUr2Czr225lN6sBB7MeARivawpS6SXx9q9NtX7jnhPDCvd7/mlbtk8ny9P4V/2ygLBxvdF+mJT1u/vZEXii9k9OOWBgPhizn6zV1kwpPfNbP7ebNZ0UlkQDN9Wnkibl513SgPmKvnL3yf46WWtOpGfUnbAVf4SpTwXDH1JB3WySQ5+s5p8tm16kQcO3kE+D4g3iPQf9Vr/ax5o8HRinulkg+GH3/3qk/MttsnTdgm1bixb+fy/+pZT9/b00IJTV55i8lirRwDEg+ONIjgWefMu6wF2YL2c56FATqHst897wimnQMJtX2GU94j2STi4QU7Lte2j9R7BqYy3zX+V045Zf4BvqZ91loi/F27B6WiUjxfxN2H+ZrdW7/r7wR+h/nAZbdTnlBBCrho1Mp/fhBzR/fRQBUq3mjHczViixge6Il+NSdOUSW9Rt8inFO1J0OUmepyWU2sSpGdbwjLo5rm/EoVbpE21oee0tEDmMKCuXAwvo0PWQ54n+OKTM3kuzGj9yO0qr5uVZ9f6qjTUHPkcnx+pQZqUvg3NL5Txd2Vi2QLfXraaBcv4KwasrtEPc7WwE8Y3S9FmBwqfyPDprxs1T4tFyrQ7x746lO7mE09kQevRdzce2sW8Yg61whjKRWtTtchcyJ/3b4feY30bug+nQZfjWe49LaWo5utl5mg983pbEtIe41W1wwCTtMND+5X/mPvNA9TIKGpEZcVWfLhSGRgrjLpxnrcAHe0wutctp7knGXEqz/f6GspTwuqnvcbrjULiylVYxF/zxdtUoN4Ct03y28c69HIKJNz2FUZ5S8LfJ8kYpYwzlkErxiWemY8PPuefi9/mI05+hePrKD1AdP+s5XMqpL30GT7//DPULJT/Dlx++XizofMdG5Y+FK/Mc1E8raflSX1HF/xW7RVGwSkhhFxNkzPxUlUO/+oDzJWlqDt0Je8VmACNb2dL2UyNlIchamhmKpPujpnQIL6d7udfY11GGN0fvU7M4C9ZTvb5BpKLZwx9eY5TQeUKBM+YYdgnJnjevG5KIHEFty08kAr2reg0wbBJrJCJOdOGC66G9JgbpC/bxEs2z33hj16ntDewnQnl212DrCd0/NmC1j+4RadWPbarebDocWMEG6xdZmlqoqPXa7vd6JOyb0KPuGeA234l3eP5wyQqPgeFT+uQ6BqpIYy6iYvP5zWsx+pZEzA7JRfFlQ1o67Lh4v0lKFcCn4AG85TgGcS4BAvKwhJGOQUSbvsKp7xHQ7xmsKyiVPxz4bfpZmKGK+88qFUNrjQK5ePtlBF6WxriJzvgcLgeFzHjXuWq/d3t6DojT15NFJwSQshVpl78KratlK/er3imGuYL8vJIZD/TI0/cAoyVp4bcloziDzrQsTIp9FsdftnLQ6QgJmt4WCF4HcH1dvYr/lWtGDxaOxw7bMflqVvG+OwNVP9YjA6+P6sSQ9sb1UIevPBny1Ye6Ci/Max/aEfaY2le5WFHr7hpmOAnr3FLeBl+sAmZ4kh4GPsVTt2oHn4R71VnSoGR7ZAeDa8UY0X6bMxNL4MhWDkLg3nSYNIVHcIsjHIKJNz2NaJ2dK2MQvl4sR3Uw3C8Ghn/7U7ceefQI/bxBmUNPdo/EcH71UXBKSGEXHUqpJVtQ76IT63VKKpsH+YU9rUTNW6SPKGagaRkLbT+HjNDDk2l05aeR2x9yXFeAqJ848fLFAWVElyp4pL87wt/xIUagInTn0V8b+zN6DLzXDuNaH9Ti+RE78NhUYhSDjhqEvxvU5ucCE2YQ4SFVzdRiH+yBZ999TkO/X4nGqsLkTNTDXtXHZZsHK4LxdUyCuV0TdvXlTba7cgG424Lyn9/DufOeT++Qsc1PLVPwSkhhFwLt6XhxYZC6YvUslsPo7w0DE4MXIWIQhUXjzQxsbt76AiTF2c4R36nJiBLmhCnz6UJT2dskI4HqtMQP11a4t/kOCRIUYgDAxelJSFQIe5eaW+gD3Tu85ITzkvK9LCioF28hoc5dlS/a4DN3AXjj7Kg9TlVOx3xC+WQyXIywHadfLvime9XkhSAmND7pXgOLJy6sdbnovkYn4jiZTAvDTlPVqLx3/+EFnEEf7guFGHkKWTOAfQrk0PCKKdAwm1fo7lvfvdpNI1C+bgTp/Tta7BonjLvIQpJC+QRT6/FqX0KTgkh5BqJeqgcb/9MPskYtrMWmPcr01fS1CzkS10QDDD66x9rrUN6jTH0L0RVMnTPiwtMTOg+6fsu5/Ej0mnZxJ/6C/LcxWPRT0U6RhgO+4msLvT7PdqjeThfPmK91whxsNObdVs6qg+GvDc8G1osFcFNSy1WvGCBLkM5tOVBDmJFbvV7zX7y5YB+bS5aT4npeGT+WIScdjTo/ZTrWT1WZzfLwWgYdePs12P7Pre+sRIVkh5I4s+ToAp68JvnaaWSpz3+8tQXMDgO6LgVXcrkkHDKKYCw21cY5T0cv/s0mkahfNyIU/qWjCReAv5F3Z+mDMh/DU7tK1ftE0IIGQ3fDkhjTXbrxTiGMSy75oA8zqLnSD9DXEPDBBhKSgyLMz86mqVvHxpwhrF+t+F75rMN+/v4NuUNDIht9bWzImkomCLWLsZBFK9J+epnffoiaYiY6JJ21ufK13mxTh9rL5GHjynSi/T6h4ZCEuOCLuCvLdgwOJ6nRCx/JI+1K0NZSdsW47OK9LPqmUXMu6fjIr0vRh5Oy33cm355OzGrfIc88suVrwdLWefXyjLh217W6hqyK3o5a+pRykDhGmYq5eedrO9bZSEnlqev4uWizIeq9y0xPBHflvfwPl7kcW5jWN6b3R7D/Yjl6TUWt3Jy5T+F14V7iqLel3sOARZi3Zg28nX8DQP14vzQhh8asLBaUWfeY/Se72ZNT81Sxv70HUKpX18glU2Rwe09on4G3+NbP6GXUwBht68wypsLb58CfO7c9lcifQbFeKni/ems/rCY5w8/O3t55SPnp9dcLw2fFbOqSRordcDtcyBIn+XB/PDHo0E+z1cABaeEkFHR21bAA7EQvjgCEH8M/b6XfylW6YpY50gGl74WeIAj/TH3egQbL1AKlgIFp7xULG8sZ7OiZ7HsZzaw2s2lLI8HHfWW7qFxGKWHCAzcxmZ0f4i0g+RLClx8XvMaP7Wfb299Ns9HDJv7SDpLFwPRLyjgX8KuWuNf/D5p+EnH5ds+dmBzHpubMFdKSzzEdN7mAx4B47B4cNT6nAjU+XvX17La9QUsfWkpaz3ayTa458OrfPuPtrLSR2fxgE3Z/iMpLKWwiXV7jH0aImWMyQL9sCEe6zPWsjwxWHtCirzdBSkse+MB3+DQVT48gJi1YDkrWl/Eshdks9I9fsLfYetGBKf8h9LPa/k+8+1J7WgDK3p0Lpv7Ix50hLrPrrJ2tUVXWfd0KnXvZ3xPHviJG0MM1s+LfD/4ezptXu3Fq35CLqdAwm1f4ZR3OPskxjB2Xzb48Cwr/5/BwH83Rlw+AfLjOWZrgL8j0uPqDMx/k/hPOYhKCLlRXLDB/OdeDCizgdwyaQbip6oR5Xb3RX9sO1cg3fBP+KAhZ0RDyjg/qcDCRWasOtIBnccQPIrTbViR+Tv8k77Ra4zFG8glJxwX5M6VY1UqiDOSTocD0pKxgYakuQKcDjjkjboNcXM5+H7JCQ7u14hc4PmS+ooO5ctVPsHSHSzDMW7DXY2ASEecGw81/yHXnZ96DyhY3VxwAuPkZZfdbny2Y0b1hFRUoBwfniuRTjv78JO3wfoZx/crwN+Yy85ruO3rMss7lH0aTZdfPpGJglNCbkSn2rB6bTNsl/rQ3dUj9V3SzNNiSrT8smwAvfvNsKm1KHy5BuVLAtxj2VqH1Gwbnv33GqSNaJgZK+pS5qPsEKSrRkv8ds4HHHuLMbdGjfd+W4L46+iPMCHffSEEp4SEgS6IIuRGNDUHW9/vQEdtoTRQN5CPTbv4vFg2+PgQn33+MSrjjajLS0fBbn8d4uW7sUwsKxxhYMpTeLdKCkwF+9eBLz9XPVyI8okVWNvofVEHIYSQ6wkFp4TcwBw9VnkIowXxiPN3ta4qHpk5mXzCjrZNrfAOC51/aEDFPh10GSO8P8xZA+o29iFRuVy0T5x6DEi+I495czMMZ5VFhJBryIGeLiP09c3olOZNaN9pgPFTu+9V74SEgYJTQm5gPYflu4AkLJwTsK+o46wyiIrVe/w8Ozp+VQf70zkjPGrqhHFzEb55/lWsUW6babMHH65ElZyJfHsDGvaGPXANIWTU9cP2qRU2ZxyyKipRWaHFpDM9sB61yf0gCRkhCk4JuWFZYdorTyXPDDTauR09Zos8uXiKZwB7pgvtu4H8B+aEfBGIB+t2VBwrwb8tjsck5XZ7lvPDHG9RJSBpMWDY52+MP0LI1aVB2tOFKPR+5CZ63b6VkPBQcErIjepMD0zSefp8aO8NEF4qAai4IWDhExketwV0WE3QQ4t4v/0BhiP6qrYj63mdFPBGjVcGorf3I/hNj9SIS+Tr7jbBEhn3WySEEDLKKDgl5AYlB5dcoP6mPIBse6GUr6NG2svvofwhzwDWdqyd/x8Pzffl+XA49tah+d6XsErpa6pWK8dkzzqG7aummSruaNMOS4h3QSGEEPLdQkNJEXKDMr8Si9RKO+LKOvDhj+coS4V+2Lo60VBfjeYvElBevQ0lyv2ch9ihz49F7rsjGDrmghFlD3ZA+/uhoafsu1cg9vE2HqWW4+MTJQFvpyc5VI0JKRXI/83nqHk4hKO2DgMqHq+DWZkN2w8K0fJ8Gp2mJISQq4SCU0JuSFbUzZ+PMqu/8U35stkZ0C7UIu2BOKj8DiRtR9vjsViBRpxoyvE43R+cE9ZN6ajSvI2WJW7vUgJOhDJO4qlmZMxZDdUvT3imEcTgQNUjcZ0Nbk0IIZGOglNCbkRn2pB79wrokYnG/2gZwV2XRhic8sByyVIbCjvXYI570GuuxZ3Z1XwiBy0nGpEZLEEl7wgjOL2aJkyYoEwRQsj16dy5c8rUlUHBKSE3IHG3pTuXNQDxlfj448Lgp9H9sqFt+WysGBNOcCq6AqSi4sspmOR9NHbwTlU8WP4LD5YnK8v9ifDglBBCyOWhC6IIuQG5xjdVZySNIDAVooAw7xvt/EMtysZvwocfeN+Jij8ay5EsraVH75fSRGAXB4a5ot+XOK3vGOmDRhMnhJCrio6cEnLDGepvGvJFRT7CvCDKaUZ1ai2m/CbQUVHXvbmBks5zKL9fXuoXXRBFCCHXNQpOCbnRKBcUGUM5hR6EdVMs5r+wFB1fVUI7zAVD1m2pWItX8WFBoOO0Q8Fp5jCn6+UuCSZUfvwRCkd22JcQQkgEo9P6hNwoLsinqa379fL99BEH1XixbGTnrTUzs/j/VtgCnYZ3irRtMG7JxfJ1ZsxQq+C4oLzmRjrlbgeiFsjzjrN2KZ/OS/K8N9spE/8/GfGBbmpFCCHkO42OnBJyI7DrsSI2F23KrKcQrpD3R1x5P2c1pvg9ve6AYe2dWLJDmXV5rAUnGjKHLqAKki/18x/jRJH3oVFllIBxLfj8tUw61a5wnrHCdPIbZU52y5QkJN7lfUjbCfunJnT/VZkddCtmJMZDPcwRcNveMpTtm4PKl3KgoeG1ItvZHhiP2vDVX3rQx39/qh7QQTdvpJ8YB3q6jsD2VQ96zlwEbkuCjm5RSq4gCk4JISNkQ3P2bKye2YGvKrQju79+uBwGFN+5BM63P8fWDPpqdLHzoHFlvdVt1AMuvgQfdpYjcZy0isIOw7qVqPvMbb2pidDyQLawvhJpwX6gnG5D7iwx/Fgath7ZCd1UZTmJTJ82IOOFVvTuN/NP6vDdZYKzouFfytDR1w3jMd5qFoc7vjEhYRLBKSGEjES/voBFRxew9q+VBVeYtL2YDezAgLKAePqilS2Pns/mPxjN6yWaxaw/wAIVVf+eIhadVc+6lfmgzptY1QKeZkw2qz3cryy8sVneSGf1h5WZ0dLXyUqf62R9yuxo6H0zXWoLy9tGIVWbaF+8HehaRzWPhHijPqeEkBFTZeSjcl4zmjvEsZkrzYb2XzUjrUw37AVYN7ZMlFeXIIFP2besxPq9/gfeUt2u5v/dionKfGAOGMqXowIl6Pj3nSj8AR2xFpxfG+EI0C96xC46YPsy3IHSgosaP4r1dbPyTMgVRsEpIeQyxGNVTTn6K+tgOKssukIce+t4gLQVm57QKEtIIBPvL8Gmn0nhKRrWVFxe3Th6YBlXjkP6cmhvU5bd8Kww7VUmR5HjqAl6ZZqQGxkFp4SQyxL1gxI0vvwNita1SX3brojTbVi77hu89AsdKDQNRRQSf7oJ5fP4pL0BBev0cv9SbzM1w/cbVCWipEKHOI++qzc25x9+g1qrMjNqbGjfId8cg5Ab3c0/55RpQggZkYkzs/DIxddRtPcOZD6gDvfmUcE5raheuwcp27ch8y5lGfHvr8ewa1s/ktY9iMn/ZTL++8wxMDZ34fh//BF9M5Yh6+7xyorclwfx8v+agnXz3Qa6FVd4/+kobMcPwfDBfhy9eQYSJos+FOIq/z/izydssFm70PE7C266OwHSS26vWT/qgMF6E2bET0aUSGvPLnTsOwjLF07cPnkKJirdMexWPXa9a0CXqQf2v5uEOLVbvrw4ThnQ+trrqH61GQdPngfumIJptyoJOe2wHvwzum1WdL1vgEXkN8oG/a53eD4cmKSZNrjNQTxfhl2v4/VNNWj+6CS+/ustuGP6ZIwP5VCN0wHbwTr8eFU1rBeAKXMewLjzvExsNpwbMwnqCb4t33Gc5/8NV/6/huOWO3DPZM/9ddqt2L2hAD9uPQN8Pw5J3wf6eJo220Xcqrnd82JDvq7+/VY0v/EiNm8/iKP2r/G377mViZcLx3ahrr0HcVlr8OjMwOXsQ5Tt3l1o/V0XzJbTcP79HZgy5iRvX3r03J2FNYvvgU9ql+ww7/o1Xtv6c2z+7VGcH4gOvWxd7Ga0vf0aXn9xM/YcPY8L0Z7lJUam+OORbs92OMaBno87sOv9/TjI83rTP0zDZD914V73dft4/v7ff8V/Pl6Lzv+bgoR/UNbhHKeM6Gh9C2/W8fXeP4yTXzlwy533wKvaeF5sOMNuwk0XL+Ki9ODt49QFjP+v4/nfQDHCgQlf3nQropz8s3H4S4xRqzHePVsht0X+GTu0G7/m7ejntb/GYf45GDvpIgw7juKO+dN86+F6oPQ9JYQQ8l0nXRBVxUzKLGMDzLQxRbogJjomj7XalMWCuYpFbxxaU3K4nqVnpbBZYn2Pi2j6WOdz6Sx9wSw5rejlrPUL5SXXa0kx8mu6VmbaU8rynmtinWYTMxmaWJG4QCthAzvQ38vaC7NZ6VudzGKxsM438lgMf08Kz4fvhVs87zXpLCYmm1UZe1l/fx+ztBWxlOgYll6jrC8uIMpKZ3NjlPxurGJ5jxSxprc28PX4sgWeF3z16vn7RXqGbtbX38/6+7pZ+4t8GwuKWKd72QTQx/crnW8vJUHe3qwFfL/5vHiU7vG6ROhbvq8lKSxmaRXr7Onj+e9nfT3tbMMjMSylpJP1KqsxZmH1Io1H5kplER0zdzDN9Kx6/qqbk7x++b7OLWxl3SL//srES1/bcrlswrggqn//BpbOt5PyVD1rt/TyfB9grRvzWLYum80XefR3QZStnRXwckkpaWWWPp432wFWtZS3iYQC1h5C2Qq9uwp420thRW0WqX56jVUsm+dj1lPtg+Ul1YGrrEQ7PMjbwI9KWZOBtzVzJ2t6Zj5fnsKqzJ6lMXC4lqUn5LEmSx8b+FYs6FfKLpqvK68jDBzcILX/lM0mqc76eZs9UJPNtzeLFewaqjVBbg9Dn5fohBSWPnhBG6/Xwc9LDJv7SCnrdCu00NtiH2t/ahZL+TlvM/3yPg24yvY6vjCNglNCCLle+ASn3IBFvtKef0nGrGodCor8BaeKwFd4W1itNBKAe3CqGDjASsUXcQwPlLyCTVeANCuBfxl7BA29rClLpJfH2r021fuOeE8MK93vGWRYNsvBR6171MYDCjkIyGZNJ/n80Xqf4FSMThDjJz2ecXZgPf+ijyllB84ri4Zh2ii25RnUeOpnnc8ESPM8LycecPmMpCDVHU83SMDRtytP2U/POpbLJIZtMHrv21DZhxqcDvB2Icpu/ou+wW5vm/xjwieP501sg2gXjza5Bd3c1zxg5evHPNPJSyQ4ERSKwDf7Tc8AUB4RJIYV7XFPQdSZKIcYFvMILwv3MnaV46p2tzyK+uDL+D55GmCdJZ71aKkZ+pHl/v72p8T2lPblpfetbOk96V555y2FbfATKIfVFi21vFz45807wO/hPySv4+CU+pwSQsj1LCoehTXlSOST9ndLsWHn8D2DA1/hrcakacqkt6hb5Cv/7fIA7e4nmdUacXEWYEtYBt0891eicIu0qTb0nJYWyBwG1JWLS4N0yHrI83R1fLK4iYMZrR+5dfoco6yTsQxaMf7qzHx88Pnn+Py3+YgTy51G1K5pgN1PeiIP2n/W8XzXYf2O0elI6uyqRcEOO/BEFrTefXXHaZH1BN/clvXYHubm1GnPoqW6EjXtS6X6dIlPTOP/29F86Li8YMRsaN1YwUtXi1U/9KxDQXP/PyFJmXbX01KKar4vmTlazz7htyUh7TGesx0GmIIOQtCD5vXVsCATyxZ49ipX8X3LERf27TNhKAnebqRz2XYkPaHzHMt3skYaqQLv9rj1gXfCIS4K3NsJo0c+ohB3bz7Ubu+Pf+JtbK2oRGNRhlt/bBUSeLsDDDBafHtvax5axnMOGHfo4VGlp7phyV2DfPc2H25bvOjk5aJHe5fX5/auOUieqvKpo+sFBaeEEHKdi/pBIV59XgpP0bZuA9rcA8FRlwCNWzdWDz4XYKmhmalMujtmQoOIAe7n4VKXEUb3R68TM/hLlpN9bsGKIl4zGBxFqVRQub65PzOjWaS3eIb/C+qU4NaytdMzuBgh6yfNvKR5sBYX4PI9qd+hBbX7wtzauDhkPlmI/IdEujzgsvfALMrkqBww2S+N7FbEg04Z0bZPTCRiRsg3WbDB2mWWpiY6ej3rqqsbfVLRmtAT7DfRaSu6DomJifim1/39/NHTh1vES2b3YHNIgiaUWwGoEZfI27+1Ghl3xmJe+mqUbWmG3mqH5rEa6Nzb4G2J0D1diJx4nnFeng6eN5EPy0m5tV38m/TkaXIalubyZ2stDyKH6sDasR1xOWmed9IKty1OTUA+30X9T2ZjwpxU5K6tQMNOI2wXE1HyvFfa1xEKTgkh5LoXhfiiV1EpXb3fhhXlbbCN9hido8h+pkee4FHJWHlqyG3JKP6gAx0rk0L+YrbbLFKwGND3p0hHvmC3oOeMtOQy2GETd1EKQjNN2hrsVuUuXeGwG9GwdglmT5iN1HXNMP3lK1xUXrpsZ+0wShOuqD4UdvR2KJN+xkGNW8Lr6oNNyAx0xF2w9wYZQisOOaK+f5GJ6cqSkYgvaMTOAi0PU+3o6WpGXflq5M6PxezHG6SL29w5julRnTcPsX8/Dys2t8N6OuhhX06FtMdKpLSr3++SfzQ5jWh/Mw1p93uWZdht8bY0vPheDTLFj4VTZuh3VKM4LwOz52agbO/wZ0G+qyg4JYSQG0I8Cn9RKZ8O3r0CZW9YpKWRKGrcJHlCNQNJyVpo/T1mhnHM6GafENfT4NGwSVCN6NJncWV2z+CR3LHDbM7p+mFwW/DTsuLKdOuZoSNxzkPVSI3NQLElAZtOnMChX1ai8MkcpCUEOEJ7VUSJniMSTYKfepIeidAEG4psbJR8Kh4azPH7fv6Yp7nMU9gapL3cgRP/+zN8/EELtv4sH2k84LPtLkaBW3cO284VmHtfLhrGFOKDzz/DzlfLUZibiaS44O0tKjkLa0Q57NDDeJa3iD90wPCjLN8bhoygLUbF56PlyFf4/E8fYucva1C4JA5q/iOlblk19Fd4fOlrhYJTQgi5UcQXorFW9E8E9LtHMty7EwPDHUQaBaq4eEi53N3t91Su4PQ62hWMetocOfjZ3es/PdeRu4XxGCYGCaAH+nQ9/19QY0qCHGrpT/rPvd0ml33avXFBj/46PqlC1SeuAjej7l/l/qA1r5cjLdDZbDEE1Kd2XlMjcFcccqSJfgyEnMB0xC+UM2MJsL9wOoPnZzqvbykJC2wBupw4L4xojxR2GNZVwCCKcpxG6resK6vBzj9+jMqFbqfQz7ShLK+Nr52Pbb/QBW4LYpi0494fhHhk/li02mY07zXD2NGLVRlK1O4m7Lb4aQNyfyVaVhRU0xORtiQflb88hD+9nc9bWjPau8I+9v6dQMEpIYTcQDRPbELjYmUmXGctMO9Xpq+kqVnIXymiFQOMh/wEJdY6pNcYQw/A4pei5DGRngndp+RF7mxHu/j/ar7NLP/9AEPBk3cdJIv/lxLkiM2Z/QXXNnR/wp/U+ch/ePitjXWdKj9jg3wtTjLmeJ3fFqeKB53tQtVm5dRyuNRaLJPKvRXmz+RFHi584yfdKGgXr5GOyOt5UOYbKjmgX5uLVj/lPihKi6yfSimg3ewn2DqrR7GuNeAPlVA4vqyGvssr9+PikSQ2e49a/pHwpRIYLk5CgteRXttJkzLFndIjY7fS9cSN5oFM6UeV4YXlKLJnyhfneQu3LV7i5bfD4NMXWnVvknRx2qSJI/o1FfEoOCWEkO86pwMOhw3mD37Hv/I60brTCrvDMXT62IMGORWNcr+2ANTT+Zczf3b098sLJA6Yd2xHp/heFQHWcTvfphweOvm2HPY+JTCxo88u8sNfExeU8NfsfUrAcZavI9YVb7sg1uHrKqclxTpiXTlFFdIq3kb5PAsqnquGwT1euWBGdekRrFmp5WFRgPSVfA1RI3P9JuimGlCx0au/7ek2bKg0IrHsbbz4cGhf9HHx+dKz/qASMhw/AlNu4lCfyMmZ+LcqHTT7KrDhXc+QyvbuBlTsT0T5r19EmvvtYCfHIUkcaNtthEkqEycsZie0CVKB89fjkSz6DPPwqfMTt/1zmNH8jkUOZM72w3lxAA7RXcBV9mflgMxxVinfoH2Nebn/9CUeWNtRsbUBPe5Hp/l2qp8qlvuknuxGt6hj1+viiPwvc6DeXYrSXw11bxBsO9di+7R/w9JhLrASfUIbedCmX1eK5mMeKaBt3XZo1i+V91Fq6/7bTcB2qGje3ACzR3xqg+0YkLhwjpz2dPniI+xuR5f7EVzeRpp3R4nfH9Jnwnm+Hwnj/XQy4D+qdOLCKLsdi54I9ENnBG3RWostXu3IeZr/8OE/cLTiwq3r0E1iPCllmhBCyHeQfWcuYvN8T9OX//4cSqSAxpfoW5d68kmc+JnUC9WLE9b6lVheYkHcyqXQapw4sq8PSS89i1s3zcOK3cpqKMeH53SwPR7rtkyxuBEnVvciNqVCWTAk85cnsOZkLFIrlQWDMtH4lxbkuK72d/SgraYMG7ZYEJU8A5PGAAN/1UD3eg100/mX8pk25N69Qj7a5UHkq8RjuCWJK72OfkyZIq4BH0Bv70QeLFTi2SXBT7F7ssGwbjUKtvVCs2AKcHMcnv1FDdK87mDmONaGqvIN0PdPwZRovuCvveidyAPXimeR46fPrNPagJW6YpiitJhx+wBUD7+KHQXxQ30tz5pRt3YFynhZp4l6GdcLw5k5KK/WAb/KxfIXjLBP1aFFvxWZ9mpM8FP2wdrEINd2LHHIz9FCddYIc78WxU+psD1l9VB5l32Ic27tx95Vh9Jna9Hm1EAryvevAxibVo7Gn/E0lHWCumSHcVspire2wXmXViqzgb+OxaL1jSh5SE7Bf1sX7WYNeu9Ohc8ei3bYlIyux5fDdO8ifKPvBB7Iwpzb+3DkHQMcCyuxqSJtMJB0Hm9DxdpS1PVMRM5jOky5YIRl7DJUPpeInnXpyG2xQZ1cjrd/w9uXn360zq4KzF4B7Pis3Le/qbtQ2+KhasTWOLFmugXtx6ZAm8xzajPyH0YqrGrYhnwKTgkhhNxQxNG3C/K14GNV8sU74uiUtGSs21BNV5o4WiZvFKrR2Ojgfl1meuLo76WhsglIWQ9jeJkFuzBIIo548rwFWXewDrzy73Q4ETWKlTK4ncG8KHkbptwuu434aXeXS/RZjRonp+TK39hxPG0/dzkVfPddNlwZi+A0/dMsfPi0b39Tv4Zri/x1vkU5n6P9OYhgFJwSQgghhITNAduhHmB6IjTSoU4H9D9Zgf7indCFPE4s8Yf6nBJCCCGEhMm+ey1mp6Ri9gsGuZ/tqXY0izs/UWB62Sg4JYQQQggJU9T4W6Hm/9Lu1WCs3YCKNUYsey4zjL7LJBA6rU8IIYQQEjYHrPVl8p2avp+MwudKfC6KIyNDwSkhhBBCCIkYdFqfEEIIIYREDApOCSGEEEJIxKDglBBCCCGERAwKTgkhhBBCSMSg4JQQQgghhEQMCk4JIYQQQkjEoOCUEEIIIYREDApOCSGEEEJIxKDglBBCCCGERAwKTgkhhBBCSMSg4JQQQgghhEQMCk4JIYQQQkjEoOCUEEIIIYREDApOCSGEEEJIxKDglBBCCCGERAwKTgkhhBBCSMSg4JQQQgghhEQI4P8DSkipVkEHSgYAAAAASUVORK5CYII=;" vertex="1" parent="1">
          <mxGeometry x="750" y="520" width="309" height="58.7" as="geometry" />
        </mxCell>
        <mxCell id="Lc4qGxHdZDB4FoPavioG-11" value="Probabilidad subjetiva" style="rounded=1;whiteSpace=wrap;html=1;" vertex="1" parent="1">
          <mxGeometry x="150" y="610" width="130" height="60" as="geometry" />
        </mxCell>
        <mxCell id="Lc4qGxHdZDB4FoPavioG-12" value="La probabilidad subjetiva se basa en el &lt;strong&gt;juicio personal&lt;/strong&gt; o creencias de un individuo sobre la ocurrencia de un evento. No se fundamenta en c치lculos matem치ticos ni en la repetici칩n de experimentos, sino en la experiencia, intuici칩n o informaci칩n disponible del observador. Este tipo de probabilidad se usa a menudo en situaciones donde no hay datos hist칩ricos ni experimentos repetibles, como en apuestas o pron칩sticos." style="text;html=1;align=left;verticalAlign=middle;whiteSpace=wrap;rounded=0;" vertex="1" parent="1">
          <mxGeometry x="290" y="625" width="570" height="30" as="geometry" />
        </mxCell>
        <mxCell id="Lc4qGxHdZDB4FoPavioG-13" value="Probabilidad condicionada" style="rounded=1;whiteSpace=wrap;html=1;" vertex="1" parent="1">
          <mxGeometry x="150" y="700" width="130" height="60" as="geometry" />
        </mxCell>
        <mxCell id="Lc4qGxHdZDB4FoPavioG-14" value="La probabilidad condicionada se refiere a la probabilidad de que ocurra un evento, dado que otro evento ya ha ocurrido. Es 칰til cuando los eventos no son independientes y la ocurrencia de uno afecta la probabilidad del otro." style="text;html=1;align=left;verticalAlign=middle;whiteSpace=wrap;rounded=0;" vertex="1" parent="1">
          <mxGeometry x="290" y="715" width="480" height="30" as="geometry" />
        </mxCell>
        <mxCell id="Lc4qGxHdZDB4FoPavioG-15" value="" style="shape=image;verticalLabelPosition=bottom;labelBackgroundColor=default;verticalAlign=top;aspect=fixed;imageAspect=0;image=data:image/png,iVBORw0KGgoAAAANSUhEUgAAArkAAACsCAYAAAB/2rS1AAAAAXNSR0IArs4c6QAAAARnQU1BAACxjwv8YQUAAAAJcEhZcwAADsMAAA7DAcdvqGQAAEe8SURBVHhe7d0PcBvVvTf8b9+HGcxA4nTooLyXC84lf5ymxA6d2OaPsYbEOA/PtZQG/4He6DoQJ+ZC7FBiJ4UYw4AxEP/hIVFCGxO3jWpasA2pJaY8dmhAbl6o5ftArLxw7WTgWpR0LIa8WNxkIqZ5Zt+zq5WtPytZkh3biO9nRtbuan129+zZsz+tzp79niSAiIiIiCiJ/F/qOxERERFR0mCQS0RERERJh0EuERERESUdBrlERERElHQY5BIRERFR0mGQS0RERERJh0EuERERESUdBrlERERElHQY5BIRERFR0pkTQa7nfTPKb16K+fPno/yIW50azDvQhPyl5ej8TJ0wZ7nRuWk+5u9xqOPfRcmUB5dqW+JM92wvalYthWGvE151EsQxMX++CZ1n1HHBc7QGK5caYP5wfK6oHHvEOsxvwnRv3aVKd0ad6YRJ1Emmrok6Kd789Uv0/2aVxvYTEX2bRA5yZ6qCc5pRtK4Wrrw6dL3ZjvVXq9MDnbej/l96sO53B1ByvTqN6LvE650IbqPwivno0kk0f7lfiIhm3qxfyXUe3QeHrg7PNpahIM8IY55O/cTPhc5HKjH6XBt2ZqWo04i+Y641Yv+J07A9nIFoR4HOsB8nT9tQdROPlUsh0fzlfiEimnmzHOR6MHrGDdy6CGnqlHBpKGk9ibbiyHMQEREREQWa5SDXC89ZdZCIiIiIaJpMPci96Ib9YA1Ma1cqN47NX5qF4rpODJ9XP4/A3WUS8y9F+RExcqQcS+X/Db2J5mMrmh4yIGup/Nl8LL3ZgMo91vC0/TfgfOaBY2+5b/5NnVBaE4/fnOPFcFctipUb3JYia3MrnB55hsDp87GyqBadp0Laz6ntk5sG1PEAvu2I4QabBPNJEXCDkef9VtTck+XLr1X52vkhuPvEfJvysVKeT97eezS2K1q+CaH5v3JtJczvK5mWmBnMg/H9cn4YnXXFvnwIvMkrdF3mr0T+phq0Rts+kZZ1TyXyV8nzy3kaYX6Pbz6DWqaUddzrQMSUY0rXgSaR1qRt5APyKYi6Tr5lyOW8BpYPI6xRPPspnnSjCC6valkbCE4n7vpA5IG7z4xKdTuW3lyMWptLnSmYsnx/mRLbW76nF67/o34YKFL+ir07bGtCZaGahrofrZ+qH8fzf4WVaLINh7XBnqhrxP8E1lkir1o18jye4zfm7RemWi94T8n/79/X4rh7qAnW0LpJrpeD8kWezwyHfzFnrChfGnIjJhFRiCkHuY4WUdH8YhSZD7bA9qYNXU/qMSYCpsJHrOPBkpbUW3aJ+duxc40YWbMT7eJ/bW/uQp5645nrSCVybzbBcj4Pu16SP7Oh5f40uA6ZkGWUgxfffIH6X9yGnhXPYuD01/j6cAkCW/cOtdeg9n+no6LxELpeKsXCP9cgd3snHF3bUNy5AGViuu31/Vg3Zkb5Pz+O3mm+wpxoPgX66v0mmBqcWGZqxiGRRvuDyzHUYBJpdCLo1C1OqEsLzRhd8QBa5Hx9vQ76L+Xt2gZr2Ek2Qr6JwH7bzdXou8yAujY5/9tR9oMe1K4rQtOHiZ1WZjQPFC50PGXGhZ+24eTXYtt+nu2bfF4EjD/JhaF5GAtKG5R1sb3+BNahBzXrVqO8SyMQuii3DTehA3rs2ifP/yyM6Bbzi/wYCMwPNzq3Z6H6z4ChVpQpeR3/dQF66vJR1KJxQo453SmQt/fuLJh+P4Z1j3cp69TyUx167y/C7l51ngAx76c409XmhWNPviivTRhOLUWDvC/Eq6E0BaOjE9ufSH0w1C7WuQ0oeHK/mL8dFWmDMG/MR31fcL66usqRKy9ft9V3vLTVIeeMGYX3H9QoU1rEPqxYjayNFozdvgsHlG04gF0//gquqLGfC9aHckP+rwVbb3ChdWMWCsWXsvASIL6A7DGhRq3LlDoLFtToy2HxB9SyOI7fuLZ/ivWC3EtO4WqTONL8+7oB689bYFpdCLNTnUlwHihE1o4+pN7boBzntleqsMo9DNc5dQYiolhIkXzeIW2cN0/a2DmqTtA2+MZhaeicOqIaerlQmjdvo9ThUidENCp1lM2T5pV1iKEA6rLXPt8vXVAnjXN1SJuXzJNyXxxUJwiORrG8kGl+6mdLHn83KK3Rzo3K9HlrGqX+wPUf3CfliunVfxxTJwjq+jQ61PEAvnREGur4+DaJdQ80pXxSt0HOpxF1kt+FY7ulJaHr+0G3dHg4JOeGD0qFYr6Nvw9IIVq+fd4jHT4WkKbsXI9ULa/HM8HbFm7288C/f7dZQ7ZBlIL+53OleUs2ayxT/myt+L9tUveX6iT/tszLlZ5+L7Q0jkiH7xafrTkoDalT5Pl7fvuuFLzUC1LPTjmNp8PLSczp9kuNYnuCjkclT0Tefa6Oy8KmRdne0W6pWhxLweU31v0Uf7paxv5YLfbdEmlzZ+heDZBgfbBka0hZOfeutFter0d6JvZPlLQHX5TLwuR5Prhfnm+tqB/C1m6Cxv/5yqj2/410bhb5kivtC9gsf5kOW9dPDktFYnru/oCZYz1+493+qdQLF0QZvk2sp5gveFkjvmNhfL8MSo3yfpq0niEiim7KV3IzNpQh/Up1RJWemSf+WjES6+W5EK6jFvHfZdi+JTv8TvLrS/DAFh0G9/cg4Iu/oiA7Qx0KV/Y/9EFp6X5cAL141/9rKbID1z8jBwXirf/T2K7hxGo68qnqPkPYDXopd9yD7WKzWz8YVqcINxlRtiwk55atgrI0V/jCNPPt2gKU3ZGqjqiuzETOBvF+yhXzlddAM5oHCiP0mSHb4O1Hd8MgMisf1uiOLgXZpgfEf1nQ3ReyQmu2ouyW0NKYhvVbKoCBPjjH+2/WocCkR/BSU5CZbRTvw3CFXkmPOd1EOdETaXt1RpTepw4HiG0/xZ9uODd6X22F29SCF6LcWJpofVB2f0lwWblyFfQG8e72YMw3Ba4/d0dMO2ODXBYm40DPiw5k1r8QZ+8vLvS0WwHTdlRo/F9a8QOo0A1i39HQrTLigZ+GrOsNYrtE+R8cC7iSGuPxG/f2T6Fe8L7fjXqnHltD11/spey7xJIODYojRJYKnVwlHbNPNE8gIkrANNx45oXbaYVlrxm1Dxlg+Ek+Vq6tVz9LjNttFyf/bGRq9ZkrpC3OETMNhQRGRiy/Vh0MIz4LPRFffoUSiKReFX6CkacMnpv8p7f4TDWfjFi1OHxd5aBq4WLxFnKC8Z5xwtpuhrmuUizLgPxV+dBeWpR8OzsMe1crzA01MIk0DDfn+tpQJ2xm80CEZkgL3e9nv1B+gs3LWOYbD3VtGjLFW9+nIafrrOVhwbUs9Qdy446QIP2iB8N9nWjdW4+aTWI7C7OQu1kENFriSTcRZ1xK4BBxey9T34PEsJ8SSjeUCyOiPOmzM0O+FARLuD4I+xKTigVyttpGxsuJ2yX2S6S0/5v6Ho3Ih0GRWMR8iMgN97Fo256GRbeKuYYn1tUnM7xMRyr/MRy/CW1/gvWC56x85NlRqbbfDnytrJCPj0H1S2AaSp9shvFsPfKvW4niHa3oPcVol4jiN7UgV26TV7gSS4vqYXWNYWFmGap21KHtpQp1hhkWy0lpNkxXPkXbvqtT1asjXjhaDFj5wyLU21wY+0EGyrbVoO7l/Yi4NI105TaQK/8pC5W/cGL0qjQUlNegpvEAGuQrYYmY0Tzw0wqIExQ1aMtEyuXq4GdWVK6+DlnbD8L55QKk3bkVNbuacaA+wjXBWNOdopSUGPMizv0Uc7pRpE7jbkrIlVeoA4mbjnyYTnEdv3Fs/9TrhTI0K21xtV4T92SkZFSg/d//iuOvVGCRy4xicUytfMga3kaYiCiKKQW57rf2ob4vB21/GkDXC3WoeqAEBXl6ZC+Odl1mcjqdHjjmwGCEm79cn/QDGauwKPDOshkw9HnwNRWZsi6TmJ586sfI39TBQN4hnDgiwqHFC31XhM7YsO8pO3Ja38bAa82oe7gCJXfqoc9aHvVqWTAHOnZZsODnIo0/7UfDw1UoM4g08tKxUJ0jXjOaB9FcfY1y5bTPeco3Hkq+Mife1q8Iub76sfZPsa6P+sTfHKSrszt+Xw3LVTvx9v/zNvbXV6HKZBT5pkd6pLIaY7oJuypV2WeOYa3wwIsLITfyxLyf4kxXW4oIZgCrYzhyzxPCpawPUq7KBGwnMKL1w803F6Kul0LNh94PQpsVTEYH3RrA7hiMsAwXRt4TZTpzkZgzXrEfv/Ft/9TqhZQr5blcSPlH+X+0XhnQBX5XuCwVGYYqNL9+Eqdfq8KCdhNq+YhhIorD1IJclxzghf4k7IX9jxZ1ODFpeeLECgv2HdK4u/izThw85Eb2T/XQaEl6afgDow+GgtfnvB3dYl0mMz355EartTfshOh61QwzslF6u5obX4yIUFAsLS04OvK+0y1yNEbuUQyJzUpbrAu+FvqpHa/Z1OE4zWgeRJOSg4JquQ3nXnSGtXf1wtF+EFZdBQqyQ4K6I6+hOzQuFvu/tcEO3ZYC5CizuzH6iZxxy6ELatPqgr0zQnOFmNKdglRfe0n7IUt4DwSnLDDvVYdVMe+nONPVlgGj2EYcakRrlJ4kLmV9kJFtFEGkGS//ITRY96D31/Wwq2MRpebB8LAoTy9qlado0qAvFtvevk9z211dB9HqjrFMh4rj+I1r+6dYL6Rm56FMpPjy77V6jQhxUX1X6e5ar9wr4XJPXt8SEflNGuR6hvth77OHvJxwi1pqWVaZqCCbsPuhVliV6VaYN90O2/l16n8n6IYytPyqBK6GfGRtakLnUd9yrQcrYVhbjr472tC2bcZCXCUwuufJbLj3bkHJYxb0yttqa0Wl0QzcO/mtKdOTT3rkuRuRu8msptELy2MG5G/vRXbts9jqz44fZqNMBzQ9XolWm5pve0243fYNYl6aLhP6OwFrXTXqu3qVNHrba2HY7sSiBJsrzGgeRJUCfc0rqLu+E+VrDag8aFW2z360E02bspDfANT97hkUhLZR3JCK/lIDatt9+WG3mWG6zSDCgxI8+7MC9QqyDpl54lRs243qpzp95eSoBbWFlXCmRSgnMaU7FToYflaHbGcT8o0BZUI+lnZ4kPNv6myq2PdTfOlGknZfC9rudaF+bRZMe9Q8E/u1c28Nam1qQHMp6wOxvS336mCtyEfx+D6Ty0I+XruqDJMf3aI8PapRnkS+WerKYf5QnU1Dmklr261o3S7K9OY+5P2qDVWJbFY8x2882z/VeuFqI3aK/Ti6J3g/ystrFXlVecQfwDrQtLoYNeN5KR/n9eJrTgG23qVmCPvJJaJYqL0shFO7lpG7kAl/+bvCuSANde6WinKWKNOX5GyWGntHxrvw0epyK1iELsRUYx8clnaXrZVuVJd745ptUmPnYEj3TIJG9zzjIn2mbl94F2m+rppCu78SayP1v7hNWpuprsvdu6WO4QsxdiE2xXzyb4NrTBr8bbVU5F8HOT+sQ2Fd/1wY7pB2l65WutWat2S1tPn5Hmnk7xrbFS3fvuyX9j3oz/sbpaJHDkuDY2pXPxH214TZz4Pw/RLi3IjUI/Znobo+cj4VPXJQ6nGFpTSxLa4eqfH+iXyV5+8f72rML7ScVEuHPxiTRpT1CczreNNNtAsxnwvD3VKjf38GLKP/eXk9A/Mpvv0Ue7pR/H1UeveX1dLGNTcqy5DTKXywUer5JHhfTEd9oL1eYp+J5fu3ebxMadURkdIeG5K6nw8oT5lrpY2B+zHiOsnleffEtotjba3Y9g5RZkJFLtMa9Whcx28c2z+lesFn1H5QqvbXT8ryCqVtz3dIg+NlXpSHwLxUysO+4GPz825p85IlUuGLg2HHPhGR3/fkP2q8S3OV/LSktYNo+492lETsQSLJMQ+IiIgoDtPQhRgRERER0dzCIJeIiIiIkg6DXCIiIiJKOgxyiYiIiCjp8MYzIiIiIko6vJJLREREREmHQS4RERERJR0GuURERESUdBjkEhEREVHSYZBLREREREmHQS4RERERJR0GuURERESUdBjkEhEREVHSYZBLREREREmHQS4RERERJR0GuURERESUdBjkEhEREVHSYZBLREREREmHQS4RERERJR0GuURERESUdBjkEhEREVHSYZBLREREREmHQS4RERERJR0GuURERESUdBjkEhEREVHSYZBLREREREmHQS4RERERJR0GuURERESUdBjkEhEREVHSYZBLREQ0B7m6KlHc4oRXHY/LRS88noT+cw7zwtliQs1bLnWcKLrvSYI6TERERIk4Owz7R6PqSGTfX7QKy65PRYo6HomrqxyFvf8db7aWIE2dFjsvHA13In9gK07+oSyB/79UvHB/2I+h/1JHI7oCC9MzkK7TyiUXOisK8b8K3kRb8dzZMpqbGOQSERFNkaevCdte6IPnv0ZgH5CvNOqQnrccCy/zfa64OIqhvmG4bzCi4RcHUHVLqvpBCKcZ+UUu7PpLMwquVqfFQ/7/3Fo4UIe3v96JbHXy7BuGZVMNOj3A6Ed2DLtFLq3QY/lC9WM/NQ91eVVoeakBxuvV6X5ne1FzcyN0HW9i502TfV2g7zIGuURERNPE+04trllvBjIacPx4FTLU6ePcVtTkmtDqzkadXStIc8FStBJWw0l03ZfIlUoXOjetRPkRebgCXX8VgXKEWHpScpOHv53CiZGvxMj3sShzGdJSpyOoFOu4UayjDajq/gINd4SnOXyoGFk7ekUUXAXbiQbor1Q/ULl+U4yVv9Xj+J808phIxTa5RERE0+TUx32+gTsysMw3FExnROl98oAD9b/tg0eZOMH7Tivqj5ahzJDYT/Get8x4+vNsZCpjo/CcUwbi47ajdYcIIlcXYtuL3XB+6BSv19C0qRArVxWj5qAd7ovqvInwDKNfBLiAEauWaQfN6XfdIz4V3GbY+kJzCUgziDwa2AfLW+GfEfkxyCUiIpoWLgy/N6gMVdy6KkK7Ww/GzqqDZz0hN5W5YfuNGe6HSxJrpnDejsbHvkJD83Y1wHZh1L+sGHneqYeh3Ibv39eGkyfeRvsLdah6uEq8GrD/D2/j5F8OoPRKGzauq4c9zrTHnRpEt/y+pgDZ1ypT4ne1HsYtbrQe6hZbSaSNQS4REdF0GL9CqUdGeqQ2AsMYVOaR26OmQecb9DnTh+4j0QLk6Jy/qcfwz56A8aaFWK5MGYT3G2UgNp9aUP5MCupea0ZJRoT1T9Eh29SMN59PQfNjVhGWx8/1UZ/yf7pblke8Kc7zgR1WeUBXBUOe1rqkIvNWI3C0F44z6iSiEAxyiYiIpoP/CmVGAVbdoEwJ4x0QwZsSGRagriT4ljCPs18EdtEC5ChEgPr0G+vxhNKONwUpakNV95ex/5zv6GxC5pNVyA5p/6olJasKNbp96HCqE2LmhuMduzJUmh2hNe1nndixwyICXD3qflcX1h7XT7csB5kix/qdbLJA2hjkEhERTQOnQ72yGak97nkHzI/WYxDZqHitBWUhgbDrYzlEzkDaP/jGY+dB734LMp/Zqt6EpcPCxcoARs/H2leuWyw/E8sXx3oNOQXLMxei/1Sc13K9Qzih3BSn0R7X64GzqxaGteVw3NoA23EbdmZFWZ+0dOSIt+6P2WCBtDHIJSIimjI3hh2+9rglP1qEbzweePwv9zDsXU0w3ZaP1vNl2P+X19F8V+gP9W6MyH1qYQGuiLOtgvedRlRjF7bfMvGPl1/ue+93xRmEXmonHehQBqwo/+F8zJ8f8LrmOuRuHkb2C8dxvK0K+qC2HBpSFyjNPdxnRsNu4COSMcglIiKaKs8g+pUrlDo42yth2mSaeD1QD9uwDqWW0zj5l/0oW6HdHOEbuf3shkXxPbzB64T5GReeqC7ARKoTV3LdF+fWU8/G2+M+eRxff/112OuvfzFiZEcurltdCetnvv+JTAfdGvEWdgMfkQ+DXCIioqnyt8dFGQ68aYPtD4GvdjTXlsGYoUvohrJoXK8+jY41W1FwVcCVY/Ea80d9n4z6mlDMCQHtcX+s2aADqSvK8EStXmljbLq/FcPqdG0puCKB5sv03cEgl4iIaIrG2+NuyUG6MiVeIiqNt+/ZM1Y8/aILCweag68ci5f5LfW3fuXy8Bwx3h63BDkrIof7aT/K8w0M9MHJnhNoChjkEhERTclE/7jGWzMDmg3EQwR9gY8AnpQX9l/W4vvPvR1y1dj3OvRzNVA8MjJ3+pH1t8ddo0dmlPa2rk98eQksROpV6qAmLy6wMS5FwSCXiIhoKsb7x81EzrLJ7paKTLlZLMag1DtgxuOfPYGdd2mH1Lp/9PWUq1whniP8V7uj9Y8rf2Gwdyo95EL3sAGaXeSOc8N9TLxdnTrtzUAoOTDIJSIimgLvB3a0ygM6I3IidP06OR0WpcsB8hguTBqXOvHyoz0orS5ReheIbhiuOfGT/0TvExH7xxUBuWNPOSqPisGsOrzyqD568OoZU4LmzMULE7x6TsmOQS4R0Rzi6qpEcYsz4etvXk+id5q7YX2oUn1QwSw4Y0XlJjOc59XxbwE5rz0eN/qO+TrFQrYOqcq0xPZA2or14q8Trr/5xkMpy/vMDvOmjagdWI6FC8S+DmvH61VuPHNfTIFeGffgqy8SX6cpu+hbH8+pHuVpbvJDMNKu/sY3LeDlPtUrtisL+Q0O6O5qwPE3dk7+UArXMPrFW94K7ZvYiL4nCeowERHF47wLjv89ggvqaCRXLFyOjBt0SJmkzaWrqxyFvf8db7aWxNeNlMr7fj3uXOfA1hO2sAcNTM6Nzk3VwLPtKLlWnRQHzyk7ToyqI1F8f9EqLLte++dl70ATCh8Vq2CNIcCZbR82Yam+XrmSGEZXh+Ond6oPZojDpxYUr6rEotf+iubQZgieXtRcV+y7Yhyg5PBptG2YuJ7rPlKOpZs61bFAOtTZT2PnTepomPj3v7vLhGq0oL040vVk8cWpYilMr6qj0ejSob+zACX3bkdpXmy9UMjLX7p5Adr/cz+MV6sTiQIwyCUiStSnnajcYYHr4iiG+oaVgCctS49F83wf+1zAyDEHXDo9qp5rRl1xuvYJ3GlGfpELu/7SjIKETthOmNfmonYAqPvT19iZpU6O2VSCXA96nzLB/KHY2hE7HJ+KSTdkQ7/oCt/Hfv58usGI5l8fQMVN4T8yOw/ko2hwO463GmP4KT7ZuGApWonKFTZ8UT/JT/XTzgvX+6ew4JaM2H/6/8wB+8UM6G+Y2TX1EWVux3Uo9rbjry8Z2VyBtMlBLhERTcEnh6XCefOkefOqpZ4xdVqgsUFp393y50ukzW+MqhMDjUiHxedFvx5Rx+M38vuNIn15GfOk6j9qrcRkRqWOso1Sx+fqaIL6n/GtQ2GEbRnr3S0tUdazSDr8iTox0Ll3pd1LliS4Dd9+Y9ZtIm+2Sd1fqhNI25fd0jZxPD1tv6BOIArHNrlERFPkGXZC6eJ+TQbStS4ppWbAWGIUA250tnTA6Zs6zvtOK+qPlqHMkEgjBeFsL8zPj8J/P8/o+Vlqfym2rP8t+V2HvB9pb0vqnetRoQz14uW3QnNCuFKPeyoXorXZEpZP3wWphgo0ZFlgsc2Zjr/mJJdN5NGddSjLm42ryPRtwSCXiGiKhj/wtZTMvHNVxLa0nrNq0OL0htwY5obtN2a4Hy5JsJmCF/YXq/HVky9g+wrfFJd7lu4eOzOMfiUyLUX2SmVKQjLuKEXmwD50981WsD6bMrC1uQ5jDWb0nlUnUTD5S10DsL+pLKG26/TdwSCXiGhK/Fcvo93lPdF9EjYsCj4xn+lT7jqvuHVVYm0wnS+j/uOdeGJDBhYu9k0aPDc7waH31AkoPZxuWIXlkTbG2e+bBwXYeleEW7MycmDUuWF5/7t4LRdIuWkn2p77CtWPdc6dBznMGS50Pia+1D3XksDNlfRdwyCXiGgqxq9eVkD/4wiRnRrIyj/jV91nCLqhyqMEfXpkaLZzmIwLlqe6sf5J3xWtlKsyfZPdY5iNB0E5Hb6utPR3ZGvfNHbegaZHajEo1rbscLQgJR2ZBrEZtv7vZJMFWVpxG94ssKN6Ct3JJR8vnC216N/wJtqKeQ2XJscgl4hoCnxBqhCpPa585emp3WIeHQqeex11dwQHwq6Pu8XfDKT9g288Hp63zLD8+FlsVS+I6nTqif9son3lToULQ+/LzSQ02uNe9MLVZ4bptny0XlGFtr8cx/4N0YKUVCxcLAJ25wmMzFa/vXNAWvF+dFVnzHAvC3NZCjKq29F8FwNcig27ECMimgLHnqXIb3AjvdaGt/9tlTpVNiYCux60HmyC5fNM1DUdwM47Q69v+vsRrcPbX+9Etjo1JuftqL3NBv2fJrocG+8jNaF+WqfWTy7OdML0w3K1KYKWdJTJebApG2kxRG2+PlBdaDj+Z1TFsiEfW2Da3ZnwFezUnzSj/b50dYyIkgGDXCKihDlhzs1FrVOrf1wxbaUB+jv1KLg1HamaD4KQA8ulKEcbTh+O5RGtfvLPtoVoTHsluCP+gSbMX1svBhIImqcY5HrfqcU1683Ave04rdXHrbsX9f9SjKbP9Kj7XSd2ZkWPdP3pxdPnr/xEsG/U4XhdfmXqpA/rIKJvFwa5RESJGr96aUTb/yuCw+vV6TFLMMiVn4xV6kJVz3asCgzMHPtwXVGTGChB++k2GGOPmoWpBbn+K9r6fSdhu0/75+TxQFhXga5/b0ZBtGbIasCe2IMtLr358+erQzSXfP311+oQEYNcIqKEed6qwXX3tAIZDTh+vCr+x7jK7XU3rkT5ZfEEuXITh3zU/20RFoZeeRx/8poIuv8j3mB1KkGuC5afrETlsUkeHRvQpGHS4HWOB7lENPfxxjMiogT5+8fVGXISCHBlKUCcP5F739mH2qta8PabNtj+EPJqq0OeMpcVI39TBmbGGQd6j8kDpcj+oTJF22dDapvdTKRcrgxE5D03pg7FTm6u4Enw5b2oJkJESYNBLhFRQib6x12fkfgNS5fLwd6REcTUH6rXAXOdC09UF2g/q1+3EMvVwZkM2sZ7mIjWP6780Io/WnyDd26FcZJvBb6HZ0weDI/72IItm0wwJfja0j6sJkREyYLNFYiIEvGpBYZVlbAn1DRggrNlKXKfKoXtiwboJ+l1wHkgHzvwAt7eFilCdKBpfj7kW8+MvzodfFPapBJvrhBLe1xXVznyN3fCrStB25/aJm2/7DxwO3Ify0HXXydpu0tEFAGv5BIRxeO87+dt5zGrCHBl6Ui9Sp6WWM+0aSvWi79OuCI1L/DKabtg32vCxsccWK5Lhee8+lkA5ad6N5CyxjfuOeu+xD/De5X0PW47emy+zmwzdAt80wJfnzlgeczgC3CzKtAeQ4Ar1h6jnwxG6XuYiGhyDHKJiGLltqL8/74O1113HXJ39KoTm1Asxq+7bhusCTy4IDU9AwUiXHYOa/Xw6kHvbjntlTDUWZUmDZbNK3HdI1YELUqs1zZ5HZbmo1ZpGwvYd+Yq67ly76V5ZpizRayHskwDmtRFmO/x5U3Q68ZyWP6Wju2vHMdfe5phjKkHimEM2oDMO1YFPwKZpofHgaaiSljPqOPT7YwVlZvMcGp8GSOaSWyuQEQ0q1ywFK1E5QobvqjXz+LTrabWhdi0cppxe24HSmN9EERS88I10I+RC+poJFcsxPIV6dBdqY5HIj9a2bgbeP7NyH0Vnx2G/aNRdSSKBYuwalkaUjWS8Q40ofBRUZysO5E92ToRXSIMcomIZpnHVonrNgLt/7kfRvXpZTNv7gS5zr23I7dvK06+XsYruXI3cw9VwvI3YPQjO4blS/g3ZEO/6Arfx6oLI3Y4PtVBv+1ZND9egnTNwNKD3h2r0bj49SjtusVcR+thOuAA/msE9gH594M0ZK9ZhOAl+tcnDcamV3DggYywmyHlNuRFg9txXOvhIEQzQQ5yiYhoNg1K+9bMk4p+PaKOz4ZRqaNso9TxuTo6W869K+1eskTafeyCOoF8RqTD6+dJ8+bNk6r/OKZOCzQmDe4vUj5fsrVb7M1wF47tlpYs2S29e06dMJn3nlbSm7f+sFi6hrEesa9866RZdtV9qb2+RJce2+QSEc26DGxtrsNYgxm9Z9VJ31HO39Sj495DqLtj9hpuzEmeYTiV9tZ6ZGjejZeKDMM9MIoh96tN6Ahriu1Cx34zFlbeA32MzQecH/janetuWa59RT21AOu3+AZ7D1kRtsgr9binciFamy3hnxHNAAa5RERzQMpNO9H23Feofqwztj5zk5DcjnPHG+vwyqOz2TZ5jvq4H8qjRzIKsOoGZUq4sVG17AzC+40yMGGgA/VH9dhqiLWRsxvDjkFlqDQ78YbRGXeUInNgH7r7Eut9hGgqGOQSEc0RacVteLPAjuoWJ2YjJLj8ygW4PM4nsE2bM1bU7E/BC7xRSZP/qiruyMAy31AY96l+Ed7KjFj0D8rAOMexVrijBcihvEM4cUQeMGLVskhfOZzot/mGCrYYtZ/6l5EDo84Ny/u8lkszj0EuEdEckla8H13VGbNwJVMH40v7RUCijs60a43Yf7gKGQxwNUxcVa24dVWEsuFGn8330GTdw1thCLp5UA5G3VED5DAnHeiQ39cUIFvzRkQvHHt2oFbErmmmdrREeAiI3I90pkGsna2fTRZoxjHIJSIimss8g+hXrqpGao8rP1FuN3aLeXR3NeD10OYe7hGcEBGmfvGimL88uT7qE2Gzdntc72d2mDdlIf/QFaj61QCOv2SM0gtGKhYuzhRx9gmMJNCPNNFUMMglIiKay04Nolt+X5aHtKuDnyjnclrRul1+opwDmbVdOP6KxtXwvw2jT7ylXhVriOuG4x3f8/zcDfmYP39+0OuaGw2wpFbh7Z5ONBSnh3UdFkqnk0PgU3AxyKUZxiCXiIhoDnM61CfcXexB8yYTTAGvyl/2A3k1ePM/T6Lr5wXQabWpviiHrUBmWoxtUcbb45ag/fTX+PrrkNf/dxoNV3cgf9VKGFock7YfT71aDnI1boYjusQY5BIREc1ZE+1xjY+2wfYHW/DrpQZUFOuRPp0PERlvj6tHplZcfJkOBT+vQ5VYN/tTG/H4Ua1HUk9IuWqBOkQ0sxjkEhERzVXj7XEzkbMicsvXqC7G11fHeHvc21dFbmubshyrNsgDbrR+MKxMIpprGOQSERHNVf7+cXVG5CTaXe1l8fTVMdEet/TH0fpicGFICb5F+D1JW1/vuTF1iGhmMcglIiKao8b7xzVkIt03FL/LRIws3gZjufNr/MpxtP5xReD6TjcsylABtt4VPfr2nJUfUZGJlMt940QzhUEuERHRnOTCiaNqe9xbMyftxSCif0hHnnjznIuh2YK/J4eI/eMKn3ViW4UZbhE6l/yqBWWTPGDC7ZaD3BykJ9jagihRDHKJiIjmkoteXxdhzh5Yj/kmpaemKNO8F33jcdEtwqoMwP7JSMSeELxKl2Ru2HvVnhxWLsQCtZuyiZcLjvZaGNaWo9OdjYpX3kZb8WSRqwejn4hAfU2G2AZ1EtEM+Z4kqMNEREQ0q9ywViyF6VV1NETJ4dNo2xDvY+m8sD+1Eoaj23H8eFX443c/bMJSfb0vuJ1EWpYR64ylKDMZkRFTjw4ONC3Nh7XyOP78cKKNiokSwyCXiIgoyXn76rGy0IG6E7ZJmxdMK6cZt+d2oPT4n1HFGJdmGJsrEBERJbmUvPXYnmHHyzanOmVmON/pwOCdW2FkgEuzgEEuERFR0stAWW0FRve/Bvt5ddKldt6O1/aPoqqyNHJ/u0SXEJsrEBERfSfI7X1zsS/zdby97dJfWnUeyEfRaB1O1usRT0+9RNOFV3KJiIi+E3Qw/s9XsO6NHWgaiO8paPHyDjRhxxvr8MqjDHBp9jDIJSIi+q64Mhs733gWeL4G1jPqtOl2xoqa/Sl4wboT2Veq04hmAZsrEBEREVHS4ZVcIiIiIko6DHKJiIiIKOkwyCUiIiKipMMgl4iIiIiSDoNcIiIiIko6DHKJiIiIKOkwyCUiIiKipMMgl4iIiIiSDoNcIiIiIko6DHKJiIiIKOkwyCUiIiKipMMgl4iIiIiSDoNcIiIiIko6DHKJiIiIKOkwyCUiIiKipMMgl4iIiIiSDoNcIiIiIko6DHKJiIiIKOkwyCUiIiKipMMgl4iIiIiSDoNcIiIiIko6DHKJiIiIKOkwyCUiIiKipMMgl4iIiIiSDoNcIiIiIko6DHKJiIiIKOkwyCUiIiKipMMgl4iIiIiSDoNcIiIiIko6DHKJiIiIKOkwyCUiIiKipMMgl4iIiIiSDoPcmXbRhc6HitH0oVedECevB57z6nC8PjQjq8Wpjsw0L5wtJtS85VLHiYiS3EUvPJ4E63oimrLvSYI6TBo8H9tx4kt1JKLvY1HmMqSlpqjjkYgAt6IQ/6vgTbQVp6nT4iH+f9NKlF9vwxf1eky2tDADTZh/TI+vf56tToiHF+4P+zH0X+poRFdgYXoG0nVaazfV7Sci+rbwwtFwJ/IHtuLkH8rAGu9bxOuG0zGEr9TRiK5YiOUr0qG7Uh2nOYdBblQe2PdsQ/P7HlwYscPxqZikS4f+Rwt9H/uNDsH+sRtpGxrQ9kIVsq9Wp4dwHshH0Se78O8vFCBVnRYPz1s1WH1PK9wb2nD6cAl06vSYTSnIHYZlUw06PWJzP7Jj2C2yYoUey0OyAv81AvuAC7q8KrS81ADj9ep0v7O9qLm5EbqON7HzprjDdCKibwenGfm5tXCgDm9/vROJ1Lo0Sz62wLS7E56LoxjqG4ZbnG3T85Zj4WXq5ypfXKCDflsL9tcbkRbyOc0BcpAbr9HOjdK8eRuljs/VCbOo//l5Yl0apX51/NK4IL37uLyceVLu/kF1WrDRN6qlJeLzeWsapcEL6sRAnxyWiuYVSYc/Ucfjda5fevo23zrMu22fpL0Wk3A0SvOen2pOjUgd/+Jbj93HtDZUkoZeLvKt55Ld0rvn1IkBRn4tPl+T4DZcKnLezJEyPWWXalviTHfwl4XSksxtUvf4/KNSR5koF0FlcFA6+M9LpBsf7BafxuDzDmmjKFsbO2OaO3bTkm6/1CiX+ykfY/TtJ+pJuazL5WFetdQzpk6eZpfqXDyXzvGzyuWrF+bNE+cyrdPd34ekg3f79vOSx98VkQIlLsZzgdgnm5eslRodseU22+TG5BSc7/iG8lYs8w2E0G0oRZk8MFAPyzseZdoEL+y/rkevqQzrb1Anxcn5m92wX65eC3B6RYqzxDOMfps8YMSqZdpXYtPvukd8KrjNsPWF5gWQZihD2cA+WN4K/4yShSihsRRSMc836iBRsvC8ZcbTn2cjUxkbheecMkDfMp6P+mGVBzaswnKt091l6Vj/U+VsB/deGzROdxSrmM4FLlge2Q0814adWbH9EswgNxaficBOuV+rAvofR8hYzxj85Xv0fMjZ/YwNL+91o6oksWYK+NSCp99YhxeeXKc2UXBjbLYOplOD6Jbf1xQg+1plSvyu1sO4xY3WQ92iyFJySkHGwzacPrEfxmjlJCUDVW+exsmXjPE3vyGai87b0fjYV2ho3g7fJREXRs8qA/QtM+xUznbQ35HN+ulSm/Rc4IVjTzks2a/gQBz39DDIjcH4t7k1GUiPFKX6gz+xezLTgneR+/1u8f9RAuSoPOjd34T0x6uQsXgRcpRps3dlwPVRnwixxVbesjzijRSeD+y+/NJVwZCnlWGpyLxVfPs92gvHGXUSEVEScP6mHsM/ewLGmxZiuTJlEF7+XPEt5MLQ+8rZDnk/ini2Q/8x5WwH3cMGaJ7uaJqkIPvnb+Ptn2fHddM9g9wY+L/NZd65KkJgJ75hiIIuHw64sw6lWcpElQeD74mDIFqAHIX3nUZUowW77hC79apU+O7zmq0rA2443rErQ6XZGcp7mM86sWOHRRzxetT9rg76CHed6pblIFOEwv1O/r5DRElC+dVtPZ64Tz5TpMgXpxTuL1nPfeuccaD3mDxQiuyVypQwrq4dqG4X57O8OrzyaAI9HtElFz3IveiG/WANim9eivnz52PpzeVoOuqK3NROnd+0dqUy//z5K5G/qQat74ce4G50bhKf73GIGHAYnXXFyFqqzv9QKzTjHjGfdU8l8lfJ883HyqIaWD6MXHF4T1nR9FA+VvrX46EmWE/F0kgwlBP9NiV8jdge1ztgxu6GQSCrAl3/M7SrGBcG5TasK9MS+LnDiZefceGJn6nNHFIXqGnM0pUB7xBOHJEHNNrjej1wdtXCsLYcjlsbYDtui95mJi1duSrd/XEcDRbOh5SBtZVosg2HlUffvjeoZco3n3kgsZOM52ONtMLKs5aAMh603kuRdY/WMeFAk0jf1OWC530zypVjzoTOgCvdoeuy9GYDKvdYMRyl32TP+62ouScLS8X881flR5zf3Sfm2+Q/XuR1rEVnlOMllnTdXSaRVpPYsmgC8imEsk7+ZSzNQvmeXrj+j/phiHj2UzzpRuJb3kT9Uiy+2EX7vhaUX2KZxTta4Yjji2roOhfXWeESXyhNYtzU5aufZJHzPHI+T3Xd4i2XwWUt5Pg849umpgHfaKDwbZvYJu+pTtQW+c47vv+N9pkQeq5S8rQz6rE0OflXNwsyn9kKX2yrw8LFykB4E7Z4xXkujvl4vmTn+CjCllmMWptLBIzy/g2u8xx7xDI2dYq9GcpfX4Z+4oEjJO2agw4xNX7eUycitsf1nnWi8zED8jc7kFNvw/E/7ER21G7EvLA/Ja9TDXq1VkZ8OSoW61tpm/gw5n0YwewdlwHTxLlPju+UNJW6J7ZjNozbjtYdpvFzv3zOMcVYT0UJcuWHFuTC0DyMhfe3wPamDYdqc+DaW4jyX2gEJudFofuJb/4FpSLIEfPbXn8C69CDmnWrUS5O3mHO2tG0sQYn0ivQ3GZD10vrgPYa5G62iKUHkNO+Owum349h3eNdStotP9Wh9/4i7O5V5wngHWhC4WqTWHIpGuT1eLMB689bYFpdCHO8z0I442+PW4JVad/A4/GMv9yn7OjcY0LW2lZ47tuPgTeaURDaZZZ7BEPycXjVFXF/y3P95ml0370LJeNpihTUSHno8/DD/pI76UCHMmBF+Q/VwuZ/XXOd2G/DyH7hOI63VUE/WUSvBuzuM6OxVUByGTCKMiD2d6moVOQy0GAcg2VjFgoPBOxUp1ns+2r0pZagQZQp25vtqMocxbArgZOMOLC33SzSusyAOjWtsh/0oHZdUewP85Af/vGISeSbHrv2ycfEs+IrQrc4JkQaAxppvGfGtt50PHv8NL7+uh0lantW15FK5N5sguV8Hna95Nv+lvvT4Dokyp9Rrkx88wX66v0mmBqcWGZqxiExf/uDyzHUYELhI53Bx5c4XpYWmjG64gG0yMfL63XQfykC7X/eBqtGc5KY050CV1c5cgubMKzb6luntjrknBH79v6D4cuIYz/FlW4Ecv1SpOyLdXjidXl5LbhH14uNd+8WdU44eZmr1zVhZMUuHJCX+VIV0k81If9mccKLoZLWWucCz8txrXMkU163uMql3KYuX5Q1sS2p/rpZHMelKRgdTeD49HN14PEXL6DsVyfFMfO1+HKtTpdF+MzRshSGX4wi80Hfua3rST3G9paLMqz+IpcA369uu7D9loma/vLLfe/9rqnU13Gei2M+nmfgHB9Ga5kF8ByMsMy4iLQrViO/eQSZNQeUtA9UpmO4OR+rd/TGHeg6Hb6zHY6U+74ABryu+adclH+ajZbjx9H+sB66SbsOS4F+w3ZkohW974WvifOtl9Gr24mSO9Wfe+Osk0PNieNS7I+Op8y48NM2nBTHXlDXpdGO2RByfWvINaDp1ILxc3/X4yJWPFYj6qlydH6mzhiJ2stCGF8XIhrdNPx9UNq3Ru4yI7B7kQtS//O50rwlm6UOlzppnPzZWjH/Nqn7S3WSvyshjfSV7qXm5Ur7xvuXipL2aLdUvUROJ6ALsQv9UuNt86TcZ/pDuvNQu3R5pEeKpzeXsT9Wi/TF/y1ZLRWuLwx+lVVLT/+2Wxr8PEpXFol2TfR5t7R5jdiuoKT9+ZZgV0dT7EJs5NeFyrKXNGt3/jX20WFps7w/5G6jwspBqBHp8Hoxb1lHDF1HqWXgtqel/pAuyUZ+L5fTiS56BpuXiHExn290wt/V90i0usf6vEc6fCyktJzrkarl8iDKV3T+fZUrPf1eaPkQ2y53OxPUFZza/ZRW93BqGVor9l1YSVO6UxHl/cWA/1K2xZe3I+okvwvHdktL5i2RqnsDtuuDbunwcEjKwwelQpHGxt8HpBBnur46JLB7P60uxDSmRdnewRfluiSk/Me6n+JNV4tavyzZGp4Ho1a1G0GNbQnKR5naJWCkLgnHKV0Paq2zv14NXufwPPeLnM8Jr1uc5VKuS+UysrkzNOcCqGk2OtTxABHLU9C5xS/aZ2J/v3FYGgqpS4Zelus3UQdMWndpuDAoNa4J73LL18VlSL7HKb5zsRDj8Xxpz/HaRn4rn981linKXKPGtij5p3mO8NWX4WU/fP9deO9pKTcopoiFen4S5bXxA3VSkDFp6NebleNd7vIqSokOoNb7Yv7g2krkt3y8BdbhsdbJWmb9uPRPmydts4bUy7Ecs4HHSpT6drzMhOVnsAhXcl3oO2IFTNtREfqT82UZMG71dZkxztuP7oZBZFY+HHDV0S8F2aYHYIQF3X0h32YND6A0JP20H+vFt51BjI1/03CiJ1LaOiNK71OHVd73u1Hv1GPrT0MbJ6ch+y6x3ocGMaxOiYW/PS7uE98M/yC+RQS+DjejzmRExrUheTRlXth/WQ3cb0T6NxNXjj2eMVy46JtjalcGEhHQHvfH2s02UleU4YlavfLTi+n+1knyOQVXxNpGWS1f+i1lYT8Jpd26XpStVgye8o2n6uROe+ywh/58lkgn3dcWoOyOkJW8MhM5G8T7KVdsV3zWbEVZwJUdnzSs31IhinY/hkO/hd6Vo/7UOcF11AIryrB9i0aD++tL8MAWHQb394gjJVjVfYawNuQpd9yD7RlutDoC9s5NRpSFNj9Ztgp54s2qUc5iTjdBrj/LN2pqb2/GBrkuCRHjfoo7XS0f9oj6JRPbK0vC8kBnULsRDODbd1XY+pOQua/Mxrq7gEGRX9HKkcvRi17NdRb16k9jXOcIprxucZVLN3pfbYXb1IIXpvtphwZxzojwAJ5In2VsKEN6SF2SnqmUeIzEdGAHc736NDrEsV5wVWB97cGY/0LYJ6Ox1Rdh4jwXy2I6nmfoHB/EBcdbvdrLFGWuVGtbYuZCT7vYnoe3whCyfim3rEOBiCn6T8WxBwLb4/5QmRIiFen3PYG6NWLJ7SaUH4yl3kvDOrm7sfZe2AN/JRnowT5nAbYaAmr+OOvkQHPmuBQlQp8Z4SQf7ZgN4IvntOtbucyUPSjnZzfsUbIkQpDrxogN0GdnanZ5lRIaMJz9QhQxIC9DO/jBtWlKf4F9n4asSUZa+IpfvVCZNnxGnfeMSwmWIqYdsi6es/Ka2FHpb7sR8FpZIbewGYQrhsv9PhPtcSt+nK68xy3Otn4y74dm1NvS8EVXDUybTAGvGlg+8s3jvjiVnxESMN4etwQ5K8IOnXFpP5IPQ2GgD86Y83kSavmyb/e3Awt43VguDmixV9UDP23DE2je4Eb9uuuUdtutR4fhUb8YJOTsMOxdrTA3iH3xEwMMN+eiXMmHGGVp90KR+gO5sUb4CdW4OLydh9stvlysyY5YKaQtzhEzDYWkZcSqxVr7SW0nGBKke884YW03w1xXCYPYzvxV+ahXPwsWX7qJcLvEHo20vf9NfQ8Vw35KKN0Q7jNKbYRI1VFozij7DmYYrgkpt+KVv0d8dGREKduRTMc6RzLldYurXLowIvZHpHPKlKzQOI/4RfzMC7fTCsteM2ofEuXlJ/lYuVa7xE/qjBVPv+jCwoHmkPraBPNb6vH8TaI3UcR5LlZNfjzP0Dk+SGLbEhs33HJQuteAa0LK8vz5+WgSH1k/iVaag423x703R7t/XEUalt/iG3K854yp3tPdIX8RtqDjHf/cXtj/KILMDfdgXUgf+rHXycHmzHGJdKSFfSFSRTtmA/jiucj1rS5NKXUY/ptvXEvUG89SI8cyMy4lJZ6VKUOz2q4k/LULeRF2fpjx/nGNyMlIsAjEfSJyoeOZHqy3vB1+5Vi8XvhXtdL8eOrBRFz87XHXiG9g4XHYONcng+rQQqRepQ5q8uJCnI2kyprk/af92nWLun+uzEDF4ZP46/F2VKSNwFyUhetWV8I6WbsdDXK7ppX/lIXKXzgxelUaCsprUNN4AA0GdYZYRK24M5Gittkbd9k0HnTRyt7VqWpA5oWjxYCVPywSX6xcGPtBBsq21aDu5f2oUD7XEFO6U3TlFerA5OLaT3GkG1kKrohnI2/ZiTaNMut7GcWpYBLTss4RTHXd4nRJzinRjjGtz+S2pYUrsbSoHlbXGBZmlqFqRx3aXopY4qOQf3Wrxfef066vD/1c/dI/yReGycSeb/Edz7Nxjr+Uy8yubtMox+prQ+yl2d8eV39rpv82GA0uuPw/n8Va711dgJJqHay/7/GVB28/elvcKCsuCFhOAnXyFF2afRIl0Sl9oYlPhCDX1/WJ9aMRkd3hvOdCopOrr1Gi8j6n+ptxqDMuyKHPehG9x03tNssxrFVFiEAppL/YlCvluV1I+Uc99HlarwzoYtyh4/3jZuQgPdEHH1x2OeQ4JtZvke6uWryc/Sy2hv5mrdKl+XrKxUV562eO0+G7ISNa/7hyvts7lRyLoc9A9Zt3LJWDWgZcly/S2J++V2iTkdQMI6pe6MLJ012ousoCU53WHbrRiKB+lwULfv42Bv60Hw0PV6HMIC8rXe3GLUYRvozI/Q0DolzFcEjodHrgmAODEW4Ecn3SL8roKiwKqo37MaL17Va9Ip+5WHwJkcfP2LDvKTtyWsV2vtaMuocrUHKn2M6s5RG+2ceY7hSkXCW+ndtOYESrgH9zIeQGktj3U3zpavPVLw4MfeobD+K9gDF10E9Z5vteXJM9UVaDX+lR8yuxdR7CaFihc2HkPXVQNdV1i69cqucUx3BM+ax1Y62S3jRwv7UP9X05aPvTALpeqEPVAyUoENubvTj+kiv3rPP4Z09g513a/6v7R19PuYnX1nGei2M+nmfjHB/nMv3eGwmvQ9XlTfCl7bh4DXLCyrH6Whbr/vX/ghutf1zhUztek3tOEvNVGfJirPfUG9COWmEXdYjnaCfMgTecyeKuk4N9W49LLalXK6UOkYqd26WUOmRGeZJshCA3AzkGkQN7X4Yt9AqYpxetDfLPXAFSclAgvp0M7t+rcaeb+FbSfhBWXQUKsmMtZAFSfW3r7Ics4XeQn7LAvFcdVqVm56EMdrz8e0fC1YqPFyfea1WGdIbwdpIx0y3Ccrkwnbsw+fqc7UXTMwtRp9WWJpRN48C/ZNwYdviqlIj948r7eU85Ko+KwawY+gz0jCnrH1NQlJqDPFOEMhAqtGmCrgDr7xLv8baJc48qvWKkLdYFb8d4xRajI6+hO/QAPW9XjiHdlgLkxHBIpOWJkzAs2HdIo0x/1omDh9zI/qkI9NVJPm60WsPvKHa9aoYZ2Si9XZ37ixERtkIE28GVufedbrFELTGmOwUZ2fITb8x4+Q+hXww96P11vTi6A8Sxn+JKN4JU8YXXGKF+GZZ/WlSH/TJuL0Wm5jJjE+86+08K/R8Hr528P1tDDoCprlt85TIDRlHecagRrVq9ivj5g6kPhoLTFMdMt0hvOrhdSokP+SlV/tlYu8RH5sTLj/agtLpE7KPJDMfRTC5QnOfimI/n2TjHx7lMQQnY3P04EfKl0nX0Nd8FqHEZ0JeIL21aacdrvEelyP3jKr8GbK2E3LlTdu0rqJP7sY9Vhh6lGb3o7LOjt8uCzMr10Af+e9x1crBv63GpJeWWAuzUDWLffo2ee8Q+sPzCOul5NGJzhWxTC0p0VpSvLUZ9Vy/syg5pgmnda1hwX2gDcfHtpEbs6Os7xfwGVB4U31LE/HbxLaVpUxbyG4C63z2DglibCQTRwfCzOmQ7m5BvrESrTaQr0rYerIRhhwc5/6bO5ne1ETt/VYLRPfnI2tSEzqO++eV1aa0TQdiRyXaI13fTgLsPva/6puToUn3TopSByNKQKf9sejJy8wKvSNvt7ETtpm1oXZSGBRc94YXzom+9vFigTnBj1C3f3JDQSsVGXabnVA+6lfaNBUi7OrgbNfnlPtULs7KfHdDd1YDjb0zWZ6DgEhWJeIvU93CwVBgfbUOJW5SB20xoUsujvU9UFAdrUb59otsfR4vcZ2krrMrnosy216L+N2LNtxjVgzpGukzo7xTfcOuqJ8q/SMuw3YlF8TRX2JCK/lIDauWbDeR1splhus0gQosSPOvv/3gyN5ShRZRpV0NwmVaOgbXl6LujDW3bQrdOjzx3I3I3mdW86IVF7tdxe6+olAN+KfhhNsrEeafp8YBja68Jt9u+wTp1lmAxpjsVWWJ779XBWpGP4qc60SsvR6lL8vHaVWUiyAwQz36KJ91IrjVg15PZGBT1S+FD/nJmRet2A2rO5oT/nJixFS212coyDdsnyqXdZkH9jmKYNfqdDJJVgQNb5HUuhGlP8DpbLisNW+eUW+5BXZYb5oqS8TInl5PC/eKUHZofU123OMtl2n0taLvXhfq1WRPbIh/De2tQq977IAdT94j8de/dgpLHLL55bK2oNIqvD/fGtIcmtUyUAx2asDtg/5k33Q7bee0SH0qurz2f2cX/bETtwHIsXCDq5bB2/766031RnBuVcQ+++kKuLwPqa6cZt883wKL1q0CAuM7FcRzPs3GOz95yABXyMo0T9bhvmRakaOzftDu3inXsReXdJpiV7RHl5aliFH6SHnasZWxpEWVf3p6A9ZO3v70eNUXmoH5cNZ33nc+GRTCpBNB3peH7QTd+yy83ho/KdXg+6gd0KHjuOF6P8wlcSmD5bwWw/7YeB4+E3HAmi7tODvEtPS41peix83d1SHu1HPmFE/mhlBl5H6AOr9T7z6NeOFvyMX9VZXA3a2ovC9q+7JcOPlIkrVa66bpRWvtgo9Q9fGGiq46Q7lKkcyNSz4vbpMIcuRsn8T9LVktFjxyUelyhHVlodBXh5+/WJqQrnwvD3VLjg2ulGwPS7f/S30VLeJc5o/aDUnXpal+XPuJ145pCadvzHdLgJF2c+Lqg8v1P6CtS11mT8XWbMtHNVZDBfVJu2LLCuy2JvF6bpe5Jej0aF1cXYqNS91at5Wm85O7VHtwtHbaPhndZEoGvDE3e5UyQ0XcDyqN4Za4Vy22UOj6YyNhRe6O07Z/9+32JtPqft0n7ekcmXy+tLsRE+d/nL3Oi/Bc9clgaHFO7opu067OAMu7qkRrvV9cpoOwGC+8SJ9TYB4el3WX+9ZHL9DapsXMwvPsU/7a4xqTB31ZLRZkB81uHwvLiwnCHtNt/rIj12/x8jzTyd9/6BJWXONMN71pG67iPVBeMSf2/FMtQ65LxZWjVD3HtpzjSjeiCNGQV5WzNjUoaS3KKpOpf9ssph+eZYixofl+53Cj+R+RzSDdW2oLXWV7e7s4o6xyaH493SEPnIufz1NZNpBBruZT9fVR6V2zLRv/ylLqjUer5JLD0iO0V55G1/vJ1926pY/y8M1l58ov2mdh/nbsD8nOz1CjqCH8XeVrdJI0bU7umC3ltfiN4H4y+sTlsHt9rom5Xtkery0AtcZyLYz6eZZfsHB9F0DJFeSsN3L/hywzbnhcnjrWwsj82JHU/P1F2lPJVVi0dnOwcMNotbZbnj+G1JEfEEo8flt6N1nXoZL7slrbJ6d19WLP7sbj2YQSzd1yqZVsjLot+XEb+7II4h+57sHD83O+rc0PrqAsiTlrr68I0oAx9T/6jxrt0qchPMxHfLtK7v0BDPD9rTLeBJsw/pg/ulHlWeNC74zoUe9vx15eMsV3N/NaRn96yFOUr3p4D+U1JSX4K0Q/LgV+dRnuxTp1I3w5e2OuuweMLj+PPYb/CfDfJT8lauhlo+4+Jh+AkrbNWVP6TCXjlr9hvSM4z4FwRtXcFmiY3rEeZKM/mzvifupKUztphPaTDzntj/LmeiCipnILzHR2MEe9xoGTmessCS+gNZ3RJMMidEakw/lsDstst6J6k/dV3gcsmDvA761CWN4tXtYmIZovcPaW7AvoojzOlZOWE9Ze94Tec0SXBIHemZGzFC0+OoX7/d/xq7tlemBuA/U1lUboiIyJKYteXoP30TrAh03eH+6gFncpNjhtRi51o2cKr+DOBQe6MSUFGdRuePVeNHV2Jddnz7edC52PV+Oq5FpRF6deOiIgoqZyzo7zQhNZzRnT9rm7yHohoWvDGs5l2UQR626sxsrUdO2+a4d8qPjQj65geA9Wz8Q1S7t5jCywrGtB8F6/hEhER0aXFIJeIiIiIkg6bKxARERFR0mGQS0RERERJBvj/AaF+PA53T9V0AAAAAElFTkSuQmCC;" vertex="1" parent="1">
          <mxGeometry x="770" y="700.7600000000001" width="240" height="59.24" as="geometry" />
        </mxCell>
        <mxCell id="Lc4qGxHdZDB4FoPavioG-16" value="Probabilidad conjunta" style="rounded=1;whiteSpace=wrap;html=1;" vertex="1" parent="1">
          <mxGeometry x="150" y="790" width="130" height="60" as="geometry" />
        </mxCell>
        <mxCell id="Lc4qGxHdZDB4FoPavioG-17" value="La probabilidad conjunta se refiere a la probabilidad de que ocurran dos o m치s eventos al mismo tiempo o de forma simult치nea. Se utiliza para eventos que pueden ocurrir de manera combinada." style="text;html=1;align=center;verticalAlign=middle;whiteSpace=wrap;rounded=0;" vertex="1" parent="1">
          <mxGeometry x="290" y="805" width="530" height="30" as="geometry" />
        </mxCell>
        <mxCell id="Lc4qGxHdZDB4FoPavioG-18" value="" style="shape=image;verticalLabelPosition=bottom;labelBackgroundColor=default;verticalAlign=top;aspect=fixed;imageAspect=0;image=data:image/png,iVBORw0KGgoAAAANSUhEUgAAAgMAAABYCAYAAABoDfRKAAAAAXNSR0IArs4c6QAAAARnQU1BAACxjwv8YQUAAAAJcEhZcwAADsMAAA7DAcdvqGQAACINSURBVHhe7Z0PcFRFvu+/+65VxoIwbLHl8K4Xh6uBIGsSdosk/olJCTFcysxwMQnuPuYFJRKvkOBKElRi9GrMLuaPTzJBJRKVbLwumShmhrfcDCwwWZ6ayRY6Q2llsORldLmVsaQ2w0plKH11Xvc5Z5L5cyY5MwQhzO9THOacnjN9un/d/etfd//65CcCAwRBEARBJCz/Tf4kCIIgCCJBIWOAIAiCIBIcMgYIgiAIIsEhY4AgCIIgEhwyBgiCIAgiwSFjgLj6+cEPn88vXxAEQRDTDW0tJK5y/HA03If8wU049UEpdHLoj8Y5N+yfjcgXkzB3IZYt1kGTJF8TBEHMIMgYIK5uXCbk59TCgTocOV+DLDn4x8J3uB7G3Q7g78OwD3pYiA5ZKxbiBunrcUY+s8Pt1cHQ9A52P5oOjRxOEAQxE7g2lwnOmmGcMwfGHq8cQMxMPDC3cEOA48WoTzz5UdHcVwfrB1ZYX1wnBayoQQe/DjsG/9KDSq0HlpoclL3NjYZYcaDpmqmzlykvg02YM8cI81n5egpce/RYtKwClqD7vT1GFkeTXKc4LrQXLkLaZgurYWqQ8jbnpYkYpoUZpLOU5ErMfEKNAblCzgk50pC/uQnmT66AJiYSGt8hE174axYyxKsR+L4TT64IrpM28VN75xLlpQpNAdY8Ip3a9lpYF0NcWfzivylh91yUTwk1qJQrMeNQnBnIe7IL1oNsxHOwC231BuhOtqMsbznKeuIZ8RBXJWdsqN1cffVa9xfsaHz6b2ho3orFYoAHI+fEkyuAF26HUzxbl5UufhJXO0lIf9yKLz5tg+EmOUiJpHRUHvwCp141QCsHEZOhUq7TiG+wHdUPmsjAvswoGgOa1Gzk5eaxw4DSxxvQ8fERdPwKMD/dCTtZhdcG55wwdY1ctaMi19v1cP/mWRh+MR9LxBAn/Fcqsf4hfHqAnxiwbHE0D0EXBqzSWcEjBpDJQBDTg9/Tj/ZDfpqQuMyo9BnQoeThUjZAssF1Wg4iiMvFmU688P4aPPsQn5BP4oM3Ee+3V2ip6pQD3fxzRQGyFEdDfjhe2oZaNnTRGbvQIqabIAhi5qDegfA6PiIagf//SZf4wQv7nmoYV6ZJvgWLMlFcZ4b7gvy9zLjDzgU3zHXFSOP3BjnfePvbUb0hXwqfswiZD9bCfFq9DSj+/sFMLJLTUPaSDZ5AGiPwwW1tQkWhfD9/XmEFmqxuBavTB0d4/rZZoGqhhOXV8lIF8pfxZ8xB2srQZ/j769nzF6G+XyGffjvqF83BPbuCJsWmiE8iyGnLa4dpsyxTsVxYun+Qbws4QK2sZ+cWlN0mxTlngznEgcr3uQVNm/XIZGnh3y+6Q4+KlywR5cs7wlCZch8TExxx99s+2No6kfHiJnl0rcX8W8UTjFxQUy886Cxi6chRnlaUZH8PTDHMOXo+6xdlo+Qv4P+KyXpDJvL33oDKNwdx4lXDtG5/DC8HXvamj9QJd8JZTi4juS4vuqMY1XscTNLBeGHewJ7B2qb/tBm1RdK9TYPy1xxWr9q3Gcfr4Zxl+TBua4djsuWbcw72m2I5/ZL/kUWhfceaT99HQe2epUOpbkY6Cyoxke9wpDQFdFMaa/+dcEVLkk9qo/o7Fo3LpmJXuIwlYtNZUQh/npJ+CtfRXP4bqtEeIdcgGbB4uZ6eKK/2iDwrydXxErs/TIdIKDiTBjmCevtNIfWy1hqUA9mHbdFGC7uoR76YBzmdAWKQuyKqdCtr56cV6udg4CleWMoXYVEh0zlqVNRVimpjwPUhL5A1yLhFuna0LIL+tRFkPNYi+hf0PJeH0V1lKHxCySvXg+7nTRj7dQdOnT+P80/KG8RYpeACHFn6KFq4j8J7dcj71oSy+7eoWsv29JQhp7AJbu0m6fcddcg+a0Lhw3sUOm0PLJtzkLm+E6P3bMdu0SeiBZtu8aB9fSYKuRKU72Q1DLZty5HP8pf9mzYpf79bB82HboW8hXGBVX5DJow2YF09f4YVDYZRdPJn7JZ6oKTcNdia7kXT4YHISveRDU3eAmzSy8NhFfGF4O5E2Zo3gNV1aGP3dv2bDs5dTIE32OVnpcLA8/5yKTvPQ80+KU7rb3LHt8N5DlQg5w4jOi/kYvur0vctD+vg2WtEpoEbdvKNDNfuQmRu64fmVw3Yy+N5pxLLvG544nT28x9rRBW2Y+udE9Px118vfQ54ppQ+Q4c1D7G8ubphjxCPD/0fNMF73yYYVM/je+E4ZpfOGvIlhRN03Hi7Hp2aShzpM6OhOHV6txQyZbjljir0X6dHXQcvhy6U/qwPtauK0PSJWq3jZ+1kC1PGrLSf4nW5B79dDfTW5KMopM7LeLrxzCtjKH3zFM6ztlqTKQX7WVvV5+jRdHrueD3seWYVcLQa+XeUwfyVdF8Io/1o2lAPV2opmnn6Wd1Y4q6HkbXvkPtjzOffPmqCscGFxcZmsc51PbYEQw1GpnvMCu0+Pnh+i8Q2sArPvsfT1IIHtTasf2AH+uR7JmCd6dZMVP0Z0NfuFWXT9T/noq+OybjFFSLj2HRWFL4yo2w50wnvjiK3erf4POur25E96pnoBLne+Ncc6JvdmLuuQbrnvWexiqW+elUU/69zdjStr8anqeViefW8ysq3qxo5GzunTa7BDHWx/qIDKHiO18sulOucMK3PnxgkzWP6h8vyyTx2weoQzwM/1qZK38cgd0XU6lYXK5/lrH5qStAg18/KjBG4PVM+YWbB3zMwzl+7hfXJycJ684gcwPhuWBh4fYtwOwtf2eaUAwXB+f4+Yeg7+UJm6I1CITl5vdDtkQMYI+b1LCxZ2GIZlUOCONkr7HOPyRcy7j1CIU/Du8NyQBTktK7cOSCExSA4X1kpPjM4H1I6VgqNjvC7BWHYvFFISc4RWgPZG+kVNiql4Xv5MypjwsDOHCH57heEgTDZDL/Ln18l9MlicLax+4KuJUaFvieSheTSbkFKufr4BGFAaGRpTk7ZGCJ/HsfxZ1Iin+VoZGGsrP4qXweYRK6Cp1vYmJIs5LwSEJRTaGTXyS8OyNeXyBiLb0VkmgZ2smfwvLE0qWLsuPBCSDplvu0VtrB4FOtiNFhcO/izkzcKvUHNYpzvR4S+f+f1LUUobFaQmWqk8gtpe3/tE/YdDUvrd31CFU+PCpkH2l4Ouzc8XcNvFbHvguo8q3HdpTyfW4Teb+WgAGMsbXcnCymbuoWIVvkd+24F+91jvaz2BpDrYpguEPmOyZOVTUpN38T9avMp1lkWxtpHeDrGju5gbThFqLJNxCPlv5GlZoLIMDnfwXVrkvyOWKrYc8LuZ3H0/f54UP45Y0JfDZcBa7tySKw6Sxmn0MrlvYLlIUwnTCDrjQhdwOHf8WcFl3Og7CP1Y2Q9UZKh3EbH9VYwCvVaLscI+cp1I/mJoLrBUHqehEq5KxKDrm7m+lMhvin7g5mF4syAZaM85cKP/56G/Bo7MppO4L0tE8Op9LWlSJ0lX8ikZuSy/y0YjhjAGZCXoTBm+oUBpeEOWYuXQYxlilGg58+97Eml2PpIFsJiYGl7lD0xGA/6uiyAcSvKM8PvZmPJ4kdRrnWi9bBsDWo0WKhlI9GjjqDpdcZ18mc0/APobXAi75FSZIXJRnfXGpamdjhln4v01ZtQwK4t/UETWswyt+xlNnBxgeTZHEN84zz0KEpuls9FkrCM3StuzVMxd+Y53BlVrri5BI8+ooWzrU+egtdAy6vEUfslLAtM4PnDC+heweQy28fSOnGMBgzwL0emnpnhJOVhFU+n2R6yVOA91o1ObQ1K7oth/D7uL5CHDCV38+u0KHiyDpUsZfbn1+OZw9MgiAA3FaD03rC0zspA9lr2edqjThbIw6ZfR5albm05yuHEwOdhYz49y+c8+VzG/1Ev6l0Z2FpRErkEMisLpY+x1tbVC3t4gh7fBH1IXWTMysODv8mA9/UBuOWgWPNZ+ZA+Ih1J9z4ozra1O8ZjjZ9P+qLmV6tfx1pHOKwOGPPCZoWSkJHFtZAbHnmWMzadFYXBPrQOZqDhf9VE6IRxZL2RUfF4mC7gJCHLyJ/Vid7+MMnqH8W6MP2o+yWrD6yejEYsD146pQ+HyXfWMuTp2aeXtXkpZArUyV2RGHSrRss3N9thD19emao/mGEoGgMTWwv5cQJffHMKXRFvVfPD67Kgc5cJtZv10P9rPtLEdWglUqGLqJQS/rMuWLpMMNVVsDj0yF+Wj2ixBOP1sM59RVaE4hL5B/lzHC+8R1m+sjKiTOPqsPAudpd7WFI8rDMpba3EkmNlSLuNr+mZ4TirYkro3DfidJp9a2CNLui4vYwpAsAZMHJuWYUHmbLrPGQfn9qL6KxiiU/GkBqhrqH5Ge/FlIy0SLxee3S5MnS3ZrObhuS4dFj3XDMM5+qRv4CvqbbDdjrOzvCsBS+84sH8wWYYNxhDDtMhuRe+qH47QdbqrchwtaJvfM2bGYTvWqB9ZBXyIu3BqIz7C9yzLKJjGCdpCZbxjovd2X5yGjqjYPjrkHvaYWqohpG1D/0dOSgTdzaoJQtL5KW9EDRzRYMzwuheqovIp+8cr4W5SJf2eEag1XFl2Q/3f0nXAQw/XxjR6XG0Wv6EMGWtOp8GLLtVMVbJt0S1kRQd71lehtHzq1h9fvDB3W9G+656VG9g6S/MRI641j1BbDpLGa/HyfIXPW0ist7IjXbTTTrx3R39Z8IklR5Z9pg3Xwxzn71UqYZjwJKIPkGDubxSWmU9rAYVclckBt2qW/ssmtd6Ub9qAdKKqtF+2A1f8CDxGkHRGJjYWsiPdGjDaz9faylMw6KieqZMRjE/oxSV2+rQ8Wq5fEM4Ss3HD0eLnnW2Rai3ejD6s3SUbqlG3RttbMSiklnhL4WdPnSrG2A99QWszxUAB3Yg/7Y06FsU1lgVKG0KGFKRx/Y7A+YIs2qL2Rijywa76IAldVYZFWsiOit18V0ZktLL0fWXr3HinXIs9JhQvJw1mM1hjkxT4of99Vr89HdHIt7sx4+9T/K5IsaBYfXxphuw6T7WOf9R9pU4Y4f5MBvtrY7lhcYT/gLrfjmZ9vVgSO64MmYrdhVxwX030v45ExWvuTAyW4eCsmpUN+5GAx89qWby9ESkdzpHO6LTcTTmQzNbOos5n5N1nPM0U+RYLUm4QW1EX1lQwep95tY9cH07F7r7NqF6ezN21yuM9adFZ8WQtmuZWOQeBVW6dVY6yvedwtcnuF/DMExFmViwvAIWJT+ZGYz63QRBeA+1or4/Gx1/GkTPy3WofLQEBcxwyLo1ho7prBWtz9uR3X4Eg/ubUfd4ORsRM+Mjc0mU0XsoSbOZbWv9FMNKvfPFsTBvUi20K5gV6HCGhQfwYPhDphgzFoqjpXGStMgz8vcs/AWDL2eL08CmYO/qcGZrmIpjsV2/MMiYCj3Sb5poxZr7SlCJTnQfYxao2FkFOQ5yYoxvOtBq84CjDjijeIh7vhxgHe0ycRllnOs0SNdXovm9U/hifyXmdhlRG8NrVf2DJjzz1bOoWa1c8tp/kt40wI0G9UiOhN6ufgywn7msb8Aek+Mgw+fEwJTvF2CpOtbLSpHDym91LA+YDAe6t3di7pOsffypDQ2PV6JUz8s8VawT6nEqT5eeGWJjeSD7lqjzHeNo5vF7+qNuK+aj1WDn4gADXyqZbn4MOdm4i41C54vFHWs+BzAcNgMhIr8LIuNWZmTIQfGSNIs/2YGhM9J1CP6xiClsx7tV6JxdgyP/5wja6itRaTSIbTM1RJnEqrOUkdJmw0CEc2wQ824UR/P90QrsrIfVClZiS6cu+5j4UGFELz/rcqBW7orEoVs1bIBR+XIPTn3Rg8rZnTDWKe2emLnEZwx4WIcQMfXPRnd/lFSiKr4ZZs2axaILrZATinVy0rP4G8NMeOODcIXjg+2tekjjuQA65BWzEX5XK9oHI1uip2cP2r1ZWHdPNEWuQWoBX0fyTr7XXZONXCMzOvZ2hnjcRyUpGwVVWlis/bAdYp3V2gexKlihxhpfzDDF+o18KqPLZYYdK4HWvQqzIF+ZsWevF1m/Zg1FDkLYdJl29Rr2eyZTr9pm4sIbT/VhXVVJqCGmyBTrgGFo7ipAqbcJtj/b0dfmROlDayKnQSfjtBO9/DPq+wUYTCZbyk2sZmhR8mYLSpWm5OPBO4IhJkLdrdrQkS4zGvfLLzdShwX7D4UvXbC2ytuIthwFWVN3nUl3FqCG+9S0KXjrX3Cg8zW+/FKA7LCovHt7YQtvLme6YdqFiToUcz69aLfYIjpOzx9MTBtM1obVo0nPZm3djjfejWwDbr6kKZ9LeDHyJc/AEmhD1p49sJtDp6tj01nKaHL1qIxWFgFkveJs26Wwy8MPR9ceWFSWvVrEQYR3AJ+GGVCew/vFKfdLZwgjISpFvdwViUW3hi8JaAuwZjX7VOvDNEOIyxhYnFnKKnUTdmzmDnB22PstMG24B9YLq+Q7VHBbFkqZ9m96pgLtVh6HHZZdRtxjvQhVsbA0tPyKdaTl+Sh+3gwbT8dhM5o25GP/7FLWmEPRGVvQ8SsP6ldmwviSfD9Ld/tWPfI39iP3zQ5UBvTIWTPK7ihDU49NTJeYv7oXWAOqhD53sgakgeGpDpSwDij/bmPQ720w76lF2dbwbZdJyFu7FRkH9qDxfdZZBRwHx4k1vhj4x4WicdP+WrsoC3OXTYrrFibXN0vgachH5oYmmA/z57Gy2VMB/coy9N/bgY5xR1IHmpbzPeuW8XR1Pl3PTImpR8h+7hwo7tFfj9rBJZg/1wd/xDqcX3Qg9P7A5CRe+/C3b7hTodLQSoF5BShhSrF7Zz1TSOodB8W0+byw22T5ps3HXNmZceLwMKVaK8rEzAzJ8neOoKNYwdTw2VA9Zw5qj6lMcwBtBvLuY115XRXq5XK38edtdWFhTMsEBmgcxdA/3Tle5/l7EfSsQy75XSUKoviGhJCUh5r/qIPuD2XIL5xor7aeJhjv5j4+dXinviBiRJ537wga84wwBe7n6V9VAVtmHX77kFw/Ys5nHnK9jcjZYJJ1D69zrA1vtSGr9rfYdOm2AHCTHtufy4LzpXwUBuk4riuqz2WHLWNqkZHLzF/rDlSN66FO1DI5uXRhWihGnaXIrDzUKZSF3cqeuTHwbg3WXqrfQd3NTI+t1KMi0D7FZ2UivwEsjhfVlb1K+BR9idaGigcC5c101PPFKPwyVf2ybxS4T4oWZrS+bhbjbT/AcxmD3BVRr1sdLZI/lFQPpPpZ/3bwm0avjfcMTL21UJExYci8QyjK5lsukoWU7I1Co214fMtIo0O+jRF9WwiLxd0t7Fi3XNqqk7Jc2LizTxj+Xt6WpGob2agw8HrVeDpuX7FFaLQMCWNR8zEqOH+/Q1i/4nbx/uTk24WVjzUK3SdDN6fwLW77nlgvrMzg97AjY6Ww/pl9gjN8y1U0Ro4Le54oEpbzbTLy7wuVniPiFFrvZvekvCAcj7YvTVV8Clt4AiiUC2f4j6wMxTymCMufCd3OM3pyn7CjdKW4pZT/VpSt2Rm2jWdEOL5zi1Aoy5+XYeFjrUKfZ4oNdqPytrGwY+P7oWkfeX9jxD3SkSI0npRvmgpnq5DDfpPy78dZrVXByUapPqo4bl+xXqh6pXfyesFknxKxhVQJhfL7dkBofSxQBrcLRU+wOjg6LG0DU9zGFcp42/t+WOjbuVGuP6ys11UJez4MT5DCFrswxjx9LD2F4/UwJbtIqHqdtdmILW6BvAyL9ajqAbm9sXq7ZWdvxJZk1fkU6zHfrsjbMWv3cvscb/fybQGUdE9kWLR8Mx1naRS2yLpCyusA1zgK+omFvrJlXF/c/kCVsI+1zWHxWeFbZWPVWcqMftYrNAaVhVgXxfQF8R0rd5au4PZZ9MQehfY5SdkrpCuaTo/Q569MyCskX4FyDN/WzJC2EYfHPSY4Xw/UX1Y/3hqSw2ORexRU6NYRO6sH98v54u3n/i1CK+vvJqQ4IvRuShFS7m8VnKqUzNXJT/h/sl1AENceLhPuyenGuhN/npj5+RHxvK1HmqsSX78cOXK+3PA3xS3amIEj52sQi9skQUwG1atrk7iWCQhiZuCH/UArnLE6Dk4bPrhddhjuirallSBmHp4vuQNoUqiPBzHjIWOAuHY5Z4O5xRu74+C04cbAXgPW3KnGvZkgZgLSX+fU6rPpL3NeY9AyAXHN4TrQjpHZSbDvqodp3m9xap/Cm/MSAJrOJaaFsxY09QBZv2Btq6MWtR9moet4BwzRdtgQMxKaGSCuPc40obioHrYba3Di1cQ0BAhi2mCG9ei7VdAXVqHTb0DH/95NhsA1CM0MEARBEESCQzMDBEEQBJHgkDFAEARBEAkOGQMEQRAEkeCQMUAQBEEQCQ4ZAwRBEASR4JAxQBAEQRAJDhkDBEEQBJHgkDFAEARBEAkOGQMEQRAEkeCQMUAQBEEQCQ4ZAwRBEASR4JAxQBAEQRAJDhkDBEEQBJHgkDFAEARBEAkOGQMEQRAEkeCQMUAQBEEQCQ4ZAwRBEASR4JAxQBAEQRAJDhkDBEEQBJHgkDFAEARBEAkOGQMEQRAEkeCQMUAQBEEQCQ4ZAwRBEASR4JAxQBAEQRAJDhkDBEEQBJHgkDFAEARBEAkOGQMEQRAEkeCQMUAQBEFcNXh6KlDc4oJfvo4Vv88X92+vTvxwtRhRfcgjX18efiIw5HOCIAiCUM85N+yfjcgX0fnpwmVYfLMGSfJ1NDw9ZSi0/QsOtpdAJ4fFgv+jety3yoFNn1pReosceMXxw/vJAIb+Ll9G5QbMT01HqlZJSh6YywvxnwUH0VEcj2SmhowBgiAIIi58/U3Y8nI/fH8fhn2Qj1y1SM1dgvnXSd+L/DCCoX43vLcY0PDablTeqZG/CMNlQn6RB9s/bkbBPDksJlwwrcxB7SBQ96fzqMmUg684bnRuqIbZB4x8Zofby6S0NA9L5stfB5BlqM2tRMurDTDcLIcHOGdD9R2N0HYfRM0vpjKr4oAbAwRBEAQRL2NHdwjJyclC8t2tglMOC2GkV6hKYd8nrxQaT47JgcEMC/seSBaK3hqWr2Nn+N31UhrYUfXHUTk0Dr4fE0Y9TuG4/Tg7nMLwqFJ642FY6P4fUvp2HFWOc+iNIikPKTuE49/JgUEMv8W+XxFFxpcI+QwQBEEQl8Tpz/ulk3vTsVg6C0VrwLqH+IkD9b/vBxskh+A/1o76w6Uo1cc5Bc5GzaadI8hKly5HLsThNeC1o31bMdKWF2LLK71wfeJix340bShE2rJiVO+xw/uDfG88+NwYsPITA5YtVh7Zp65+kH3L8Jpg7Q+XEqDTMxkNtqLzUOR3lwoZAwRBEMQl4IH7Q6d4Vn7Xsih+AT6MnpNPz4U7+HlhfdsE7+MlcS4P+GF/pQp/e+5lbF0qhXi8XulEJb5j9dCXWfHThzpw6tMj6Hq5DpWPV7KjAW0fHMGpj3dj3Swr1q+qhz2Qj1g57UQv/1xRgKybxJDYmZcHwyNetO/tZVKfXsgYIAiCIOJnfMSbh/TUKP4AcMMp3sPXy3XQSqcSZ/vRe2AyQ2IKXG+g/vMaPLs2HfNvlYKc38UwM3CmE2UvJqFufzNK0qOkP0mLLGMzDu5MQvPTFma+xI7ns37xd9o7l0R1jvSdtMPCT7SV0OcqpUWDjLsMwGEbHGfloGmCjAGCIAgifgIj3vQCLIviwe8fZJ2c2IMWoK4kSwwL4HMNsA5wMkNiMjzofL4Xa54rFTvYpNkZUrB3NGIpIhoOcxMynqtE1iw5YBKSMitRrW1Ft0sOUI0XjmN28WxdYC0jnK/M2LatkxkCeaj7jzrkRUmPdnE2MpjEBlzTu1RAxgBBEAQRNy6HPFKO5i9wwQHTU/VwIgvl+1sitvx5PuemRDp0/yhdx4LvkAmdv/wtNsn9q1Yrj7kjliKi4WXPz8CSW9XOSSRhScZ8DJyOcW7AP4RPD/ATBX8Bvw+unlroV5bBcVcDrCesqMmcJD26VGSzj97Pp3ehgIwBgiAIIk68cDskf4GSny/ERZ8PvsDhdcPe0wTj3flov1CKto/fQ/Pq8AlyL4b5XjvMxQ2xrhFcsKPxaWD7v2VNLC/8w/XS54fDkoFytXDKgW7xxIKy2+Zgzpyg48YFyNnoRtbLJ3CioxJ5IWsoCmjmisss3rMjqmc/1EDGAEEQBBEfPicGxBGvFq6uChg3GCeOR+thdWuxrvMLnPq4DaVLlZcBLl5k/61dGONLhvxwvV4PzzM1IU6H2n9aIp0wS+BqegvhuL/Acydw/vz5iOPrjw0Y3paDBcsrYPlK+k10tNCuYB+qZz/UQcYAQRAEER8BfwGUYvdBK6wfBB9daK4thSFdG59j4GSc6cYL7+Zh071JEzMR/BgNdI9DGLlqpgaC/AV+qbiQAs3SUjxbmyc6MxofbodbDlcmCTfE414xBWQMEARBEHEx7i/wSDZSxZBYYZ13zHv3vbDsbIJnvgPNZUEzEfzYZZF3KlzExUt5J8B0Mu4vUILspdHNIt3Pc6WTwX64pnmngBrIGCAIgiDiYOL9Aoa7MhDfYJV1jsGvLlaB/1grame34EjETAQ7OuogdakWDP+XeHLlCfgLrMhDxiT+AJ4vJVkC86GZLZ8q4sfY9L9ziIwBgiAIIg7G3y+QgezFU3m9Red67vN3YFjdS3T8DpjqPHi2qkDZ+NDOh+w1AP9VMjMQmD2Z7P0C3LCym8U3DED7uB6KrxgYxwvvUfYxb+o//BQLZAwQBEEQMeM/aUc7P9EakB1l6/zUaLEwlRsSoxhT4Q3n6tiBvl9vR4mKN/i5z14NTgMTuy2ivl+AjfQdL5Wh4jA7zazDO0/lTd7J+0ZF4yLj1vlxzsYoQ8YAQRAEoRq/6KznRf9RabMcsrTQiGHx+bbrlq5h/7vgiTat7+dxs5HzLiPWP+3AEq0Gvgvyd0GI6WK9ZBL3tGf4znlFp8IrMkPwg19yaDzdJ75dkb9sSTfvohQWdHhP22DakIn8Bge0qxtw4v2aqV9+5HFjgH3kLlV2RowXMgYIgiAIdXzShLQFC7BgwSIU75JH3tYKZPKw5SbWpceOJjWddZV2uNxKC+E+2Hbw56VBX2cRlxI6N6ZhwRNhrwT2WrCFp2FRPmr5FDrDXpPDfrcAabviSdWl4IVl843is8WtgmKYDdU5PB+hx6L7a2GbZUDbwS9wan8lor0NORjv6QE4UYrs9Ondo/ET/qcL5XOCIAiC+JHxoLMoDRVLrfimfoop8mnHD89HpzH3znT1U+5fOWD/IR15t/y4KZVgxtG2BSj2d+HrVw3TukxAxgBBEARxRfFZK7BgPdD1f9tgiOsvFyYI5yyo+OcqaA+eQl3u9BojtExAEARBXFE0+nI0ZHai0zrdf5j32sJjZTK6rw6l02wIcMgYIAiCIK4w6djUXIfRBhNs5+QgIpRzNpgagLYm6S80Tje0TEAQBEFcFXh6ylBo+xccbC+5LB3ezMUDc3kh/rPgIDqKL49kaGaAIAiCuCrQFXfgYIEdVS2uaf0jPDMbP1wttRhYe/kMAQ7NDBAEQRBEgkMzAwRBEASR4JAxQBAEQRAJDhkDBEEQBJHgkDFAEARBEAkOGQMEQRAEkeCQMUAQBEEQCQ3w/wHwu1yLc6Q1nwAAAABJRU5ErkJggg==;" vertex="1" parent="1">
          <mxGeometry x="840" y="805" width="199" height="34" as="geometry" />
        </mxCell>
        <mxCell id="Lc4qGxHdZDB4FoPavioG-19" value="Probabilidad total" style="rounded=1;whiteSpace=wrap;html=1;" vertex="1" parent="1">
          <mxGeometry x="150" y="870" width="130" height="60" as="geometry" />
        </mxCell>
        <mxCell id="Lc4qGxHdZDB4FoPavioG-20" value="La probabilidad total se utiliza para calcular la probabilidad de un evento considerando todos los posibles resultados de un evento intermedio o relacionado. Esta se utiliza cuando se conoce la probabilidad condicional de un evento dado varios escenarios posibles." style="text;html=1;align=center;verticalAlign=middle;whiteSpace=wrap;rounded=0;" vertex="1" parent="1">
          <mxGeometry x="280" y="900" width="590" height="30" as="geometry" />
        </mxCell>
        <mxCell id="Lc4qGxHdZDB4FoPavioG-21" value="" style="shape=image;verticalLabelPosition=bottom;labelBackgroundColor=default;verticalAlign=top;aspect=fixed;imageAspect=0;image=data:image/png,iVBORw0KGgoAAAANSUhEUgAAAysAAABUCAYAAACCy6jVAAAAAXNSR0IArs4c6QAAAARnQU1BAACxjwv8YQUAAAAJcEhZcwAADsMAAA7DAcdvqGQAACxRSURBVHhe7Z0LcBTXuef/2UsVctlC3HXKQyWbDIsFIg5IOIskP4imjLCI19JwsRCOL1pBECgJkvBDgjgC5YGMgyXwGgkcIyA2srIOGtlEI9a+Eg5mdF12NLrX9ozLXg0uKA0xtzQuU9F4oTSU2eo93X1mNI+emZ6HZtry96tqqftMT88533ce33f6PL4hMEAQBEEQBEEQBKEx/hP/TxAEQRAEQRAEoSnIWSEIgiAIgiAIQpOQs0IQBEEQBEEQhCYhZ4UgCIIgCIIgCE1CzgpBEARBEARBEJqEnBWCIAiCIAiCIDQJOSsEQRAEQRAEQWgSTTkr7nc7UH3XQsyZMwfVp1w8NBDPSBtWLayG6RIP0CwumDbOwZxnrPx6enH1VjK5VcJ0mQckAfmZbUhNCqaX6UlLrDq2o7N0IZZuM7NverGijeX3yt6pEPeZRixdWIaO9z08JDLToXsR6zMsbV85/ae23BEEQRAEMb1Ed1Yum1AZZExNC/YOlK/eBWdRM3pPd2PNrTzcn2sWtPzzAFb/r8Oo+C4PI4ivCsz3uM5PI+HxqHNSCIIgCIIgZjqaebNiP9MOq64ZT7dWoaTICGORjn/ixQnT43UY/91x7MjP4GEE8RUiIxf1pz/Bh88bEZy7/dGVHcKHn/Sj/s6vSj53w3qsEesO2/l1AlwcxK5tjTAn+S0RQRAEQRBfTTTirLgxftkF3DMfeh4Sih4VnR/i+LrwdxAEkQ48cP5rJwavJuGN0BUbOrrHVb2BIgiCIAhi5qMRZ8UD9xV+ShAEQRAEQRAEwUies3LDBcuRRlQWL4U4QX7OwnysazbBcY1/HgZ5cvBCVJ9iF6eqsVD8btBkYffHZrRtK0P+QvGzOVh4VxnqnjGHPnukTf7uJTesB6vl+zea5MnM3s8ue+Do3YV10kT+hcjf3Am7W7zBP3wOlpbvgul8UE8xn7/TNsKv/VA9gTtOOfng3/fGc+Fd1Wg74xSnQyhzzQHzM3VYtUyW3dLiOrT1O8LfH42E4u83mfyKFZ1PrOM6XYpV29pgDpZ3JH1KuOHob0NdaT7PN0yfpdHSx/QsfofHf+Fd69B4xMqeFESs6QyQM4vHw43ofDf4qSonf/vyKr/2EqPuXUOdaNy4Cku9snlYIU+LuIPySHkjut4PkYgiAeV37yrp++IRWEbU6EnOG3OKW9i5GdXfk58ToO9Ey44iLG8FyFQ5P3jOB9ZBYjnqGPHe5YK5ZiEWlnbAHj7jEQRBEAQRB0lzVqwHFqLs9+PI+/kB9J/uR++vDZhgBmbp4/4rH4WSdfdOdn83dqxkFyt3oJt9t//0ThTxCfbOU3VYcVcluq4VYefz4mf9OPATPZzHKpFvZM6BgqEy/FwtBu54GiOffIEvTlQEzA8Y7W7Ern/PQU3rMfQ+vx7z/rURK7abYO2txTrTXFSx8P5XD2H1RAeqH9yNwSS/8YlXTjJOmLatQNl+B+b9RP7+sV2FcB4sRfXvnfweP64xA9CYj8pBYH2LLLu9xgl0bchHaZzzCxKLP2diCG0bW2DPqcL+4yxef6zHYkcLKh+sVVzlTVmfTpiZLPI3dGHihztxmMWl//QBbF3gRKeYPuYQhNqNHjiZnit7AcOTh9j9vXj6AaBvxyqUB90fUzpviPOpKtEDA3a2s3i8+jSM6EPj6nJmtCfLeo1R98zhEY3n8Tt+igOibF5thuFzMU/XBs4HEfPIQyyPvDKB1bt7peceeESHwZ+Uo4nlm2gElN9N+6Xvi4dxgfy5ej3lwCh+9mwVOzdgxwn5Of2PFSFL+jxJeS8AJtOa5Vi1fwx5jYelZx6uy4Fj/yosf2JwymGxd6B0eQOGsiqwV8yvLL31eeNwOMkzIQiCIIhpR4jGpz3ChsxMYYNpnAcoY3vthDB6lV9wRo+WCpmZG4QeJw8Iy7jQU5UpZFb1sDM/+G8X7xsWJnmQD2ePsDk7U1jxnI0HMKyt7PeCwrzwz7J3nwt41rhpgxSeubJVGPaPv61dWMHCG16f4AEMHp9WK7/2Q34Oewa/9qWJxd2fROQk/0Yx+/0gaXxpE9pXst8Sn/EpD2OpHN63Qsi8d09guhhjr4jPaRAG/JKmRGiaEtXzsNAqylrp3qvnhCamz8zHBwRftCLoM6wsGGOmzUJ25gqh3e9rXj2veCo0L429WC4968hHPIChLp1cx+y39rwT8lThxEPss5VHhFEe4rs/IE/IMgkoX1K6/XUZIb2Kume81yeccATd6zgilIq/9coYD+B5JHtzqD7G+4QGUR9B+ldGOa+LxKonpbR7iUknCnEJRo6b/3dlJt/Zw8r+VLxs+7PZfawcyZdTfMn/EwRBEAQxbSTtzUru2irk3MwvODl5ReyvGWPxdXvCeaaLfbsK27cUIGRdpO9W4KdbdLAdGkDwO4KSglx+FkrVfzcEPEv3gxIY2H/D/1iPAv/45xaihP0bvqjQa50A8cvJiaFTZqByO2qCV0OblQvjViO/4HiG0bfXBsOWqsB0MfT3rIERnbCd5wExkBQ9P7oVZcFLT99swMOP5QHHhuHgQV5C9enEQHcYWTD0636KGp0N7WeCc4YBWx8JzUv6tTWogRVD9ildx5TOlVtRdXfIU7FmSw0wMgR7wnsCxah7kTuNqFoUdO+iZZBS4PQmwI4Blkfy6h4NXQpcZ8T6Tfw8buLVkzLJrWN43BTyYsbdq1nZt2H4vPzQLB3Ll7DAEjysbxb/TxAEQRDEtJHECfYeuOxmdB3swK5tZSj7p1VYKo0/jx+Xy8IMwQLkKe25wtDfXshuGg0yVIxY/G1+GgL7LNgom32TNMwk65ZQY0oMsV1N9lCPeOXkwlg/M7cL8nzDYvzJCDacrnzGzDFmYm3n4/v9jyXVzLxjafMZrbGQuJ6N358f6nwydDpxpTcHnAFzNZT06YLrbHhZiI7C/HvYXY6xoOFBBVjsG57kR9ZcaWjZlBEvEkM68xcrrmKX9U3pqXEY0sHEqHuO57Id5u4OdDTXsfiXYdWyVQhIwWWn5BgW5S6Sr4NJ2BiPV0/hSGYdI8cNB8twW3D5mLMKbewj8wXZedWv/RX2r3WhZfV3pPk8nWcccN+QPiIIgiAIYppJjrMijnsvXYqF5S3M4JvAvLwq1D/RjOPP1/AbUsw/8P9aIwlyylKy8iNQ1cbH/iscO+9WNiHDkiw9z4qUiHnMceSnXpKmz8jCy/M6rLGmM6JRn4eM2fw0QdTr3gPrgTIs/V45WvqdmPhmLqpqG9F89BCUUpCREWOmSgfTVMcUNBxXLBvSsTZHvunmXNSc+BB/e7sbNfoxdJTn4zvL62BO+I0ZQRAEQRDRSIqz4nqjHS1DhTj+lxH0PtuM+p9WoKTIgILbYzSGg9DpDMBZK2xhJrk7LwwDucswP9IOe9PA6Keh/cBSXKKQmJwyxD0FYf5ojJmioXiuBg1RuSWLmf0sXrPnw8B+Q+nI/XZsRmqy9DzMe6wD8WDUZmb61GNe1MfpoFsJWKy20FW8JJwYe4e5CXnzgzZftAW9teFcHMUQ+1e4QH4/EnM6P3YqvhlwfiQ9FTkJbw0Uo+4v96P9txYUdr6JkZP70fxoDSruZzrPXxz4hoPnEatDWR+TV/lp3MSrp1CSX8fIMrXeuA2FvDyEHIsCn52Va0T9s7348JNe1N/Shcpm/5XpCIIgCIKYDpLjrDhFQz0H+oAhVh5YXu/i5/GhL2IGCbrQfkxhZadLJhw55kLBI8zo5kHTzq23ScN9ht4bDYzPNQv6WFyikZicclFYxky6g0fRH9yj6x5E514Lv+BkFaKokhmKx7oUV0yLh2Tp2XWsD4PB1uvFHnQchEp96mFYVwJ0t6NTYbUtZ+8RdLoKsP6HwU8y4+QbwTNiWPxfbIFFV4OSAtk4jTmdp06iL3j+D8sTok50W0pQGK897SNG3X82BikF+kAvyfNWHytNfmTloXBtmDxyvkvSR0xcGA8y3uPV0zDGPuOnnOTXMbkwVOQpyzSY4CFfuhKseYD9D0kvQRAEQRDJRrWz4nYMwzJkCTrscDEbZFF+FXRoQ9O2TpilcDM6Nv4Q/ddW82/HyYIqHPhDBZx7VyF/YxtMZ+TfNR+pQ1lxNYbuO47jtSlzVYCMQjz86wK4Dm5BxS+7MCimtb8TdcYO4McKk5yDSFROBZUHUKEzo7p4HVp6ByVZDPa2oXL1SczdFPz7WTA+eRwVrjasurcSbfx+y9AgTEd2oXp77Mu9JkvPhvvG0WqoREe/rM/B7l0oW12HwfxmPL1JnT71TBbHf+xES3E+Kp8xybpg8encXoZVm4dQ9IfjqA95lBFZ1nUo8+pOin8+yphRXvG7epTwuVExp3NtFobXl2FXN5dxfwcq7y1DByrw9GMlYeZrxEZMuv9eAaqYb9O2uw6dXMbmg5X4Yf91BKZAh7LHmlFgZ3nE6HevWL6ecKPwZ/y2qOigv4P94J+YU9LLnnGGye19+ZOY9fSt+UxLLnT+vlO618RkKubT6ahjcrccQHO+KNMy1B0xS2mX0t/dgsbyDt+eSdYDS7HuCe/vyvm15SWgZIuRO9a0zwpBEARBTBt8VbDw8OV6peV9Qw7vEqOTwqipSSgvFJf4zBSyCzcLrYNjvqVnlZb6DYQvNxq8dDFn4r0TQlNVsbCE/+6SlbVCq8k2tcStlwjLnob9LOzSzHyZ3ZAlUCeE4edqheI8HpeHmoQexyRfBjXa0sWJyonx+bBw5PFyYbm0rOwSofjnrUKf7/cV0jd+zu9+duQVC6XsOz3vRVm3mBGapkTj712md0zSacNDS3xxqt3XF7IsbUR9SkwItpebhA0r+XO4PJTS5kvLl2PCwL7NXB7ZwvL1DcKRd4LvV5tOPx07B4TWnywXssV4ZC8Xyh8/Igx/zm/zoZQn1C1dLBGD7icdPULT+qn4bN43IIx9qZynJx19QuvPefnyi/vwPvF31CxdzLhqE454059XLpzwWwY6Fj2JjL3OZC+VL6af3d6lrOPQiRomRoW+fVPlWUx/aRXLE+zZ3sWWxy2tQu2DPG1inB6sFdr9Phd/s29rtpD9YLtgC12hmSAIgiCIBPiG+If7LQQxzVjRNmcVbH/4BN3ros1SIAiCIAiCIL7uJHHpYoIgCIIgCIIgiORBzgpBEARBEARBEJqEnBWCIAiCIAiCIDQJOSsEQRAEQRAEQWgSmmBPEARBEARBEIQmoTcrBEEQBEEQBEFoEnJWCIIgCIIgCILQJOSsEARBEARBEAShSchZIQiCIAiCIAhCk5CzQhAEQRAEQRCEJiFnhSAIgiAIgiAITULOCkEQBEEQBEEQmoScFYIgCIIgCIIgNAk5KwRBEARBEARBaBJyVgiCIAiCIAiC0CTkrBAEQRAEQRAEoUnIWSEIgiAIgiAIQpOQs0IQBEEQBEEQhCYhZ4UgCIIgCIIgCE1CzgpBEARBEARBEJqEnBWCIAiCIAiCIDQJOSsEQRAEQRAEQWgSclYIgiAIgiAIgtAk5KwQBEEQBEEQBKFJyFkhCIIgCIIgCEKTkLNCEARBEARBEIQmIWeFIAiCIAiCIAhNQs4KQRAEQRAEQRCahJwVgiAIgiAIgiA0CTkrBEEQBEEQBEFoEnJWCIIgCIIgCILQJOSsEARBEARBEAShSchZmaE4e+uw7oAdHn4dEzc8cLvDfPOyGXUbO2C/xq+/piQkX4bH7Y7vuy4m/21muPil9vDAfqASjW84+XV6cL/bhnXplJPHjraNjRi8xK+/TritaCuvg/kyv44VjxvueOuX9zuQz8qlZtFC/XnDCdO2dWh7P97aK3Fcp+pQeTj++pPQPmlrI1mtb97G6h/tNpIyGrGlEtVTcohuN3xDYPBzIl1cccDy0Ti/CM8/zl+GRd/NQga/Doeztxqlgz/C6c4K6HmYejyw7r0fq0a24sM/Vyl+3zPShtIngafNO1BwMw/UMtecsP77GCb5ZThumrcYuQt0yJjFA8KQmHyZ/N5twf2rrdj6QT+qFvBAtVw2obIJOHCiAjoeFAvu8xZ8ED2rqc5ryjBjqKYU/1JyGsfXqZBQkvWjJn+mRA6XTKg2/gt+ZD6Oiu/yMA3i/pjJ4nN+EZZ/xPy8RdBnRZHENeaoGFkG3XcaO/LjkRrLOxuXovq7/fisxRC73Jnu55w14ItfFPCAGPC4YLeO4u/8Miw3zcPiO3Kgi7Pui7X+TKp+1JTNlMiBtTPPlKIJT+M001Vc5YtIHjOpjWTOimljAytg3aj4Ng+KgdS0kTKx1gUptxVTVCfKRK6byFnRAO6hNtQ+OwT3/x2DZUT0LHXIKVqMef4Vwo1xjA454FpgxN7fH0b93Vn8gyDsHVhV7sTOv+5Hya08LBbE76/YBSua8eYXrADx4GDsh1eh3LYdb3ca4zKaU8pFE+qe6ILTK0MWpM83YH6m/LHMJMbOWuHUGVD/u/1oXpejXNATlS/s6ChegV0jQPNfvmAGHQ9WS0LOihuDv61Ex/sstWMWWC+yoAUFMMy/Sf7Yi19e2//iYdTcGSavReLKIBrvaoWuhxmtd0apMpOpH/67+lffRH0uDwshdXJwv9GI5ft1ePV/70BuIq3atOGG5Zla7H/XPSULXQ4M358nf+xlfBSWj13Qr92L48/Wo0Ax7zO5PrEcrbe/ijdrwwo/IpK8Hu6Ea+1xfBJPHk/EWfm4i5UtE9y+fKhQDzNkOelgqD2AQy1G6KMYbkqorz+TqR/+uxd24t+eLUHY3JwyOYh1YTk+qHsbx9dqvhWZ2cykNpLFPn5nJYVtJCcWWyrltmIK60SJSHaD6KwQ2mDybJOQmZkpZN7bLth4WADjfUJDNvs8s1hofW+SB/ozJpx4KFMof3GMX8fKmNBTJT5fPBqEgQkerMTVc0JTdrbQ8HqkmzTGhRNCaaS0TdiEdia/zMxsYfNr4zzQn0Tly57wygYu38z4ZPdpj7ChqkdQil0sDD8lx6E0TFomBpuEbCme5cKJCzwwRsZeLBcyV4bJy0okrJ9J4dzubCF79zl2po7pl4OcZ4oPqZZCmhBlJ8tiRZi4jr/WIMtiZatgUxCwWH9lZzcJ567ygFi5OizsuVeOQ9g6MBrWViFz3zC/iBMnK2OSzllalDLSl6PCESkfZsaU1wKIuf5MXD9i+SqPJR+nQA5ynmHl/XMeQKSXmdBGstaxp2qD0PMpv4yTVLSREnHYUim3FVNRJ3LC2Q00Z0VDnP94SD65LxeL5LNAdEas3ySeWNHyMvOupcApPG91ouVMFarK4nnxKvZqdmDPpwXIk67G4b4qnShzswEP181D5/4uaHiEeABuhx0W8WRlLnKUOhuycmGsMLITF0wHekLSlah8xV6Djn3jKOCdzuPX0jVK1I7hN8T/OhR9XzktWfevQY10Noijb8SnYX0Zk9VIO7reCM6pyiSqH1zsQcfBedheoXb4UCrkoMeaTVWwPteFwSs8KCGmazz2edjfks+K7lCsfaBbux5V4slIC7reCtapEz2HOjCv7mEY4hwKYH+pCZbZ/I2I3ZO2MdTuj4ZhFk/WLsNipYw0KwdrHhHzIdPGwX4MqcvegcRcfyaqHw8sL7ZgsLIKa1QOq0mFHDLuexjbdZ1o/VN8dUwIWp+zlCymKZ3URnpJTRspEYctlWpbMSV1Iiec3UDOimZwwvGOTTqruWdZGGPLjQmvwXMlePKZC/0vdcD1aEV8r16vWdD6y79j7/7tPPM7MR7FuMq9bz3yWKbqG0rv1Cy1ON7rlP7n3b8s7Dha9xU+wSvEWEpQvqKx8FwD/v7rZ7H9DjnE6UrTDMDLDgxLteJ6FCyVQqaHWw0wbnGh81gfy03RSUw/rFo2MWNs5VYY1Y5ASpEcsoqMqHF1ojNJiw5cvzaB6zf4RbK45JVFDQw/COPquSd8jV6IETHSwxo/A7aWxTf8Cxe7sOe11Xj216uZeSDiwkQCDV4iOOx90n/DfQU8LtNDTPVnovq53I+jB12or4gw/CuI1MghF4ZH8pgz3weLCjFE5YYHDnbMeKYpndRGclLVRnJis6VSbyumqk6UCGM3kLOiFdyscPSLJwbkKnZpiDhgk+5hjvMd+sBMc3kIfaciZd7I2F9qgeOxX8F45zwslkJs8FyXTsKTWwijzoWud6VSrXG8PSXheybFQuywypUA1s4PrKwTlC/sR9Hy8Q78am0u5t0uB9mupqdR9Zz/IHIviYid96SgBFsfiNMAZWZR3j1G4MwgrFFXhkpQP7DCcswVsZENJmVyyMpD4Vpg8IyVpUCb+HrOwvWoipy3QW6ydMjTBzZZ1rOdcOWWYFnMk2FF3Bg81Iac3fXIvX0+CqWwKG92pw0nRt8VtRS+R1WM7/BZOVfoHi1DkVrrP5gY6s9E9eN6t499P4KjE0Lq5JBbYITO1QXrhzyASBPURnpJXRvJicWWSrmtmMI6UULZbiBnRSt4G5oIDb5nxMKHf5SguSJwAqlbKjiRMm8EpF7NNfjVJjEjZiCDlzvX59G6NnOQV8bu6x9W/foybfh6SiI02LwQi4WyflNZQAFPSL6ssHf9tg9rfi2vrpZxizzQDq6pntBUYrf2SP/D9pKIKzo9vou5q3pUnTgQx2osU+gWFSKPSW7YHiWlCepHajhY2QjfyIaSOjnokFPAdH5qGLY0vS2IhrfnLLyz52EOCV8K+v5mrA+Y9MqMnH72SbghCVHwvNWKBhzAzvuY3m/Jgjx1PPqb3WnhshWDZ8WT8D2qzt4n0NDNtFrUjD8+GceKZT7U15+J6ccN2zvMkIjk6ASTSjksysMaFnOzVfOtyMyG2kgfqWwjZWKwpVJtK6a0TpRRshvIWdEIditvaMI1+KxwdDzZwgpHAWpOhhYO58di9s2F/lvytXrEXs0u5D21lX1bROfr1Yg+XpQZFrezSsX+AcakyGsXuYAywjbYTph+28Tu0aHkd6+iWTSc/Ihfvuy33+hA1w+exlbuBOp03NwIeT2bCiL0ktzwwDnUgcp7V6Hzpnoc/+vbOLRW2TRSjT5H6inv+zjyEKhE9eO68AErGwbk6NVWk6mVg36BJAXYxNVlNAd3NhjhnD3PSAea9tqA/Br0/s+gJc1dY/iAtbCG2+fH0UjZcfQpJ371GB+elDWXaURExZvdaSBSj6rnih2mX5Zh1WYrClv68fafVS43Gha19WeC+mF5XeplXRrUwxqBlMohax70rG602cbkNpBIC9RGeklxGymh3pZKta2Y2jqRo2A3kLOiCaZerVZ8fz6uu91wew+XA5beNrlwXKvCob++iv0PBBcOF8YcYvadi5titBbkXs2d2H731Bdnz5b/DzujNx1ypXIeKm6VEZfC+6cylMV5VL7k4A+KDW/PZM7desz1l6/bCXt/J+pKV6HamofmV99Gb21ukNEVv3zluUDAzp/57SXwD1zA76Shcfb1krjQUjwHc+b4Hf/5Niwt7cLcn7+JN3v3ouIOlT0vkeDGp+vyeMQessT0w55/UZxwmIWbuGijkmI5ZH1TkgJc4xp8teLrUa3AMv11P9m74TpvgemZSuQXd8K96RBGXtuPkuA9Y/7DAUn6t8RaOFjD+dIe9D20028fGvYMblGPfpry0uHrUcWpaiz0zxPsuO2/rkD1xQIcePttdD9qgC7e5Tn9UFV/Jqof5kyOis+/5SbVzmRq5cA7yJhhknqNE16ojeSkuo3kqLOlUm8rprpOlFCwG8hZ0QJuG4b5q1V7dx0qN1ZOHT9tQb9Dh/Vdn+DDvx5CVZjCcV3shQwZxx8Fjx0dYq9mg/+ky6k3Ky4VE/iybhV/MYZe0DuqcOxEN7rjPI5V5vAHxcJUz6RncH+gfDfWodMKGHaext/+rRc77lfue4xLvvDA/kILnLt3BExk0/0XeVaQWAunutfI10vy42588sUX+CL4+GQvdD2rsHRpGdpGIsTuikvl63kddCvZv4g9ZInrx3ND/H4e9CrX1U+WHDwulzod3qqDgf1L3+o24fH1qOrs6HrCX/aV2LK3H6PfXo8//p8PMdJepdzjekPKyiHzJKJy2Yw9Lxfi6WrenSqhw/x75LPr/0/+nzqmelSbLQp54ou/YeSBMTSs+A6WbjOzuxW4xgy7ITucbnV6VlN/Jq6f6xAfb7xdbe2VuBw8VxywjjjgUiWHLNwmOlhpXAEuBJcdFqZHl4qFLMRNOy12uf6KjBvOEQusl7RXB1AbOUXS2sgYUWVLpdxWTEKdGBcKdgNfwphIJ9ZWvl73HiG+HQLEdcXZ92Pcf0Ncz3r5U+eEiYmJgGPgN/J62Zlb+6I/T9zXgN3bauXXWkTcm0SS7wahx8nDYiI++Ur7Gvy3PcK5zwPlOzG4R5Zv5mahL6YHMhLcZ2V4X7b02+HWjhfxreEu7n/gv/T71Qlh3DEs9L1QK5Rmq13HXoXsEtaPmC7x+62qy08icphkOhyzDQg9+zYIS9T+Jk/jBpMKzV0dE4Yt54RzikefsGdNqbDnNaXP5GPYGdsq915ZZD4V5/4kcdUB8p44m18eDSwbE6PCiX8WdZkpZO+PY6eVRPZZ8eXDMHsJSIwJJ9bI8St+YZSHiUwKw8/VCg3P9Qh9pnah9sFsYUnVEcEWbc8ZFbJLWD+x5D2RhOQwJvQ9Xis0vdwn9L3cJGzIyxZKnxxgoZGJpfxOfKSc76XjaK2QWX9E+TPpYPmNPycsk+eEPdIeFSwP/ibKnhG2dmGFJKtsYY8lcrkbfaFYemZIvRqGaU+nPwnXwRpqI6W4xL/PSkJtZCKoqUfZPSm1FROqCxIhNJ70ZkUD+MYgbilEPO8NpL6HWJcyFXs1n3Ni3khwL0olOt7gPSeSC/7Vx9czmcvkGzxEQhVxyJdp1LyvDc55VuyvDpRv5UFx1K/I9eQvQRsRv7G4eeH7VTIWLYO0YrqrE7bzUpCEc6gLA45JzL9VB4vcCZcUEtcPIyY5JiIHN+z9J2F1zcVtc8UnfdWZ6lGt+UF8tY84jjtWPO93oKVfj896GwPLxsZGdH0k36PmzW4ymepRLQy/AhD0WHy3fGZ9xy7X2wz3md1omVWD/Y9WwLiuHodOHoPxnUaUNw+qfAMZjiToJ8Y3VInIwXGkGkP37cXeSiOMlXvR/VozZh9eh+rDUacNa5OMKEPnZs2G2pGnGTezCkOjUBvpJbE2crpJta2YSF2QdLjTQqSNMaGH9ySq7vkKIdZeDbFXc0nYHVPHX9ssxUdNT5e3hyGWXlWxZzqgFyWGY/JL/pAY8O5Emx33ztax9xqJclny+IBy79Z4n7BZkm8cb6TEno5Ye6+8qOolYbzj7dVaIbQrdW5LPUBqe654r0uEOCeun9h6ZpMlh3GTuNOyyt/kO0PHX8a9JNZrGIJvZ+IEnqmmRzAAcffkYuW8xbDt528S4snnYlzizEdqelT96+tMv/It579sofU9HiDVsWJY5J7XqPVnMvTD87vavBe/HHg9GdAbzst/uJ22JbyyUlmWIpGA/gMYt6l+OzFxYVg4Z1Mj2wlhzHpOUHVrNJKVTs6MaiMTqSOT1UbGQXRbKvW2YiJ1YmKE2g30ZiXd+NbMzkPhohjHfPshTYo/Naaqp1dcOWb3pV9hxwPKYxp940WnRguGRd4gKg8ZaruXPu7CFv8elBiPLd2xTrC3+9aOX5MbZ88kIxb5wmNFR3PwXCA/dN69bNitKew18vWeRVo7nunc8nqXfHp/DBsshsUFlzhZ8dasMD2UydFPxiyx7NjgjLqfS5rkcMUl7Qw97+aI/bQpx7d/h9ijqnK+TwizxH5IJn2Vq2y4enfhaMHUyj/B6PTyTitiD2Dq3q1432AorADkz0ULTkr1tQ71ZUW+8p37wHHs+EUzVvuW58lQNYE1Wv2ZHP3Ivf/mC2pqr0TkwL5TvRc7WqqQ59eU3RR1dSA3PrvE/uVmRH6LkUp0uTAU5SjX30FkLSiAIVdN250Ffb4Bqm5NKdRGekm0bfBcssDcb4GTv0512Qdh6jZhUMWcpqi2VMptxcTqRLFcO/rNMHvT7nbC2t+Frn6rTz7hCbUbyFlJM573LJD2jNUZURi3QaTD/Bwx805gMmrrbsfRJwewvqGCfSsajqjGn8slZnnWkEbIywHcUYXuP/ejP86je1OMlenFD1hFIZ6I8lXT9CgRi3yZhI83YeCRnahQYVw4LkevxJKFd7WXSLvQOntrseUgi5OuAsdDlkCNA/eE9Fo47/Z5yo1SUvTDorugiP11Y1LFyMV0yMH9uSQF6L8dfxqTjwcfvCPvWK0rK+RLl8fBt3IgSf+qisJxZRBtT81D8xa/lX/C0Z/ClYB8K25F2LFa3Fthax0G2WnBrj8GLN2akVuB5l1VyPUZ5rIBqNtSgsIIKo9cfyZJP7r5WCxm9KuT0Z2/BOWgK6pH86OGqfJyxQYLM2QKHmFGOg8KxYXxC+xfQU7i9Q0RO9RG+kiobRDrNhOQc92EpZtb0PFMG4ZYnV9y/20Y3rYCLVF2p49mS6XcVkywLrAfaYU9Zx4cLO2NBzqw66UxVj+sQaG7ncmnK7KzpGA3kLOSJjzScnMuDJ3ly8IV6JAlhako6Qro71jD/trh/A/5Ohjp95jX37FxA3aNLMa8uW6FHguPtASe60aGtHKRaPz9/bNIcXKzRsYW22ZjqeKaGG837GfNUo+2uOlS1i3TJ18mYPZsJywHK7Hhl1ZmHGTBfY1/5oekB1YKM8SVLhhucVUtFjZ9vUeyTt0uCwb42Pdc3Vw5zP+4ZEWXtF66Ca78GnT/5bjfcrIJ4GQVHvsXsj9EkvWju30ZaxYscDjDfT+9cnBelKSAXOVtMlKMVxZDGPyTHFIo5lcxLB7xM2N4GWs8LRfGwhrDYr532U3YtbEWnfP1mHtDYXW4G3K8PPCO7WdGrEvUS3x5QhU8HzreEnd4Zzygxz9el8OmDhccZ+S9FVpGxD0m3sarv4jsbDn/1Ipds2tw2Lt/jCLh6s8k64eZU+KGc/gwwtLA0yIHD6wvtGHggb14dlME68o9Diczigy56t5kEEmC2khOctoG11sW6NcaWO01wcQwhnmP7EBFLrPrdIux+HZWdpgtFZ7wtlSqbcXk1AVWDIyXoExs71wufHCjUO7EyMpCTk4ecMYVuSNKyW7gw8GIVPKed0UHhSO7NcLY3giIq2qw7yvOQ5kYEBqCf4cdm18LHLU4NVcl+PAfi+3PsNCanSmseC5JgzaThd9419AjntVFGJHkK0wIA48r/FbwamoR4qV65aMY56z4xv9HPZYIxVUNQrvZJkxEmxcUw5wVeV5HrdD3OQ8QmQ798BV8VhxSluN0yEH9nBU+TvjnfUkYz5vAeGxOJFnEtQKXOOfgN+yZ4eYl+FZM8j9C65Tw8YohT8Qylj9iPgw8sgtLhdrdJ4Rzn0Ze8UlkksWheKW4whEPCIty/Zl8/QjC2Mvl7Pth5s9MkxzGTJuFJVtPCKMqVkTLTtbY/yTP5dAsiaZzJreRMdaRSWsbroplQp5/FTD3h7VNTez7TWcjlZkwtlSqbcWk1QWTwqQYLM3VDNTF2IulQuaaE0KkWTBKdgM5KzMGcdIqy0S7oyy1mEwkIyR5E8y0TRrkq0SMzsq0IDaUqpwV3kAlxUiPBjeYo1SCyUS1s8I7C2rNyZBC4s7KdDBp2cMa1VLhxAUekC7Sbaw6e4TaKua0eQ101mKHrS9SWX9yAyWywZQ8RIdtww6/JYslQ04Z26EVUSbgxwA5K2lEI21kWutI2ekIcASYrrKjTdhPqS2VOj1JbWRA2ZY77iJP2Fe2G2gY2IxBjzWbqoCDJgxe4UHTjP2tHtiSMgn7q0Dq5fuV54oF5mM67PhxpKEwySIDhrXbkXf2KMzSOFvt4B4yo1O3AxX3J0cKs2+ei9nJ2ik4SWQUrcH2XAuO9mtM+KlEHL/9+0nUP1/vm7tiPdCGcBJJaf25YA2qKoEOU6JLKavgkgktgwU43FrCx/M7YdrfH2aMuh2WV2wo+Zkx/jk5/szKQA47ZjyaTCe1kbg4iiGX/9wfcTJ+J9BQgsIMN6xvWBXLX2ptqVTpyYNRmzlwvt3FAZw8VYKKIlYznB/E4EUe7k8Yu4GclRlEVlkN9uaLqy1EnLqUHK5ZcPLQOOrr1vMGaeaTUvnOAJziyh/3N6OqKEWNam4VmreMo91kYdWkVnCi76UulOyqgiEpYtDB+PwhGMPN/kwbuajaVYPxQydhURiHPuO5ZkfH5lY457oxeKwDHQfFowVHLi9Wnqib8vozC8af7UVBdxf6lAyEZHFpEI2P9wG32NElyUA+Ts7SK6bT89ZJtLvqUb82SVK4sx4jDV+D3jONpvPr3ka6bBZYAlbuOw9rtwvriwqRcbEPPVd0oR13abClUqMnlvY/Ba4wJ8pncKURhgXMiXtlGLO/xT/wI6zdwN+wEDOEyfdahWJxV9Wo46UTw3aoWMhO++ve1JMq+YYljcPAxl9vEkrXlArFeZnSmNUlK0ul6yNK85k+HxAasstTPyzo0z5hc3b4PTySge0FOd3Ls0U5ZAvLHxSvm4QBBaVMvN4gZD+UuqFp6WVc6NuaLRSHmTeUEtI0PCbsuPcwdWR66s9JFk/2u0nbCyEYUf8KMmCH8rAPm9C+MjtlQ9OI1JD2NjKNw8DE/ZYC553IdWLtoRPCnt/0KbYD6bKlpl1P0p41gfNOpN9cs0c4cahBaLcqpDiC3UDOygxEntjYM20GkjyBtFUYjjZxcoYy3fKNiBbmrERlTOjZukTYbEqPia6Z/OnsETbnbRZ6nPz668DVYaF1ZbHQqtQQpQJNjuUPJL35M71lc4pJZtgVC8VMV+SqzDzS2kam0VkJN0dtckI5l6e7rZp2W1EpXZMTgrI4ItdNNAxsBqJfdxynSyxoOGBP/nCYy2Y0HsrAs+YdKIi62dfMZFrlG41ZszH35nC7RmkBD+wHdmF47WkcX5eeAYIZ+Tvw6lNA6w5z5OURpxOPHW3Nw3jYnKQloL8q3FyAHa89DexrhFnFBp1JR+tzFtJef+pR8fxp/OhsA9reT99gSdepRrTf8ixOR1kCmvhqktY2kpG2eX0ZyhubZmQphGrAlppuPWUopSsjC6HiiG43fEP0WPg5QRAEQRAEQRCEZqA3KwRBEARBEARBaBJyVgiCIAiCIAiC0CTkrBAEQRAEQRAEoUGA/w/PvUier7XH3wAAAABJRU5ErkJggg==;" vertex="1" parent="1">
          <mxGeometry x="870" y="897.79" width="311" height="32.21" as="geometry" />
        </mxCell>
      </root>
    </mxGraphModel>
  </diagram>
</mxfile>
